<?xml version="1.0" encoding="utf-8"?>
<!DOCTYPE svg PUBLIC "-//W3C//DTD SVG 1.0//EN" "http://www.w3.org/TR/2001/REC-SVG-20010904/DTD/svg10.dtd">
<svg version="1.0" xmlns="http://www.w3.org/2000/svg" width="739px" height="512px" viewBox="0 0 739 512" preserveAspectRatio="xMidYMid meet">
 <g fill="#fcb547">
  <path d="M364 470 c0 -1.6 0.7 -2 3.5 -2 4 0 4.9 2.4 1.3 3.4 -3.8 1 -4.8 0.7 -4.8 -1.4z"/>
  <path d="M416 296.5 c0 -3.4 0.1 -3.5 4 -3.5 3.9 0 4 0.1 4 3.5 0 3.4 -0.1 3.5 -4 3.5 -3.9 0 -4 -0.1 -4 -3.5z"/>
  <path d="M215.1 271.9 c-2.1 -6 -1.4 -15.4 1.5 -21.2 5.2 -10.2 7.3 -12.9 9.6 -12.1 1.1 0.3 5.7 -0.1 10.2 -0.9 13.8 -2.7 21.1 -3.7 26 -3.7 4.6 0 4.6 0 4.6 3.5 0 4 -2 5.5 -7.3 5.5 -2.7 0 -4.1 0.7 -6.1 3.1 -1.4 1.7 -2.6 3.9 -2.6 5 0 1.1 -0.8 2.2 -1.7 2.6 -3.4 1.2 -5.3 3.6 -5.3 6.7 0 7.3 -0.4 7.6 -9.4 7.7 -9.7 0.1 -15 1.7 -15.4 4.7 -0.5 3.2 -2.8 2.7 -4.1 -0.9z"/>
  <path d="M242 222.1 c0 -1.9 23 -13.9 26.8 -14 2.2 -0.1 2.3 0.1 1.6 4.7 -0.3 2.6 -0.9 5 -1.3 5.4 -0.8 0.9 -20.2 4.8 -24 4.8 -1.7 0 -3.1 -0.4 -3.1 -0.9z"/>
 </g>
 <g fill="#eea155">
  <path d="M368 484.6 c0 -1.4 1.4 -1.9 9.8 -3.1 3.7 -0.6 4.2 -0.5 4.2 1.3 0 1.5 -0.9 2.1 -3.7 2.6 -6.5 1 -10.3 0.7 -10.3 -0.8z"/>
  <path d="M403 459.5 c0 -2.2 0.4 -2.5 3.5 -2.5 4.3 0 4.4 1 0.6 3.3 -3.8 2.2 -4.1 2.2 -4.1 -0.8z"/>
  <path d="M342 443 c0 -1.8 0.6 -2 5 -1.9 4.1 0.2 5 0.5 5 2.1 0 1.5 -0.8 1.8 -5 1.8 -4.3 0 -5 -0.3 -5 -2z"/>
  <path d="M353 364 c0 -1.7 0.7 -2 4 -2 4.5 0 5.7 2.3 1.8 3.4 -4.2 1.1 -5.8 0.7 -5.8 -1.4z"/>
  <path d="M391 358 c0 -1.6 0.7 -2 3.5 -2 4 0 4.9 2.4 1.3 3.4 -3.8 1 -4.8 0.7 -4.8 -1.4z"/>
  <path d="M414 352.5 c0 -2.4 2.2 -3.5 7.3 -3.5 3 0 3.8 2.4 1 3.3 -1 0.3 -3.3 1 -5 1.5 -3.1 1 -3.3 0.9 -3.3 -1.3z"/>
  <path d="M385 302.8 c-3.6 -1.2 -8.7 -2.3 -11.3 -2.5 l-4.8 -0.5 0.3 -3.5 c0.3 -3.5 0.4 -3.6 9.6 -6.8 19.3 -6.9 32.3 -12.7 52.7 -23.3 4.6 -2.5 9.3 -4.2 11.2 -4.2 3.3 0 3.3 0 3.3 5 0 6.3 -2.2 12.1 -7.2 18.6 -2.1 2.8 -3.8 5.6 -3.8 6.2 0 0.7 -1 1.2 -2.3 1.2 -1.2 0 -3.8 1 -5.7 2.3 -6.3 4.2 -11.5 6.4 -18.7 8.1 -9.3 2.1 -15.3 1.9 -23.3 -0.6z"/>
  <path d="M492 292.7 c0 -3.2 0.3 -3.7 2.4 -3.7 1.9 0 2.3 0.4 1.9 1.9 -0.3 1.1 -1.4 2.7 -2.4 3.7 -1.8 1.7 -1.9 1.6 -1.9 -1.9z"/>
  <path d="M218.2 282.8 c-1 -2.1 -2.2 -7.6 -2.7 -12 -0.1 -1.1 0.7 -1.9 2.4 -2.2 1.4 -0.2 6.1 -1 10.4 -1.7 4.2 -0.7 7.7 -1.6 7.7 -1.9 0 -0.3 1.6 -0.6 3.5 -0.7 3.3 -0.1 3.5 0.1 3.5 3.3 0 2.9 -0.3 3.4 -2.4 3.4 -1.3 0 -2.6 0.4 -2.8 0.9 -0.1 0.6 -3.9 2.5 -8.3 4.3 -7 2.9 -8 3.7 -8.3 6.1 -0.4 3.3 -1.5 3.5 -3 0.5z"/>
 </g>
 <g fill="#ffb623">
  <path d="M378 468.1 c0 -1.8 3.9 -3.1 9.8 -3.1 4.4 0 2.3 2.8 -2.8 3.9 -6.7 1.4 -7 1.4 -7 -0.8z"/>
  <path d="M356.4 462.6 c-0.3 -0.8 -0.4 -2.7 -0.2 -4.3 0.3 -2.6 0.7 -2.8 4.3 -2.8 l4 0 0 4 c0 3.9 -0.1 4 -3.8 4.3 -2.6 0.2 -3.9 -0.1 -4.3 -1.2z"/>
  <path d="M380.6 334.4 c-1.8 -1.8 -2.2 -11.4 -0.6 -13 0.7 -0.7 -0.3 -1.6 -3 -2.8 -3.7 -1.6 -4 -2.1 -4 -5.6 l0 -3.8 8.3 -2.5 c19.8 -6.2 22.5 -6.5 35.6 -4.1 16.3 3 16.1 2.9 16.1 7.3 0 3.4 -0.4 4.1 -3.2 5.4 -7.1 3.3 -17.7 5.9 -26.5 6.4 l-9.3 0.6 0 5.6 c0 3.2 -0.5 6.2 -1.2 6.9 -1.8 1.8 -10.3 1.5 -12.2 -0.4z"/>
  <path d="M223.6 241.7 c-1.6 -1.1 -1.1 -2 4.4 -7.9 6.9 -7.6 14.4 -13.5 18.1 -14.1 15 -2.9 19.5 -3.9 20.4 -4.8 1 -1.1 0.6 -1.1 -5.5 0.7 -2.9 0.8 -2.4 -1.5 0.6 -2.6 1.4 -0.6 6.4 -1 11.1 -1 l8.6 0 -0.5 10.3 c-0.6 10 -2.1 15.7 -4.2 15.7 -0.6 0 -6 0.9 -12.1 2 -12.8 2.3 -13.2 2.3 -11.9 1 0.6 -0.6 3 -1.2 5.4 -1.5 2.3 -0.2 4.8 -0.9 5.3 -1.4 1.8 -1.8 -1.9 -1.4 -23.8 2.4 -4.4 0.8 -9.4 1.6 -11.1 1.9 -1.7 0.3 -3.9 -0.1 -4.8 -0.7z"/>
 </g>
 <g fill="#ff7455">
  <path d="M296.5 449 c-3.5 -2.3 -4.3 -4.3 -3.7 -9.2 0.4 -3.6 0.6 -3.8 4.2 -3.8 6 0 9 1.5 9 4.5 0 1.8 0.5 2.5 2 2.5 1.6 0 2 0.7 2 3.4 0 3 -0.4 3.4 -3.1 4 -5.1 1 -7.2 0.7 -10.4 -1.4z"/>
  <path d="M494.5 226.8 c-4.7 -5.2 -9.2 -13.1 -11.4 -20 -0.7 -2.1 -1.7 -3.8 -2.2 -3.8 -1.4 0 -1.1 -7.7 0.7 -15 1 -4.4 1.5 -11.6 1.5 -22.7 l0 -16.3 2.3 0 c3.5 0 9.8 9.9 17.8 28 3.5 7.9 3.4 6.6 2.9 29.7 0 2.9 0.4 6.4 0.9 7.9 0.6 1.5 1.3 6 1.7 10 l0.6 7.4 -5.1 0 c-4.8 0 -5.2 -0.2 -9.7 -5.2z"/>
  <path d="M428 116.5 c0 -3.3 0.2 -3.5 3.5 -3.5 3.3 0 3.5 0.2 3.5 3.5 0 3.3 -0.2 3.5 -3.5 3.5 -3.3 0 -3.5 -0.2 -3.5 -3.5z"/>
  <path d="M418.4 100.6 c-0.3 -0.8 -0.4 -2.9 -0.2 -4.8 0.3 -3.1 0.5 -3.3 4.3 -3.3 l4 0 0.3 4.8 0.3 4.7 -4.1 0 c-2.6 0 -4.3 -0.5 -4.6 -1.4z"/>
  <path d="M406 85.1 c0 -0.5 -2.4 -1.2 -5.4 -1.5 -3.8 -0.5 -6 -1.4 -7.6 -3.2 -1.3 -1.3 -2.1 -2.7 -1.8 -3 0.8 -0.7 15.3 3.3 19.1 5.2 3.7 2 3.4 3.4 -0.8 3.4 -1.9 0 -3.5 -0.4 -3.5 -0.9z"/>
 </g>
 <g fill="#f6a42c">
  <path d="M342.1 495.9 c-2.1 -0.8 -2.3 -1.4 -1.8 -5.2 0.9 -6.8 5.8 -9 15.6 -7.1 2.6 0.5 3.1 1.1 3.1 3.4 0 2.4 -0.5 2.8 -4 3.4 -3.6 0.6 -4 0.9 -4 3.6 0 2.7 -0.3 3 -3.2 2.9 -1.8 0 -4.4 -0.5 -5.7 -1z"/>
  <path d="M371 494.6 c0 -0.8 -2 -2 -4.5 -2.7 -4.1 -1.2 -4.5 -1.6 -4.5 -4.6 0 -3.3 0 -3.3 4.8 -3.3 6.3 0 12.6 3.5 13 7.3 0.3 2.1 -0.2 2.9 -2.3 3.7 -3.7 1.4 -6.5 1.2 -6.5 -0.4z"/>
  <path d="M353 466.5 l0 -3.5 5 0 5 0 0 3.5 0 3.5 -5 0 -5 0 0 -3.5z"/>
  <path d="M329 463.6 c0 -2.6 0.8 -4.1 3.5 -6.5 2.3 -2 3.5 -3.9 3.5 -5.6 0 -2 0.5 -2.5 2.4 -2.5 1.3 0 4.4 -0.8 6.8 -1.8 6.1 -2.6 18.3 -4.4 24.9 -3.6 7.7 0.9 27.3 10.9 27.7 14.2 0.3 1.7 1 2.2 3.3 2.2 3.4 0 3.8 1.5 0.7 3.1 -3.4 1.8 -9.5 1.2 -11.9 -1.2 -1.2 -1.2 -6.4 -4.1 -11.6 -6.6 -9.1 -4.2 -9.9 -4.4 -15.7 -3.8 -7.9 0.9 -12.7 3.2 -20.3 10 -5 4.5 -6.8 5.5 -9.7 5.5 -3.4 0 -3.6 -0.2 -3.6 -3.4z"/>
  <path d="M310.9 344.6 c-0.6 -1.3 -2.2 -3 -3.6 -3.7 -2.2 -1.2 -2.5 -1.8 -2 -5.7 0.6 -5.3 1.7 -6.2 8 -6.2 4.3 0 4.9 0.3 5.8 2.7 0.6 1.5 1.3 5.6 1.6 9 l0.6 6.3 -4.7 0 c-3.9 0 -4.8 -0.4 -5.7 -2.4z"/>
  <path d="M353.5 340 c-8.1 -1.2 -16.5 -4 -23.7 -7.7 -6.4 -3.3 -6.8 -3.8 -6.8 -6.9 0 -3.3 0.1 -3.4 3.9 -3.4 2.2 0 4.3 0.5 4.6 1 1.1 1.8 2.5 1 2.5 -1.5 0 -2 0.5 -2.5 2.3 -2.5 1.3 0 3.2 -0.9 4.2 -2 1.1 -1.2 3.1 -2 5.1 -2 5.1 0 6.4 0.9 6.4 4.4 0 2.7 -0.5 3.3 -3.7 4.3 -2.1 0.6 -5.5 1.5 -7.7 1.9 l-3.9 0.7 3.4 1.4 c1.9 0.8 7 2.4 11.4 3.6 10.6 2.8 31.5 2.9 46.5 0.4 16.4 -2.9 25.1 -4.7 27.1 -5.7 1 -0.6 3.1 -1 4.8 -1 2.8 0 3.1 0.3 3.1 3.3 0 3.9 -1.1 4.6 -13.3 8.3 -12.3 3.7 -51.1 5.7 -66.2 3.4z"/>
  <path d="M353 318.6 c0 -3 0.4 -3.4 3.1 -4 6.7 -1.3 7.9 -0.9 7.9 2.8 0 3 -0.4 3.4 -3.1 4 -6.7 1.3 -7.9 0.9 -7.9 -2.8z"/>
  <path d="M439.6 314.5 c-1.1 -0.8 -3 -1.5 -4.2 -1.5 -3.3 0 -5.4 -1 -5.4 -2.6 0 -2.6 -23.6 -7 -29 -5.4 -6.7 1.9 -15.9 1 -23.7 -2.6 -1.7 -0.8 -4.7 -1.4 -6.7 -1.4 -3.4 0 -3.6 -0.1 -3.6 -3.5 l0 -3.5 4.8 0.1 c4.3 0 4.5 0.1 2.2 1.1 -2.4 1.1 -2.2 1.2 2.5 1.9 2.8 0.3 8.4 1.7 12.5 2.9 7.3 2.2 7.6 2.2 15.5 0.5 4.4 -0.9 9 -2.3 10.3 -3.1 1.3 -0.8 3.3 -1.3 4.5 -1 1.2 0.3 1.6 0.3 0.9 0 -1.8 -0.8 6.5 -6.4 9.6 -6.4 1.2 0 2.2 -0.6 2.2 -1.4 0 -2.3 1.6 -2.8 5.7 -1.7 13.4 3.4 12.3 2.8 12.3 7.2 0 3.2 -0.7 4.7 -3.9 8.2 l-3.9 4.3 3.9 1.2 c2.1 0.7 5 1.2 6.4 1.2 2.2 0 2.5 0.4 2.5 3.5 l0 3.5 -6.7 0 c-4.4 -0.1 -7.5 -0.6 -8.7 -1.5z"/>
  <path d="M230.5 271.5 c2.8 -1.4 4.1 -2.3 3.1 -2 -1.1 0.3 -5.3 1 -9.5 1.6 -4.2 0.6 -7.8 1.2 -8.1 1.4 -0.3 0.2 -0.6 -0.8 -0.6 -2.1 -0.2 -1.9 0.6 -2.6 4.8 -4 2.7 -0.9 5.5 -1.7 6.2 -1.8 0.8 -0.1 2.1 -0.8 3 -1.5 0.9 -0.7 2.5 -1.1 3.5 -0.8 1.5 0.3 2.7 -0.5 4.6 -3.2 2.7 -4 7.9 -9.4 8.9 -9.2 0.3 0.1 0.6 -0.1 0.6 -0.4 -0.1 -1.2 3 -6.2 4.7 -7.8 1.1 -0.9 3.9 -1.9 6.3 -2.2 2.3 -0.2 5 -1 5.9 -1.9 0.9 -0.8 3.7 -1.7 6.3 -2.1 2.6 -0.4 4.9 -1.3 5.2 -2.1 0.4 -1.1 4.1 -1.4 19.3 -1.3 16.8 0.1 20 -0.1 30.6 -2.5 15.9 -3.5 16.7 -3.5 16.7 0.7 l0 3.2 -10.2 2.4 c-16.8 3.8 -26.9 5.2 -34.4 4.7 -4 -0.2 -10 -0.2 -13.3 0.1 l-6.2 0.6 -2.8 6.1 c-1.9 4.1 -5.1 8.3 -9.6 12.8 -5.9 5.8 -7.4 6.8 -11.4 7.3 -2.5 0.4 -7.9 1.8 -12 3.1 -4 1.4 -9.4 2.7 -12 3 l-4.6 0.5 5 -2.6z m9.9 -9.1 c0.4 -1.5 0.4 -2.9 0.1 -3.2 -0.8 -0.8 -2.5 1.9 -2.5 4.1 0 2.6 1.7 2 2.4 -0.9z"/>
  <path d="M351 225.7 c0 -3.6 1.5 -4.7 6.8 -4.7 1.2 0 2.2 -0.4 2.2 -1 0 -0.5 1.6 -1 3.5 -1 2.3 0 3.5 -0.5 3.5 -1.3 0 -0.8 1 -1.9 2.3 -2.5 2.2 -1 2.2 -1.1 -0.5 -1.1 -2.5 -0.1 -2.8 -0.5 -2.8 -3.6 0 -3.3 0.2 -3.5 3.3 -3.5 1.7 0 6.7 0.5 11 1.2 l7.7 1.1 0 3.7 c0 3.5 -0.2 3.7 -6.7 6.4 -3.8 1.6 -8.5 3 -10.5 3.3 -2.4 0.3 -3.8 1 -3.8 1.9 0 0.9 -1.1 1.4 -2.9 1.4 -1.6 0 -3.1 0.5 -3.3 1.1 -0.2 0.6 -2.5 1.3 -5.1 1.6 l-4.7 0.6 0 -3.6z"/>
  <path d="M278 215.9 c0 -0.5 -2.1 -1 -4.7 -0.9 -2.7 0 -5.7 -0.1 -6.8 -0.2 -1.1 -0.1 -3.3 0.1 -4.8 0.5 -2.5 0.7 -2.8 0.5 -2.5 -1.4 0.2 -1.5 1.5 -2.6 4 -3.5 2 -0.7 5.2 -2 7 -2.8 1.8 -0.9 5.2 -2.2 7.6 -3 4.2 -1.5 4.2 -1.5 4.2 0.9 0 1.4 -0.5 2.5 -1.1 2.5 -0.5 0 -0.8 0.4 -0.5 0.8 0.3 0.5 3.5 0.5 7.3 0 3.7 -0.4 9.6 -1.1 13 -1.4 4 -0.4 7 -1.4 8.2 -2.6 1.1 -1 4.1 -2.1 6.6 -2.5 4 -0.5 4.8 -0.3 6.1 1.6 1.5 2 2.2 2.1 21 2.1 l19.4 0 0 3.4 0 3.3 -30.2 0.6 c-19.1 0.4 -33.8 1.2 -39.8 2.1 -11.4 1.8 -14 1.9 -14 0.5z"/>
  <path d="M293.2 200.9 c0.2 -0.8 2.7 -2.2 5.4 -3.1 4.8 -1.6 4.9 -1.6 5.2 0.4 0.5 2.6 0.3 2.8 -5.8 3.5 -4.3 0.5 -5.2 0.3 -4.8 -0.8z"/>
  <path d="M406.7 150.4 c-0.4 -0.4 -0.7 -2.2 -0.7 -4.1 0 -3.3 0.1 -3.3 4.6 -3.3 l4.5 0 -0.3 3.8 c-0.3 3.5 -0.5 3.7 -3.8 4 -2 0.2 -3.9 0 -4.3 -0.4z"/>
 </g>
 <g fill="#f79537">
  <path d="M335.8 492.6 c-1.1 -0.8 -1.8 -2.7 -1.8 -4.9 0 -4.4 1.9 -5.7 8.5 -5.7 4.5 0 4.6 0.1 4.3 2.7 -0.2 1.9 -1.2 3.2 -3 4.1 -1.7 0.8 -2.8 2.1 -2.8 3.3 0 2.2 -2.6 2.5 -5.2 0.5z"/>
  <path d="M379.6 490.4 c-0.3 -0.9 -0.6 -2.9 -0.6 -4.5 0 -2.9 0.2 -3 3.8 -2.7 3 0.2 3.8 0.7 4 2.6 0.7 4.4 -5.7 8.5 -7.2 4.6z"/>
  <path d="M320 460.5 c0 -2.4 0.6 -3.8 1.6 -4.2 0.9 -0.3 3.3 -2.1 5.3 -4 5 -4.7 8 -6.2 14.5 -6.9 l5.6 -0.7 0 3.1 c0 3.2 -1.4 4.2 -5.6 4.2 -1.3 0 -2.4 0.6 -2.4 1.3 0 1.4 -8.1 7.7 -9.8 7.7 -0.5 0 -1.2 0.7 -1.6 1.5 -0.3 0.9 -1.9 1.5 -4.1 1.5 -3.3 0 -3.5 -0.2 -3.5 -3.5z"/>
  <path d="M402 454.7 c-1.4 -0.6 -2.7 -1.4 -3 -1.7 -0.9 -1.1 -10.4 -3.2 -16.2 -3.7 l-5.8 -0.5 0 -3.4 0 -3.4 6.7 0 c6.5 0 17.3 2.6 17.3 4.2 0 0.4 0.8 0.8 1.9 0.8 1 0 3.2 0.5 5 1.1 2.7 0.9 3.1 1.6 3.1 4.5 0 3.2 -0.2 3.4 -3.2 3.3 -1.8 0 -4.4 -0.6 -5.8 -1.2z"/>
  <path d="M365 427.3 c0 -2.1 0.5 -2.3 4.5 -2.3 3.8 0 4.5 0.3 4.5 1.9 0 1.5 -0.9 2 -4.5 2.3 -4.1 0.3 -4.5 0.1 -4.5 -1.9z"/>
  <path d="M395 422.4 c0 -1.4 -2.1 -2.1 -7.5 -2.6 -2.7 -0.3 -3 -0.6 -3.3 -4.4 l-0.3 -4.2 7 -2.1 c8.4 -2.6 14.9 -2.7 19 -0.3 5.6 3.1 4.2 5.1 -8.5 11.7 -4.6 2.4 -6.4 3 -6.4 1.9z"/>
  <path d="M296.3 359 c-3 -2.7 -3.3 -3.5 -3.3 -8.5 0 -5.3 0.2 -5.8 5.2 -11 4 -4.2 5.9 -5.5 8.1 -5.5 2.1 0 2.8 0.4 2.4 1.4 -0.3 0.8 0.5 1.9 1.8 2.6 1.2 0.7 2.8 2.3 3.4 3.6 1 2.3 4.1 3.4 4.1 1.4 0 -0.5 2.5 0.2 5.5 1.7 5 2.5 5.5 3 5.5 6 0 3.1 -0.2 3.3 -3.4 3.3 -2.2 0 -5.7 1.4 -10 4 -8.5 5.2 -14.4 5.5 -19.3 1z"/>
  <path d="M463.5 299 c-1.1 -0.4 -4.7 -1.4 -8 -2.1 -3.3 -0.7 -7.1 -2.1 -8.5 -3.1 -1.4 -1 -5 -2.2 -8 -2.8 -3 -0.6 -5.9 -1.5 -6.4 -2 -0.6 -0.6 0.6 -2.9 3.1 -6.2 2.3 -2.9 4.9 -7.7 5.9 -10.5 1.9 -5.5 4.4 -7.1 4.4 -2.8 l0 2.4 4.3 -1.9 c2.3 -1.1 5.7 -2 7.5 -2 l3.2 0 0 6.8 c0 4.7 -0.6 7.9 -1.9 10.5 -1.4 2.7 -1.6 3.9 -0.8 4.2 3 0.9 8.5 2.4 11 2.9 2.3 0.6 2.7 1.1 2.7 4.1 0 3.3 -0.2 3.5 -3.2 3.4 -1.8 0 -4.2 -0.4 -5.3 -0.9z"/>
  <path d="M224.2 297.5 c-0.7 -0.8 -2.6 -5.4 -4.1 -10.2 -2.2 -6.7 -2.6 -9.1 -1.8 -10 2.3 -2.3 25.3 -11.5 31.2 -12.4 3.3 -0.6 6.8 -1.7 7.7 -2.6 1.7 -1.5 1.8 -1.4 1.8 1.8 0 2.7 -1.1 4.7 -5.1 9.2 -5.4 6.1 -13.5 10.9 -24 14.3 -6.7 2.1 -6.5 2 -4.5 3.9 1.6 1.6 2.3 7.5 0.9 7.5 -0.5 -0.1 -1.4 -0.7 -2.1 -1.5z"/>
  <path d="M376 195.5 c0 -2.4 0.5 -3.5 1.5 -3.5 0.8 0 1.5 -0.7 1.5 -1.5 0 -0.8 0.5 -1.5 1 -1.5 0.6 0 1 -0.9 1 -2 0 -2.5 2.2 -2.6 17.3 -0.4 13.7 2 14.7 2.5 14.7 6.9 0 3.3 -0.2 3.5 -3.4 3.5 -1.9 0 -3.7 -0.4 -4.1 -0.9 -0.5 -0.9 -6.7 -2.4 -15.2 -3.5 -3.8 -0.6 -4.3 -0.4 -4.3 1.4 0 1.1 -0.7 2 -1.5 2 -0.8 0 -1.5 0.7 -1.5 1.5 0 1 -1.1 1.5 -3.5 1.5 -3.3 0 -3.5 -0.2 -3.5 -3.5z"/>
  <path d="M367.6 192.9 c-1.3 -6.7 -0.9 -7.9 2.8 -7.9 3 0 3.4 0.4 4 3.1 1.3 6.7 0.9 7.9 -2.8 7.9 -3 0 -3.4 -0.4 -4 -3.1z"/>
  <path d="M326 189.7 c0 -0.7 2.8 -2.3 6.3 -3.6 3.4 -1.3 9.2 -3.9 13 -5.8 3.7 -1.8 6.9 -3.3 7.2 -3.3 0.3 0 0.5 1.1 0.5 2.3 0 2.4 -3.3 4.7 -6.5 4.7 -0.8 0 -1.5 0.4 -1.5 0.8 0 0.4 -2.7 2 -5.9 3.5 -6.3 2.9 -13.1 3.6 -13.1 1.4z"/>
  <path d="M349 187.5 c0 -3.5 0 -3.5 4.5 -3.5 4.5 0 4.5 0 4.5 3.5 0 3.5 0 3.5 -4.5 3.5 -4.5 0 -4.5 0 -4.5 -3.5z"/>
  <path d="M369 165.9 c2.5 -2.2 5.7 -4.9 7.3 -6 l2.7 -2 0 2.9 c0 2.8 -2.6 6.2 -4.7 6.2 -0.6 0 -1.3 0.7 -1.7 1.5 -0.3 1 -1.8 1.5 -4.3 1.5 l-3.8 -0.1 4.5 -4z"/>
  <path d="M405.7 151.3 c-0.4 -0.3 -0.7 -2.5 -0.7 -4.9 0 -4.5 1 -5.4 6.1 -5.4 3.2 0 3.6 1.4 2.3 7.9 -0.6 2.7 -1.1 3.1 -3.9 3.1 -1.7 0 -3.5 -0.3 -3.8 -0.7z"/>
 </g>
 <g fill="#f98146">
  <path d="M325.5 481.9 c-2.2 -4.2 -1.3 -5.9 3 -5.9 3.2 0 3.5 0.2 3.5 2.9 0 6.7 -3.8 8.4 -6.5 3z"/>
  <path d="M389 483.8 c0 -0.7 -0.3 -2.2 -0.5 -3.3 -0.4 -1.5 0.2 -2.4 2.5 -3.7 2.9 -1.7 3 -1.6 3 0.3 0 2.3 -3 7.9 -4.2 7.9 -0.4 0 -0.8 -0.6 -0.8 -1.2z"/>
  <path d="M311.3 459 c-0.3 -1.1 -1.4 -2 -2.4 -2 -1.5 0 -1.9 -0.7 -1.9 -3.5 0 -3 0.4 -3.5 2.8 -4.1 1.5 -0.3 4.5 -1.2 6.7 -2 2.3 -0.8 5.3 -1.4 6.8 -1.4 2.5 0 2.7 0.3 2.7 3.9 0 3.1 -0.4 4.1 -2 4.6 -1.1 0.4 -2.7 2 -3.5 3.6 -1.3 2.4 -2.2 2.9 -5.1 2.9 -2.7 0 -3.7 -0.5 -4.1 -2z"/>
  <path d="M415.2 444 c-2 -1.6 -3.3 -1.8 -8.8 -1.3 l-6.4 0.6 0 -3.7 c0 -2.8 0.5 -3.9 2.3 -4.7 1.2 -0.5 3.3 -2.6 4.6 -4.5 2.5 -3.6 3.5 -4 7.5 -2.4 3.1 1.1 5.5 4.7 6.7 9.7 1.6 7.5 -1 10.4 -5.9 6.3z"/>
  <path d="M335 430 c-3.4 -0.5 -3.5 -0.7 -3.8 -5 -0.2 -3.7 0.1 -5 2 -6.7 2 -1.9 3.8 -2.2 14.4 -2.7 6.6 -0.3 15.7 -0.8 20.2 -1.2 l8.2 -0.7 0 3.8 c0 3 -0.7 4.3 -3.2 6.6 -1.8 1.6 -4.4 3.2 -5.8 3.6 -1.4 0.3 -2.7 0.9 -3 1.4 -0.6 0.9 -24 1.6 -29 0.9z"/>
  <path d="M410 414.2 c0 -0.5 -1.1 -1.4 -2.5 -2 -3.2 -1.5 -3.4 -6.3 -0.4 -9.3 3.1 -3.1 9.8 -2.3 11.9 1.4 1.5 2.8 1.4 2.9 -3 6.8 -4.5 3.9 -6 4.7 -6 3.1z"/>
  <path d="M287.1 378.1 l-3.4 -2.8 0.6 -6.9 c0.4 -3.9 1.9 -9.9 3.4 -13.6 2.5 -6.1 3.1 -6.8 5.6 -6.8 2.2 0 2.7 0.4 2.7 2.5 0 2.9 5.4 8.4 8.3 8.5 2.9 0 2.1 5.4 -2 13.3 -2.1 3.9 -4.2 7.5 -4.8 7.9 -2.2 1.7 -7.1 0.7 -10.4 -2.1z"/>
  <path d="M237.8 319.6 c-1.7 -2.3 -3.6 -4.6 -4.2 -5.1 -2.5 -2.4 -8.6 -13.5 -8.6 -15.6 0 -2.2 3.6 -2.7 4.3 -0.6 0.3 1 0.9 1 2.6 0 2.5 -1.5 10.1 -1.7 10.1 -0.3 0 0.6 0.6 1 1.4 1 1 0 1.7 1.6 2.1 4.8 0.4 2.6 1.1 6 1.6 7.6 0.5 1.6 0.9 4.8 0.9 7.1 0 4.2 -0.1 4.3 -3.6 4.7 -3.2 0.4 -3.9 0 -6.6 -3.6z"/>
  <path d="M419 274.6 c0 -2.4 1.7 -3.6 5.1 -3.6 1 0 1.9 -0.7 1.9 -1.5 0 -1 1 -1.5 3 -1.5 1.7 0 3 -0.5 3 -1.2 0 -0.7 3 -3.8 6.7 -6.8 3.7 -3 9.3 -7.9 12.4 -10.8 4.9 -4.5 6.3 -5.3 9.1 -5 3.9 0.4 4.6 2.1 4.7 12.4 0.1 6.2 -0.2 7.6 -3 11.9 -1.8 2.9 -3.4 4.4 -3.8 3.7 -0.4 -0.7 -2 -0.5 -5.1 0.9 -2.4 1.1 -5.6 1.9 -7 1.7 -2.2 -0.3 -2.5 -0.8 -2.8 -5.1 -0.2 -2.7 -0.6 -4.7 -1 -4.5 -0.4 0.2 -2.9 1.5 -5.7 2.8 -2.7 1.2 -6.7 3.4 -8.8 4.7 -2.1 1.3 -4.9 2.8 -6.2 3.3 -2.2 0.8 -2.5 0.7 -2.5 -1.4z"/>
  <path d="M480.2 237.8 c-1.8 -1.8 -1.5 -9.4 0.4 -11.2 2 -2.1 8.8 -2.1 10.8 0 1.8 1.8 2.1 6 0.6 9.8 -0.8 2.3 -1.5 2.6 -5.8 2.6 -2.6 0 -5.3 -0.5 -6 -1.2z"/>
  <path d="M429.3 149.6 c-2.1 -2.4 -7.9 -11.9 -10.7 -17.5 -2.3 -4.6 -2.7 -7.1 -3.3 -17.7 l-0.6 -12.4 2.6 -2.6 c2.3 -2.3 2.9 -2.5 4.4 -1.3 1.3 1.1 1.7 1.1 2 0.2 1.6 -4.8 7.3 3.6 10.9 16 2 6.8 2.4 10.3 2.4 22.4 l0 14.3 -3.2 0 c-1.8 -0.1 -3.8 -0.7 -4.5 -1.4z"/>
  <path d="M394 141.4 c1.8 -2.5 4.5 -7.4 6.1 -11 2.7 -6 3 -7.4 3 -17.9 0 -10.7 0.1 -11.5 1.9 -11.5 1.8 0 2 0.7 2 8.4 0 4.7 0.5 8.8 1 9.1 1.2 0.7 1.4 7.5 0.2 7.5 -0.5 0 -1.7 2.5 -2.8 5.5 -1 3.1 -3.3 7.2 -5.1 9.2 -1.8 1.9 -3.3 3.9 -3.3 4.4 0 0.5 -1.4 0.9 -3 0.9 l-3.1 0 3.1 -4.6z"/>
 </g>
 <g fill="#e17f5e">
  <path d="M325 480.9 c-1.6 -2.8 -0.3 -8.1 1.8 -7.7 1.2 0.2 1.7 1.4 1.8 4 0.1 2.3 -0.3 3.5 -0.9 3.1 -0.6 -0.4 -0.8 0 -0.4 1 0.9 2.4 -1 2.1 -2.3 -0.4z"/>
  <path d="M298.8 453.9 c-1 -0.5 -1.8 -1.7 -1.8 -2.5 0 -0.9 -1 -2.4 -2.2 -3.4 -3.1 -2.5 -2.8 -9.7 0.7 -15.6 3.1 -5.2 6.5 -7.6 6.5 -4.5 0 1.1 0.5 2.3 1 2.6 0.6 0.3 1 2.2 1 4.1 0 2.4 0.5 3.4 1.5 3.4 0.8 0 1.5 0.9 1.5 2 0 1.7 0.7 2 4.9 2 6.9 0 8.1 0.7 8.1 4.4 0 2.7 -0.5 3.4 -3.3 4.4 -1.8 0.7 -4.6 1.2 -6.1 1.2 -1.4 0 -2.9 0.7 -3.2 1.5 -0.7 1.7 -6 2 -8.6 0.4z m3.7 -9.6 c0 -3.4 -0.4 -3.8 -3.3 -4.7 -6.5 -1.8 -6.6 2.7 -0.1 6.4 1.8 1 3.4 1.9 3.4 1.9 0 0.1 0 -1.6 0 -3.6z"/>
  <path d="M347 443.7 c0 -0.8 1.6 -1.8 3.5 -2.4 3.3 -1.1 3.5 -1 3.5 1.3 0 2.1 -0.5 2.4 -3.5 2.4 -2.2 0 -3.5 -0.5 -3.5 -1.3z"/>
  <path d="M401 433.7 c0 -2.5 0.7 -3.9 3 -5.5 3.3 -2.5 3.9 -2.6 7.5 -1.2 l2.6 1 -3.3 4.5 c-2.7 3.6 -3.9 4.4 -6.5 4.5 -3.1 0 -3.3 -0.2 -3.3 -3.3z"/>
  <path d="M312.8 426.3 c-1 -0.2 -1.8 -1.1 -1.8 -1.9 0 -0.9 -1.1 -1.4 -3 -1.4 -1.9 0 -2.8 -0.4 -2.5 -1.3 0.3 -0.7 -2.2 -3.6 -5.5 -6.6 -6 -5.2 -12.4 -13.2 -14.7 -18.1 -3.3 -7.4 -4.4 -11.5 -3.8 -15.2 0.5 -2.7 0.3 -3.8 -0.6 -3.8 -2.4 0 -0.2 -14.6 3.6 -23.4 2.6 -6 3.1 -8.2 2.2 -8.8 -0.7 -0.5 -0.2 -0.8 1.6 -0.8 1.7 0 2.7 0.5 2.7 1.5 0 0.7 0.7 1.8 1.6 2.3 1.4 0.8 1.2 1.7 -1.4 7.8 -1.6 3.8 -3.2 9 -3.6 11.5 -0.6 4.4 -0.5 4.7 2.8 7.2 3 2.3 3.7 2.5 4.9 1.3 2.6 -2.7 4.1 -0.3 3.4 5.7 -0.4 4.4 -0.1 6.1 1.4 8.7 2.9 4.7 3.7 12.5 1.5 14.9 -1.6 1.7 -1.4 2 2.3 5.4 2.1 1.9 4.8 3.8 6 4.2 1.2 0.3 2.1 1.3 2.1 2.1 0 0.8 1 1.4 2.3 1.4 5.2 0 6.7 1.1 6.7 4.6 0 3.2 -0.2 3.4 -3.2 3.3 -1.8 -0.1 -4.1 -0.3 -5 -0.6z"/>
  <path d="M415.4 406.3 c-2 -2.7 -2.1 -2.7 -4.7 -1 -2.5 1.6 -2.8 1.6 -6.2 -0.5 -2.8 -1.6 -5.1 -2.1 -9.6 -1.9 l-5.9 0.2 0 -3.5 c0 -3 0.4 -3.5 3.1 -4.1 1.7 -0.4 5.5 -0.4 8.4 0 5.3 0.6 5.4 0.6 5.7 -2.2 0.2 -2 0.9 -2.9 2.6 -3.1 1.6 -0.3 2.2 -1 2.2 -2.8 0 -2.8 0.1 -2.8 3.5 -1.2 5.4 2.5 8.6 12.1 6.2 18.7 -1.6 4.4 -2.8 4.8 -5.3 1.4z"/>
  <path d="M378.7 406.3 c-0.4 -0.3 -0.7 -2.4 -0.7 -4.5 l0 -3.8 5 0 c5 0 5 0 5 3.3 0 1.8 -0.5 3.8 -1.2 4.5 -1.3 1.3 -7 1.7 -8.1 0.5z"/>
  <path d="M324.3 401.3 c-1.6 -0.3 -2.3 -1.1 -2.3 -2.8 0 -2.2 0.2 -2.2 4.2 -1.3 2.3 0.5 5.3 0.6 6.5 0.3 1.9 -0.4 2.3 -0.1 2.3 2 0 2.3 -0.3 2.5 -4.2 2.4 -2.4 -0.1 -5.3 -0.4 -6.5 -0.6z"/>
  <path d="M311.7 395.3 c-1 -0.9 -0.9 -7.3 0.1 -7.2 0.4 0 2.2 1.8 4.1 4 l3.3 3.9 -3.4 0 c-1.9 0 -3.8 -0.3 -4.1 -0.7z"/>
  <path d="M316 373.5 c0 -2.2 0.4 -2.5 3.5 -2.5 4.3 0 4.4 1 0.6 3.3 -3.8 2.2 -4.1 2.2 -4.1 -0.8z"/>
  <path d="M253 333.5 c-3.6 -2.4 -8.1 -6 -9.9 -7.9 l-3.5 -3.6 4 0 c2.8 0 4.3 0.5 5.2 2 0.7 1.1 2 2 3 2 0.9 0 2.6 1.4 3.7 3 1.1 1.6 2.6 3 3.3 3 0.7 0 1.2 1.3 1.2 3 0 1.7 -0.1 3 -0.2 2.9 -0.2 0 -3.2 -2 -6.8 -4.4z"/>
  <path d="M396 284.7 c0 -1.9 1.6 -2.9 9.8 -6.5 13.3 -5.7 24.8 -12.4 32.5 -18.8 4.8 -4 7.3 -5.4 9.6 -5.4 1.7 0 3.1 0.3 3 0.8 0 0.4 -3.6 3.7 -8.1 7.3 -8 6.7 -28.5 18 -41 22.7 l-5.8 2.1 0 -2.2z"/>
  <path d="M452.2 249.3 c0.3 -3.6 0.5 -3.8 4.1 -4.1 2 -0.2 3.7 0.1 3.7 0.5 0 1.1 -6.3 7.3 -7.4 7.3 -0.4 0 -0.6 -1.7 -0.4 -3.7z"/>
  <path d="M509 232.1 c0 -4.8 -0.4 -6.2 -1.8 -7 -3.3 -1.8 -6 -19.6 -4.1 -27.1 1 -4 1 -6 0.1 -9.5 -0.6 -2.4 -1.3 -5 -1.4 -5.7 -0.2 -0.7 -0.6 -1.6 -1.1 -1.9 -1.1 -0.8 -4.7 -11.5 -4.7 -13.9 0 -1.1 0.4 -2 0.8 -2 1.1 0 5.5 7.7 6.4 11 0.3 1.4 1.7 5.4 3.1 9 4.4 11.9 6 21.4 6.1 37.5 0.1 13.5 -0.1 15 -1.6 15.3 -1.6 0.3 -1.8 -0.5 -1.8 -5.7z"/>
  <path d="M450.6 154.5 c-0.3 -0.8 -1.1 -1.5 -1.8 -1.5 -1.7 -0.1 -6.8 -4.6 -6.8 -6 0 -0.5 -0.4 -1 -0.8 -1 -0.4 0 -2.2 -1.9 -4 -4.2 -2.8 -3.7 -3.2 -4.9 -3.2 -10.4 0 -11.3 -7.9 -32.4 -11.6 -31 -0.8 0.3 -1.4 -0.1 -1.4 -0.9 0 -0.9 0.6 -1.2 1.6 -0.8 1.2 0.4 1.5 0.1 1.2 -1.3 -0.2 -1 -1 -1.8 -1.7 -1.6 -0.8 0.2 -1 -0.4 -0.6 -1.8 0.5 -1.4 0.2 -2 -0.9 -2 -1 0 -1.6 -0.9 -1.6 -2.5 0 -1.9 0.4 -2.3 1.8 -1.8 3.7 1.4 10 6 16.2 12 10.5 10 18 26.6 18 39.7 0 4.4 0.2 4.8 2.1 4.3 2 -0.5 2.1 -0.3 1.5 3.1 -0.3 2 -0.6 4.9 -0.6 6.5 0 2.4 -0.4 2.7 -3.4 2.7 -2.1 0 -3.6 -0.6 -4 -1.5z"/>
  <path d="M393.3 81 c-2.7 -3.3 -2.8 -4 -0.8 -4 0.9 0 1.2 0.6 0.8 1.8 -0.5 1.4 -0.3 1.5 0.8 0.5 2.1 -2 2.9 -1.5 2.9 1.7 0 3.7 -0.9 3.7 -3.7 0z"/>
  <path d="M401 82 c0 -1.5 0.5 -1.9 2.3 -1.6 1.2 0.3 2.8 0.5 3.5 0.5 0.6 0.1 1.2 0.8 1.2 1.6 0 1 -1.1 1.5 -3.5 1.5 -2.8 0 -3.5 -0.4 -3.5 -2z"/>
 </g>
 <g fill="#fda901">
  <path d="M344.2 495.8 c-2 -2 -1.3 -3.1 1.5 -2.3 2.3 0.5 2.5 0.4 1.4 -0.9 -1.1 -1.3 -1.1 -1.9 -0.1 -3.1 0.7 -0.8 2 -1.5 2.8 -1.5 1.2 0 1.3 -0.3 0.5 -1.1 -1.5 -1.5 -5.1 0.5 -6.3 3.4 -0.9 2 -0.9 1.9 -0.7 -0.8 0.3 -4.3 3.5 -5.5 14.7 -5.4 6.5 0 11.1 0.5 14.5 1.8 4.6 1.6 5 2 5.3 5.3 0.3 3.2 0 3.7 -2.9 4.7 -4.4 1.5 -29.1 1.5 -30.7 -0.1z m26.8 -7.3 c-1.4 -0.8 -3.4 -1.4 -4.5 -1.4 -1.3 0 -0.7 0.5 1.5 1.3 4.7 1.8 6.1 1.8 3 0.1z"/>
  <path d="M343.2 469 c-11.8 -1 -12.2 -1.2 -12.2 -5.3 0 -2.4 0.9 -4.1 3.3 -6.5 1.8 -1.8 3.8 -3.2 4.5 -3.2 2.3 0 1.2 2.3 -2.8 5.8 -2.3 1.9 -3.9 3.7 -3.6 3.9 0.3 0.3 3.3 -2 6.8 -5.1 9.3 -8.3 13 -9.8 24.6 -10 5.3 0 10.6 0.3 11.7 0.7 1.1 0.5 0.8 0.1 -0.6 -0.7 -6 -3.5 -27.2 -0.9 -30 3.7 -0.4 0.5 -1.5 0.7 -2.5 0.3 -1.8 -0.7 -1.8 -0.8 0.1 -2.3 4.5 -3.4 9.1 -4.5 21 -5 l12 -0.4 10.5 5.3 10.5 5.3 0 4.4 0 4.5 -7 1.7 c-13.4 3.4 -28.3 4.3 -46.3 2.9z"/>
  <path d="M354.5 339.1 c-8.7 -1.4 -17.7 -4.1 -23.5 -6.9 -4.9 -2.4 -5.5 -3.1 -5.8 -6.1 -0.2 -1.8 0 -3.7 0.5 -4.2 0.8 -0.8 6.5 -2.1 22.8 -5.3 11.4 -2.2 19.4 -4.5 22.8 -6.6 3.8 -2.3 9.7 -2.7 9.7 -0.6 0 0.8 -1.1 1.7 -2.5 2 -9.4 2.4 11.3 8.5 24.5 7.2 9.7 -0.9 27 -6.4 27 -8.6 0 -0.5 -1.2 -1.3 -2.7 -1.9 -2.5 -0.9 -2.4 -1 1.2 -0.4 2.2 0.3 4.8 1 5.8 1.5 1 0.5 2.1 0.7 2.5 0.4 0.3 -0.3 0 -0.6 -0.6 -0.6 -0.7 0 -1.2 -0.7 -1.2 -1.5 0 -1.2 0.8 -1.4 4.3 -0.9 2.3 0.4 5.2 1.3 6.4 2 1.2 0.8 3.6 1.4 5.3 1.4 2.7 0 3 0.3 3 3.3 0 3.6 -1.6 5.1 -13.5 12.8 -11.4 7.5 -9.3 6.8 -33.5 11 -12.6 2.2 -43.7 3.4 -52.5 2z m46 -2.6 c8.4 -0.9 11.7 -1.5 18.5 -3.6 8.2 -2.4 8.7 -3.2 1.5 -1.8 -33.4 6.5 -49 7.2 -72 3.4 -2.9 -0.5 -2.9 -0.5 -0.5 0.5 5 2.2 13.9 2.9 31 2.4 9.6 -0.3 19.3 -0.7 21.5 -0.9z m-60 -4.5 c-2.7 -1.1 -5.2 -2 -5.5 -1.9 -1.1 0.2 7.6 3.8 9 3.8 0.8 0 -0.7 -0.9 -3.5 -1.9z m49.3 -0.2 c0.7 -0.7 1.2 -2.4 1.2 -3.8 0 -3.1 -1.7 -5 -4.5 -5 -2.7 0 -4.5 1.8 -4.5 4.6 0 4.3 5 7 7.8 4.2z m-59.8 -4.8 c-1.4 -1.1 -2.9 -2 -3.5 -2 -0.5 0 0.4 0.9 2 2 3.8 2.5 4.8 2.5 1.5 0z m17.3 -8.3 c-1 -0.7 -2.1 -0.3 -3.5 1.1 -2 2 -2 2 1.6 0.9 2.8 -0.9 3.2 -1.4 1.9 -2z m101.2 -6.7 c-2.2 -0.4 -4.9 -1.1 -6 -1.5 l-2 -0.8 2 1.6 c1.1 1 3.7 1.6 6 1.5 l4 -0.1 -4 -0.7z"/>
  <path d="M387 306.1 c0 -2.1 2.6 -3.1 8.3 -3.1 5.1 0 4.4 2.2 -1.3 3.7 -6.1 1.7 -7 1.6 -7 -0.6z"/>
  <path d="M414.5 306 c-4.2 -1.1 -0.1 -1.1 5 -0.1 3.4 0.7 3.5 0.9 1 0.9 -1.6 0 -4.3 -0.4 -6 -0.8z"/>
  <path d="M275 238 c1.2 -2.2 3 -2.6 4.7 -0.9 0.7 0.7 2.2 0.9 4 0.4 4 -1.1 14.7 -1.3 15.4 -0.3 0.3 0.5 3.4 0.5 7 0 l6.4 -0.8 -10.7 -0.8 c-5.9 -0.5 -12.2 -0.5 -14 -0.2 -1.8 0.4 -4.3 0.7 -5.5 0.7 -1.3 -0.1 -3.3 -0.1 -4.5 -0.1 -1.3 -0.1 -4.9 0.3 -8 0.8 -3.1 0.4 -5.5 0.5 -5.2 0.1 0.2 -0.4 2.6 -1 5.3 -1.4 5.9 -0.8 6.9 -2.4 7.8 -13.2 l0.6 -7.6 -4.8 0.6 c-3.6 0.4 -4.4 0.2 -3.1 -0.5 1 -0.6 4.1 -1 7 -1.1 4.6 0 4.8 -0.1 2.1 -0.9 -1.6 -0.5 -4.7 -0.6 -6.7 -0.3 -2.3 0.3 -3.8 0.1 -3.8 -0.5 0 -0.5 0.8 -1 1.8 -1.1 2.5 0 9.5 -0.7 19.2 -1.8 4.7 -0.6 11.9 -1.3 16 -1.7 6.9 -0.5 7.3 -0.5 5.5 1 -1.8 1.4 -0.5 1.5 15.5 1.4 14.3 -0.2 15.3 -0.3 5.5 -0.5 -6.6 -0.2 -12.4 -0.8 -12.9 -1.3 -1.9 -1.9 39.5 -1.8 56.7 0.1 l9.7 1.1 0 3.9 c0 2.9 -0.5 4.1 -1.7 4.5 -1 0.3 -5.6 2.3 -10.3 4.4 -18.7 8.5 -52.2 17 -67.2 17 -4.2 0 -7.9 -0.4 -8.2 -0.8 -0.3 -0.5 -2.9 -0.4 -5.8 0.1 -2.9 0.5 -8.3 1 -12.1 1.2 -6.4 0.4 -6.7 0.3 -5.7 -1.5z m32.3 -27.7 c-1.3 -0.2 -3.3 -0.2 -4.5 0 -1.3 0.2 -0.3 0.4 2.2 0.4 2.5 0 3.5 -0.2 2.3 -0.4z m50 -1 c-1.3 -0.2 -3.5 -0.2 -5 0 -1.6 0.2 -0.5 0.4 2.2 0.4 2.8 0 4 -0.2 2.8 -0.4z"/>
  <path d="M407 146.5 c0 -3.3 0.2 -3.5 3.5 -3.5 3.3 0 3.5 0.2 3.5 3.5 0 3.3 -0.2 3.5 -3.5 3.5 -3.3 0 -3.5 -0.2 -3.5 -3.5z m4.1 0.8 c0.7 -1 0.9 -1.5 0.5 -1.1 -0.5 0.4 -1.5 0.3 -2.2 -0.3 -1.1 -0.9 -1.3 0.2 -0.5 2.9 0.2 0.6 1 0.1 2.2 -1.5z"/>
 </g>
 <g fill="#fc9811">
  <path d="M338.2 494 c-3 -1.9 -3.3 -2.4 -3 -6.3 l0.3 -4.2 7.8 -0.3 c7.3 -0.3 7.7 -0.2 7.7 1.8 0 1.2 -0.4 1.8 -1 1.5 -1.5 -0.9 -5.6 2 -6.3 4.3 -0.3 1.4 0.1 2.2 1.5 2.5 1.1 0.3 1.7 1 1.3 1.6 -1 1.7 -4.7 1.3 -8.3 -0.9z"/>
  <path d="M372.5 494 c-0.4 -0.6 0.5 -1 2.1 -1 2.2 0 2.4 -0.3 1.5 -1.4 -0.7 -0.8 -3.2 -2.3 -5.7 -3.3 -8.2 -3.4 -5 -5.6 7.6 -5.1 l7.5 0.3 0.3 3.2 c0.3 2.8 -0.2 3.5 -3.7 5.7 -4.2 2.7 -8.5 3.4 -9.6 1.6z"/>
  <path d="M327.5 466.5 c-0.5 -0.2 -2.2 -0.6 -3.7 -0.9 -2.5 -0.6 -2.8 -1.1 -2.8 -4.5 0 -3.6 0.4 -4.2 7.3 -9.2 6.9 -5.1 7.6 -5.3 16.7 -6.6 12.8 -1.7 16 -1.6 16 0.2 0 0.9 -1.4 1.7 -3.7 2 -5.3 0.9 -12.3 3.6 -12.3 4.7 0 0.6 -1.3 0.7 -3.1 0.3 -2.8 -0.6 -3 -0.5 -2.4 1.5 0.5 1.7 -0.2 2.9 -3.5 5.8 -4 3.4 -4.1 3.6 -2.1 4.4 1.2 0.4 1.9 1.2 1.6 1.8 -0.6 0.9 -5.7 1.3 -8 0.5z m9.5 -16.2 c0 -0.8 -3.6 1.6 -5.5 3.8 -1.6 1.9 -1.3 1.8 1.8 -0.5 2 -1.6 3.7 -3 3.7 -3.3z"/>
  <path d="M393.5 461.4 c2 -1.5 2 -1.5 -0.5 -3.4 -1.4 -1 -7.1 -4 -12.7 -6.7 -5.6 -2.6 -10.2 -5.3 -10.3 -6 0 -1.8 9.7 -3.4 16.4 -2.7 5.6 0.5 18.6 4.3 22.9 6.6 1.4 0.7 1.7 1.9 1.5 4.6 -0.3 3.3 -0.9 4 -5.3 6.4 -3.4 1.9 -6.5 2.8 -9.5 2.7 -4.2 0 -4.4 -0.1 -2.5 -1.5z"/>
  <path d="M323.5 353.5 c-2.2 -0.8 -4.1 -1.5 -4.2 -1.5 -0.2 0 -0.3 -0.7 -0.3 -1.5 0 -1.1 0.7 -1.4 2.8 -1 2.2 0.5 2 0.2 -1.3 -1.6 -2.2 -1.2 -6.2 -4.2 -8.9 -6.6 -3.9 -3.5 -5.1 -4.1 -6.3 -3.1 -1.2 1 -1.4 0.6 -1.1 -2.8 0.3 -3.4 0.6 -3.9 3.1 -4.2 1.5 -0.2 2.7 -0.9 2.7 -1.6 0 -1.8 12 -7.6 15.6 -7.6 4.5 0 6.2 1.6 2.9 2.7 -2.7 0.9 -2.6 1 4.1 4.5 12.1 6.3 20.6 8.1 38.4 8.2 14.7 0.1 31.9 -0.8 38.5 -1.9 2.5 -0.5 5.9 -1.4 14.3 -4 0.7 -0.3 1.2 0.5 1.2 1.9 0 2 -1.5 2.9 -11.2 6.8 -18.4 7.4 -30.9 10.7 -50.3 13.2 -15.1 2 -34.6 2 -40 0.1z m-6.1 -13.2 c-1.1 -6 -2.2 -8.3 -4.1 -8.3 -4.3 0.1 -6.2 4.2 -2.8 6 1.2 0.7 2.8 2.3 3.4 3.6 0.6 1.3 1.8 2.4 2.6 2.4 1.3 0 1.5 -0.7 0.9 -3.7z"/>
  <path d="M451 313.5 c1.1 -1.3 0.8 -1.5 -1.6 -1.5 -1.5 0 -4.1 -0.4 -5.8 -1 -1.7 -0.5 -4.3 -1.2 -5.8 -1.5 -1.6 -0.3 -2.8 -0.9 -2.8 -1.4 0 -0.4 2.7 -3.5 6 -6.8 3.3 -3.3 6 -6.5 6 -7.1 0 -0.6 -1.7 -1.6 -3.7 -2.1 -10.6 -2.7 -11 -3 -3.3 -2.4 4.1 0.3 8.2 0.6 9 0.6 0.8 0 2 0.7 2.6 1.5 0.6 0.8 1.7 1.2 2.5 0.9 1 -0.4 0.9 -0.6 -0.3 -0.6 -1.9 -0.1 -2.3 -1.8 -0.9 -3.9 0.7 -1.1 0.9 -1.1 1.3 0 0.3 0.7 3.4 1.9 6.9 2.6 10.2 2.1 10.9 2.6 10.9 7.1 0 3.6 -0.5 4.3 -7.7 10.5 -6.2 5.3 -8.5 6.6 -11.2 6.6 -2.9 0 -3.2 -0.2 -2.1 -1.5z"/>
  <path d="M486 282 c0 -3.9 0.1 -4 3.5 -4 3.4 0 3.5 0.1 3.5 4 0 3.9 -0.1 4 -3.5 4 -3.4 0 -3.5 -0.1 -3.5 -4z"/>
  <path d="M255.4 264.8 c2 -2.4 5.9 -6.5 8.7 -9.3 3.3 -3.2 6.3 -7.5 8.5 -12.2 3.3 -7.1 4.8 -8.5 7.1 -6.2 0.7 0.7 2.2 0.9 4 0.4 4.4 -1.2 10.6 -1.3 12.7 -0.3 1.3 0.7 1.6 0.7 1.2 -0.1 -0.4 -0.6 -0.2 -1.1 0.3 -1.1 0.6 0 1.1 0.5 1.1 1.1 0 0.7 1.8 0.8 5.5 0.4 5.1 -0.7 5.5 -0.6 5.5 1.4 0 1.2 -0.6 2.1 -1.6 2.1 -3.4 0 -29.2 9.1 -33.4 11.8 -2.5 1.6 -6.7 5.3 -9.5 8.1 -5.2 5.4 -9.2 8.1 -12 8.1 -1.2 0 -0.7 -1.1 1.9 -4.2z"/>
  <path d="M245.1 265.6 c0.2 -0.2 2.7 -0.6 5.4 -1 3.4 -0.4 4.5 -0.3 3.5 0.4 -1.4 0.9 -9.9 1.5 -8.9 0.6z"/>
  <path d="M383.4 214.5 c1.1 -0.8 1.8 -1.6 1.5 -1.8 -1.7 -1.5 -19.3 -3 -40.2 -3.4 -22.4 -0.5 -25 -0.8 -26 -2.4 -0.8 -1.3 -1.5 -1.5 -2.9 -0.8 -1 0.5 -1.8 0.7 -1.8 0.4 0 -0.3 -1 0.3 -2.2 1.5 -1.2 1.1 -3.5 2 -5.4 2 -1.7 0 -5.6 0.5 -8.5 1 -3 0.6 -10.7 1.2 -17.2 1.4 -10.7 0.3 -11.7 0.2 -11.7 -1.5 0 -2.7 9.8 -7 30 -12.9 4.1 -1.2 8.2 -2.5 9 -2.7 0.8 -0.3 5.1 -1.9 9.5 -3.5 4.4 -1.6 9.4 -3.2 11 -3.5 1.7 -0.3 3.9 -1.2 5 -1.9 1.3 -0.8 8.3 -1.5 20.7 -2 l18.8 -0.7 0.6 3.1 c0.8 4.1 2.9 5.9 4.9 4.2 0.8 -0.7 1.5 -2.2 1.5 -3.3 0 -1.9 0.4 -2 10.8 -1.4 5.9 0.4 13 1.2 15.7 1.9 4.9 1.3 5 1.4 5.3 5.4 0.3 3.9 0 4.4 -5.5 9.1 -9.8 8.4 -17.7 13.3 -21.4 13.3 -3.2 -0.1 -3.3 -0.2 -1.5 -1.5z"/>
  <path d="M406.1 150.6 c-0.7 -0.8 -1.1 -3 -0.9 -4.8 0.3 -3.3 0.4 -3.3 5.3 -3.3 4.5 0 5 0.2 5.3 2.4 0.2 1.2 0.1 3.4 -0.2 4.7 -0.5 2 -1.3 2.4 -4.5 2.4 -2.1 0 -4.4 -0.6 -5 -1.4z m4.8 -3 c0.9 -1.1 0.7 -1.5 -0.8 -1.9 -1.7 -0.4 -2 0.4 -1.2 3.1 0.2 0.5 0.9 0.1 2 -1.2z"/>
 </g>
 <g fill="#f28a28">
  <path d="M333.3 490.7 c-2.3 -1.7 -4.2 -3.5 -4.3 -3.9 0 -0.5 -0.9 -1.7 -2 -2.8 -1.1 -1.1 -2 -2.9 -2 -4 0 -1.6 0.7 -2 3.5 -2 1.9 0 3.5 0.5 3.5 1 0 0.6 1.3 1 2.9 1 1.5 0 4.9 0.3 7.5 0.6 4 0.6 4.6 1 4.6 3.1 0 2.2 -0.3 2.4 -2.9 1.8 -1.7 -0.3 -3.9 -0.1 -5 0.5 -2.4 1.3 -2.8 4.5 -0.6 5.4 1.8 0.7 2 2.6 0.3 2.6 -0.7 0 -3.2 -1.5 -5.5 -3.3z"/>
  <path d="M378 493.1 c0 -0.6 1.4 -1.8 3.1 -2.6 4.5 -2.4 3.1 -4 -3.9 -4.3 -12.5 -0.6 -4.3 -5 9.6 -5.1 2.8 0 5.2 0.2 5.2 0.6 0 0.4 -1 2.1 -2.2 3.8 -3.1 4.6 -11.8 10.2 -11.8 7.6z"/>
  <path d="M315.3 463.3 c-0.7 -0.2 -1.3 -1.8 -1.3 -3.4 0 -1.7 0.4 -2.8 1 -2.4 0.5 0.3 1.6 -0.8 2.4 -2.4 0.9 -1.6 2.5 -3.2 3.6 -3.6 1.1 -0.3 2 -1.1 2 -1.6 0 -0.6 -0.8 -0.6 -2 0.1 -3.3 1.8 -2.2 0.2 1.7 -2.5 3.4 -2.3 4.7 -2.5 13.5 -2.5 8.8 0 9.8 0.2 9.8 1.8 0 1.4 -0.8 1.9 -3.5 2 -4.1 0.2 -6.1 1.2 -13.8 7.2 -4.7 3.8 -5.5 4.7 -4.2 5.6 0.8 0.6 1.5 1.4 1.5 1.8 0 0.7 -8.9 0.7 -10.7 -0.1z"/>
  <path d="M397 461 c0 -0.5 2.2 -2.1 4.9 -3.5 5.9 -3 6.9 -4.2 4.5 -5.9 -1.7 -1.3 -1.6 -1.5 1.2 -2.9 1.7 -0.9 3.6 -2.3 4.3 -3.1 0.8 -0.9 2.9 -1.6 4.7 -1.6 3.1 0 3.4 0.3 3.4 2.9 0 5.2 -13 15.1 -20 15.1 -1.6 0 -3 -0.4 -3 -1z"/>
  <path d="M392 446.5 c-1.9 -0.6 -5.9 -1.1 -8.7 -1 -5.2 0.1 -5.3 0.1 -5.3 -2.7 l0 -2.9 6.3 0.2 c3.4 0.1 8.6 -0.1 11.5 -0.6 l5.2 -0.8 0 3.6 c0 2.9 -0.4 3.7 -2.7 4.5 -1.9 0.6 -3.9 0.5 -6.3 -0.3z"/>
  <path d="M376 429.8 c5.7 -1.6 8 -2.9 4 -2.1 -1.9 0.3 -5.5 0.7 -8 0.8 -2.5 0.1 -5.3 0.6 -6.3 1 -2.3 1 -6.6 -0.2 -6.3 -1.7 0.3 -2.4 1.7 -3.7 3.1 -3.1 1.6 0.5 4.2 -0.9 8.5 -4.6 2 -1.9 2.2 -2.4 1 -3.2 -1.3 -0.8 -1.1 -1.2 1 -2.9 1.4 -1 3.6 -2.3 5 -2.9 5.2 -1.9 20.7 -5.4 25.9 -5.8 5.1 -0.5 5.4 -0.4 4.8 1.6 -0.3 1.3 0.3 3.1 1.5 4.6 1.1 1.5 1.7 2.9 1.4 3.3 -0.4 0.3 -1 0.2 -1.4 -0.4 -1.2 -1.6 -6 -4.4 -7.8 -4.4 -0.9 0 -4.7 1 -8.5 2.1 -7.4 2.3 -8.6 4.2 -2.8 4.7 1.9 0.1 4.7 0.8 6.2 1.4 l2.8 1.1 -2.1 2.2 c-1.4 1.5 -1.8 2.5 -1.1 3 0.6 0.3 1.1 1 1.1 1.4 0 0.9 -13.1 3.9 -20 4.5 -5 0.4 -5.2 0.4 -2 -0.6z"/>
  <path d="M302.3 363.6 c0.5 -1.3 -0.5 -3 -3.8 -6.2 -2.5 -2.5 -4.5 -5 -4.5 -5.7 -0.1 -0.7 -0.7 0.2 -1.5 1.8 l-1.3 3 -0.1 -5 c-0.1 -5.6 1.6 -8.9 7 -13.5 3.1 -2.7 8.9 -4.1 8.9 -2.2 0 0.4 -2.5 3.3 -5.5 6.4 -6.6 6.8 -7 9.5 -2.2 13.8 1.7 1.6 4 3 4.9 3 2.1 0 13.5 -6.6 14.5 -8.4 0.7 -1.2 1.7 -1.2 5.6 -0.4 6.8 1.6 6.4 3.9 -1.3 6.2 -3.3 1 -7.9 3.1 -10.3 4.7 -2.4 1.6 -5.9 3.2 -7.7 3.6 -2.9 0.5 -3.2 0.4 -2.7 -1.1z"/>
  <path d="M467.3 300.2 c2.1 -2.3 2.2 -3.8 0.2 -4.6 -1.2 -0.4 -0.1 -2.3 5 -8.2 3.6 -4.3 6.5 -8.1 6.5 -8.6 0 -0.4 1.6 -0.8 3.5 -0.8 3.3 0 3.5 0.2 3.5 3.4 0 2.6 -1.3 5.2 -5.5 10.8 -7.6 10.1 -7.2 9.8 -11.2 9.8 -3.4 0 -3.5 -0.1 -2 -1.8z"/>
  <path d="M488 298.5 c0 -2.2 0.6 -3.8 1.5 -4.1 0.8 -0.4 1.5 -1.2 1.5 -2 0 -3.1 2.4 -6.4 4.7 -6.4 1.2 0 2.3 0.2 2.3 0.5 0 0.9 -5.9 11.8 -7.4 13.8 -2 2.5 -2.6 2.1 -2.6 -1.8z"/>
  <path d="M223.7 295.8 c-4.1 -8.6 -4.1 -8.7 3.3 -11.2 11.9 -4.1 17.2 -7.3 24.2 -14.9 l6.8 -7.2 0 3.3 c0 2.1 -1.2 5 -3.4 8.2 -3.1 4.5 -4.8 9.1 -7.3 19 -0.7 2.8 -1.5 3.6 -4.3 4.3 -1.9 0.4 -4.8 1.2 -6.5 1.7 -1.6 0.5 -4.7 1.2 -6.7 1.5 -3.6 0.7 -3.7 0.7 -6.1 -4.7z"/>
  <path d="M489.3 280.5 c-0.3 -3.4 -0.2 -3.5 3.2 -3.5 3.3 0 3.5 0.2 3.5 3.5 0 3.3 -0.2 3.5 -3.2 3.5 -3 0 -3.3 -0.3 -3.5 -3.5z"/>
  <path d="M438.2 282.2 c0.2 -0.4 1.4 -3.1 2.8 -5.9 l2.5 -5.2 4.8 0.6 c4.3 0.5 5.1 0.3 7.8 -2.3 l2.9 -2.8 -0.1 4 c0 2.4 -0.3 3.3 -0.7 2.2 -0.7 -1.6 -1 -1.6 -4.7 0.1 -2.2 1 -6.2 3.7 -9 6 -4.6 3.8 -7.1 5.1 -6.3 3.3z"/>
  <path d="M408 195.5 c2 -2.1 2.1 -2.5 0.6 -3.1 -2.5 -1 -1.9 -2.5 2.7 -7.5 2.3 -2.5 4.8 -5.8 5.6 -7.2 0.8 -1.5 2.2 -3.6 3.3 -4.6 1 -1.1 1.8 -2.5 1.8 -3.1 0 -0.5 1.6 -1 3.5 -1 3.3 0 3.5 0.2 3.5 3.5 0 1.9 -0.4 3.5 -0.9 3.5 -0.5 0 -1.1 1 -1.5 2.3 -0.3 1.3 -1.7 3.6 -3.1 5.1 -1.4 1.5 -2.5 2.9 -2.5 3.2 0 0.3 -1.1 2 -2.5 3.8 -1.4 1.8 -2.5 3.8 -2.5 4.4 0 1.7 -3.4 3.2 -7.1 3.2 l-3.2 0 2.3 -2.5z"/>
 </g>
 <g fill="#ff881a">
  <path d="M382.2 486.3 c-0.6 -0.2 -1 -0.9 -0.6 -1.4 0.3 -0.5 -0.4 -0.9 -1.6 -0.9 -1.2 0 -2 -0.5 -1.8 -1.2 0.6 -1.6 6.5 -3.6 11 -3.7 3.1 -0.1 3.5 0.2 3.1 1.9 -0.3 1.1 -2 2.9 -3.8 4 -3.3 2.1 -4.1 2.2 -6.3 1.3z"/>
  <path d="M411.1 453.5 c2.7 -1.4 4.9 -3.3 5.2 -4.6 0.6 -2.1 0.6 -2.1 -1.6 -0.2 -4.6 4.2 -5.4 4.2 -15.4 0.4 l-9.5 -3.5 3.3 -1.2 c3.4 -1.2 3.3 -1.3 -1.3 -0.7 -2.8 0.3 -4.8 0.2 -4.8 -0.4 0 -0.9 10.1 -4.5 16.5 -5.9 2.9 -0.6 2.9 -0.6 1 1 -1.9 1.6 -1.9 1.7 1.5 1 1.9 -0.4 4.2 -1.1 5.1 -1.7 1.3 -0.8 2.6 -0.4 5.8 2.2 3.6 2.9 4 3.6 3.4 6.4 -1 5.3 -6.3 9.8 -11.5 9.7 -1.8 -0.1 -1.3 -0.6 2.3 -2.5z"/>
  <path d="M469.8 298.8 c1.2 -0.6 2.2 -1.4 2.2 -1.9 0 -0.4 1.8 -3.1 4.1 -6.1 l4 -5.3 -5.1 5.7 c-4.4 4.9 -5.4 5.6 -7.3 4.8 -1.2 -0.5 -5.2 -1.6 -8.9 -2.6 -3.8 -0.9 -6.8 -2.1 -6.8 -2.6 0 -0.4 1.4 -3.4 3 -6.5 3.5 -6.5 4.2 -13.7 1.3 -12.6 -1.7 0.7 -1.7 0.6 0 -2 0.9 -1.5 2.4 -3.8 3.3 -5.2 2.6 -4 4.4 -3.2 4.4 1.8 l0 4.4 8.3 2.1 c4.5 1.2 9.4 2.4 11 2.8 2.3 0.5 2.7 1.1 2.7 4.3 0 4.1 -1.1 6 -8.3 14.4 -3.7 4.4 -5.5 5.7 -7.5 5.6 -2.7 0 -2.7 0 -0.4 -1.1z"/>
  <path d="M373.7 194.7 c-1 -0.6 -2.1 -2.6 -2.6 -4.2 l-0.8 -3 -19.1 0.4 c-10.6 0.1 -19.2 0 -19.2 -0.3 0 -0.3 3 -2 6.7 -3.6 15.3 -7 30.2 -16.7 40.1 -26.4 l6.2 -6 0 3.1 c0 3.6 1.3 4.3 7.5 4.3 4.4 0 27.4 4.2 33.3 6.1 2.9 1 3.2 1.4 3.2 5.2 0 4.6 -3.5 10.7 -11.7 20.5 -3.4 3.9 -5.1 5.2 -7.1 5.2 -2.7 -0.1 -2.7 -0.1 -0.5 -1.3 1.2 -0.7 2.1 -1.5 2 -1.8 -0.1 -0.4 0.7 -1.7 1.8 -3 1.6 -2 1.4 -1.9 -1 0.3 -2 1.8 -3.5 2.4 -4.5 1.9 -2 -1.1 -23.1 -4.2 -24.2 -3.5 -0.4 0.3 -0.8 1.2 -0.8 2 0 2 -3.6 5.4 -5.8 5.4 -1 0 -2.6 -0.6 -3.5 -1.3z"/>
  <path d="M404.5 149.7 c-0.4 -1.4 -0.5 -3.8 -0.3 -5.3 0.3 -2.8 0.4 -2.9 6.3 -2.9 l6 0 0 5 0 5 -5.7 0.3 c-5.4 0.3 -5.8 0.1 -6.3 -2.1z m7.8 -2.1 c0.8 -1.9 -1.5 -3.7 -3.2 -2.6 -1.7 1 -0.7 4 1.3 4 0.7 0 1.6 -0.6 1.9 -1.4z"/>
 </g>
 <g fill="#e87542">
  <path d="M327.1 484.7 c-1.1 -1.8 -1.9 -4.7 -1.9 -6.5 0.1 -2.8 0.4 -3.2 2.9 -3.2 4.7 0 5.9 1 5.9 4.6 0 1.9 -0.4 3.4 -1 3.4 -0.5 0 -1 1.1 -1 2.5 0 3.5 -2.4 3.1 -4.9 -0.8z"/>
  <path d="M390 478.9 c0 -1.8 0.2 -1.9 1.5 -0.9 1.5 1.2 1.2 3 -0.6 3 -0.5 0 -0.9 -1 -0.9 -2.1z"/>
  <path d="M302.7 457.2 c-2.2 -2.4 -2.3 -6.6 -0.3 -5.9 0.9 0.4 1.7 -0.1 2.1 -1.2 0.6 -2.1 3.9 -3.3 5.2 -2 0.6 0.6 2.3 0.4 4.3 -0.5 3.1 -1.3 3.2 -1.4 1.1 -2.1 -1.2 -0.4 -4.5 -0.1 -7.2 0.5 -4.6 1.1 -7.1 0.9 -5.6 -0.6 1.1 -1.2 17.8 -2.6 22.2 -1.9 6.3 0.9 6.2 3.8 -0.3 8.3 -5.2 3.4 -6.2 3.8 -6.2 2.2 0 -0.6 1.1 -1.6 2.5 -2.2 4.3 -1.9 2.7 -2.6 -2.2 -1 -6.9 2.2 -9.5 3.3 -6 2.6 3.2 -0.7 3.4 0.2 0.8 3.4 -2.4 2.8 -8.1 3 -10.4 0.4z"/>
  <path d="M395.6 442.2 c-0.3 -0.3 -0.6 -2.5 -0.6 -4.9 0 -3.7 0.4 -4.5 2.6 -5.3 1.4 -0.6 4.2 -1 6.2 -1 3.3 0.1 3.5 0.2 1.7 1.2 -1.9 1.2 -1.8 1.3 1 1.8 3.1 0.5 3 0.8 -2 4.6 -1.9 1.3 -1.7 1.4 1.9 0.8 2.9 -0.5 3.7 -0.4 3.2 0.5 -0.5 0.7 -1.3 1 -1.9 0.8 -0.6 -0.2 -3.5 0.2 -6.3 0.9 -2.9 0.6 -5.5 0.9 -5.8 0.6z"/>
  <path d="M325.5 430 c-9.9 -2.7 -18.8 -6.7 -19.6 -8.8 -0.6 -1.5 -0.5 -2.2 0.4 -2.2 0.7 0 0.3 -0.6 -0.8 -1.2 -1.1 -0.6 -3.5 -2.4 -5.2 -4.1 -1.8 -1.7 -3.3 -2.7 -3.3 -2.2 0 0.4 -0.9 0 -2 -1 -1.1 -1 -2 -2.4 -2 -3.2 0 -1.9 1.9 -0.6 3.1 2.1 0.7 1.6 0.8 1.4 0.3 -1.2 -0.5 -2.7 -0.2 -3.7 1.6 -4.9 1.2 -0.8 1.9 -2.1 1.6 -2.9 -1 -2.7 2.9 -1.4 6.4 2.2 6.9 7.1 20.9 11.7 35.3 11.5 l9.7 -0.2 0 2.6 c0 2.7 -0.8 2.9 -8.5 2.6 -3.2 -0.2 -4.6 0.4 -6.4 2.3 -2.8 2.9 -2.2 6.1 0.8 5.1 1.1 -0.3 2.9 0 4 0.7 1.6 1 2.3 1 3.3 0 1.6 -1.6 2.8 -1.5 2.8 0.2 0 2.8 -14.2 4.6 -21.5 2.6z"/>
  <path d="M371 420 c0 -0.5 0.5 -1 1 -1 0.6 0 1 -0.5 1 -1.1 0 -0.7 -1.2 -0.9 -3.2 -0.6 -1.8 0.3 -6.3 0.9 -10 1.3 -6.7 0.6 -6.8 0.6 -6.8 -1.8 0 -2.4 0.3 -2.5 8.3 -3.1 13.4 -1.1 13.7 -1 13.7 1.7 0 1.4 -0.7 3.2 -1.6 4 -1.8 1.9 -2.4 2 -2.4 0.6z"/>
  <path d="M416.1 407.2 c-1.4 -2.6 -0.7 -4.2 1 -2.5 0.6 0.6 0.9 1.9 0.7 2.9 -0.3 1.7 -0.5 1.7 -1.7 -0.4z"/>
  <path d="M407.2 404.8 c0.2 -2.7 0.8 -3.3 2.8 -3.5 2.2 -0.2 2.3 -0.2 0.5 0.6 -1.8 0.8 -1.8 1 -0.3 1.6 1.5 0.6 1.5 0.8 -0.3 2.6 -2.6 2.6 -3.1 2.4 -2.7 -1.3z"/>
  <path d="M296 380.7 c0 -0.9 -0.6 -1.8 -1.2 -2 -0.9 -0.4 -0.9 -0.8 -0.3 -1.4 0.6 -0.4 2.6 -3.9 4.6 -7.8 2 -3.8 4.1 -7.1 4.8 -7.3 1.3 -0.4 1.6 6.5 0.2 7 -0.5 0.2 -1.8 3 -2.9 6.3 -1.2 3.5 -2.7 6.1 -3.6 6.3 -0.9 0.2 -1.6 -0.3 -1.6 -1.1z"/>
  <path d="M286.5 367.5 c-0.4 -1.1 -1 -2.4 -1.3 -2.9 -0.3 -0.5 0 -0.6 0.6 -0.2 0.7 0.4 1.2 0.1 1.2 -0.8 0 -0.9 -0.7 -1.6 -1.5 -1.6 -1.5 0 -1.5 -1.1 0 -5.7 1.2 -3.7 2.4 -2.6 1.5 1.2 -0.7 2.9 -0.6 3.4 0.5 2.5 0.7 -0.6 1.9 -2.5 2.6 -4.1 1.1 -2.7 1 -3.3 -0.5 -4.1 -0.9 -0.5 -1.4 -1.3 -1.1 -1.9 0.6 -0.9 5.5 -1.3 5.5 -0.4 0 0.3 -1.2 3.4 -2.7 6.8 -1.4 3.4 -2.9 7.8 -3.3 9.7 -0.6 3 -0.8 3.2 -1.5 1.5z"/>
  <path d="M251.6 330.8 c-0.5 -1 -1.7 -1.8 -2.7 -1.8 -1 0 -2.4 -0.9 -3.1 -2 -0.7 -1.1 -1.8 -2 -2.4 -2 -1.2 0 -4.4 -3.2 -4.4 -4.3 0 -0.4 1.4 -0.7 3.1 -0.7 2.9 0 3.1 -0.2 2.5 -2.7 -0.4 -1.6 -0.9 -4.5 -1.3 -6.6 -0.5 -3.6 -0.4 -3.9 1.8 -3.5 1.8 0.2 2.6 1.3 3.7 5.3 0.7 2.8 2 7.1 2.8 9.7 1.6 4.8 1.6 12 0 8.6z"/>
  <path d="M488 268.9 c0 -3.4 3 -13.4 5.2 -17.6 0.8 -1.7 2 -2.3 4.5 -2.3 3.1 0 3.3 0.2 3.3 3.6 0 1.9 -0.5 4.5 -1.1 5.6 -0.9 1.6 -0.8 2.3 0.2 2.9 2.3 1.5 3.3 0.4 4.9 -4.9 1.2 -4.2 1.9 -5.2 3.6 -5.2 l2.1 0 -1.8 6.8 c-3.1 11.7 -3.3 11.9 -8.1 12.6 -2.4 0.3 -6.2 0.8 -8.5 1.2 l-4.3 0.6 0 -3.3z"/>
  <path d="M461.5 256.2 c0 -3.1 -0.4 -6.5 -0.8 -7.6 -0.6 -1.6 -1 -1.6 -2.4 -0.5 -0.9 0.8 -1.9 1.4 -2.2 1.4 -0.3 0 -0.5 0.3 -0.4 0.7 0.3 0.8 -6.5 6.8 -7.7 6.8 -2.5 0 -0.5 -4.7 4.2 -10.1 4.4 -5 5.8 -5.9 8.6 -5.9 3.3 0 3.5 0.3 4.7 5.4 0.6 2.6 0.7 2.7 2.4 1.2 1 -0.9 3.2 -1.6 4.9 -1.6 2.9 0 3.2 0.3 3.2 3.3 0 2.6 -1 4.3 -4.8 8 -3.1 3 -5.6 4.7 -7.2 4.7 -2.4 0 -2.5 -0.3 -2.5 -5.8z"/>
  <path d="M448.4 164.5 c-0.5 -2 -1.3 -2.5 -3.6 -2.5 -1.6 0 -3.6 -0.6 -4.4 -1.2 -0.8 -0.7 -3.4 -2.9 -5.8 -4.8 -3.8 -3 -4.5 -4 -4.5 -7.2 -0.1 -4.3 0.1 -4.5 2.3 -2.2 1.5 1.4 1.6 0.6 1.7 -9.3 0.1 -5.9 0.4 -9.7 0.6 -8.4 0.6 2.9 4 8.5 7.7 12.4 1.4 1.5 2.6 3 2.6 3.3 0 0.9 5.5 5.3 6.7 5.4 0.7 0 1.7 0.8 2.2 1.8 0.9 1.4 1.1 1.1 1.1 -1.8 0.1 -3.3 0.1 -3.4 1.5 -1.6 1.8 2.3 1.9 6.6 0.4 13.6 -1 4.8 -1.2 5 -4.5 5 -2.8 0 -3.5 -0.4 -4 -2.5z"/>
  <path d="M424.6 101.8 c-1.5 -2.3 -1.6 -2.3 -3.1 -0.4 -1.4 1.9 -1.5 1.8 -1.5 -2 0.1 -3.1 0.3 -3.6 1.1 -2.1 0.5 0.9 1.6 1.7 2.3 1.7 0.7 0 1.8 1.1 2.4 2.5 1.4 3.1 0.9 3.2 -1.2 0.3z"/>
  <path d="M404 83 c0 -2.3 2.6 -2.6 5.3 -0.6 2.5 2 2.1 2.6 -1.8 2.6 -2.8 0 -3.5 -0.4 -3.5 -2z"/>
 </g>
 <g fill="#ff7827">
  <path d="M390 482.9 c0 -0.7 -1.1 -1 -3 -0.7 -4.1 0.6 -4 -1.8 0.3 -3.6 3.7 -1.5 5.8 -0.5 5 2.5 -0.6 2.2 -2.3 3.6 -2.3 1.8z"/>
  <path d="M313 459.6 c0 -0.8 -0.7 -1.6 -1.5 -2 -2 -0.7 -1.9 -3.2 0.1 -4 2.7 -1 3.6 -0.7 2.9 1.3 -1 3.2 1.3 3.4 2.9 0.2 0.9 -1.6 2.4 -3.2 3.5 -3.6 1.1 -0.3 2.2 -1.2 2.5 -2 0.6 -1.7 2.6 -2 2.6 -0.6 0 0.6 -2.1 3 -4.7 5.5 -4 3.8 -4.5 4.8 -3.3 5.6 1.2 0.7 0.7 1 -1.7 1 -2.2 0 -3.3 -0.5 -3.3 -1.4z"/>
  <path d="M416.7 446.3 c0.7 -4.6 0.8 -4.7 2.8 -3.9 2.6 1 1.6 7 -1.2 7.4 -2 0.3 -2.1 0 -1.6 -3.5z"/>
  <path d="M409 441.7 c-1.6 -0.9 -3.6 -1.1 -5.5 -0.6 -2.6 0.8 -4.5 0.5 -3.4 -0.5 1.2 -1 9.9 -1.6 9.9 -0.7 0 0.6 0.9 1.1 2 1.1 1.1 0 2 0.5 2 1 0 1.4 -2 1.2 -5 -0.3z"/>
  <path d="M362 426.8 c0.1 -1.5 7 -5 7 -3.6 0 0.5 -0.8 1.2 -1.7 1.5 -1 0.4 -2.2 1.2 -2.6 2 -1 1.7 -2.7 1.7 -2.7 0.1z"/>
  <path d="M347.5 418 c0.8 -1.2 6.5 -1.3 6.5 -0.2 0 0.5 -1.6 0.9 -3.5 1 -2.1 0.1 -3.3 -0.3 -3 -0.8z"/>
  <path d="M483 280.6 c0 -0.8 -1.2 -1.7 -2.7 -2 -1.6 -0.4 -6.5 -1.6 -11 -2.8 l-8.3 -2.1 0 -4.4 c0 -2.9 -0.4 -4.2 -1.1 -3.7 -0.6 0.3 -0.4 -0.8 0.5 -2.4 0.9 -1.7 1.6 -3.9 1.6 -4.9 0 -1.3 0.3 -1.4 0.8 -0.6 0.6 0.9 2.3 -0.3 5.8 -3.9 2.7 -2.9 3.8 -4.3 2.4 -3.2 -2.4 2 -7 3.8 -7 2.7 0 -0.5 4.3 -5.8 8.9 -11 1.4 -1.6 3.2 -2.3 5.7 -2.3 3.8 0 11.5 1.9 12.4 3.1 0.3 0.3 2.2 1.2 4.3 1.8 3.6 1.2 3.7 1.4 3.7 6.3 0 5.2 -1.8 12.8 -3 12.8 -1.8 0 -1.7 -1.6 0 -6.4 2.4 -6.1 2.5 -6.7 0.6 -4.1 -0.8 1.1 -2.1 4.3 -2.9 7 -0.8 2.8 -1.8 5.8 -2.3 6.9 -0.6 1.6 -0.4 1.7 1.4 0.7 1.1 -0.6 2.3 -1.1 2.7 -1.1 0.8 0 -3.3 8 -6.2 11.8 -2.4 3.2 -6.3 4.4 -6.3 1.8z"/>
  <path d="M374.5 186 c0.3 -0.5 1.7 -1 3 -1 1.3 0 2.7 0.5 3 1 0.4 0.6 -0.8 1 -3 1 -2.2 0 -3.4 -0.4 -3 -1z"/>
  <path d="M426 171.1 c0 -1.3 -1.1 -2.3 -3.2 -3 -5.8 -1.8 -28.8 -6.1 -33.6 -6.2 -5.8 -0.1 -9.4 -1.1 -9.9 -2.6 -0.3 -0.7 2.7 -4.5 6.6 -8.5 10.2 -10.7 14.5 -16.6 16.6 -22.5 1.1 -2.9 2.3 -5.3 2.8 -5.3 0.5 0 0.4 -0.7 -0.3 -1.5 -1.7 -2.1 -0.9 -2.6 4.4 -3.2 6.6 -0.8 9.6 0.2 9.6 3.1 0 3.8 10.6 23.5 13.1 24.4 0.5 0.2 0.9 1.2 0.9 2.2 0 1 0.7 2 1.5 2.4 1.9 0.7 1.9 3.7 0 10.1 -2.4 7.9 -4.8 12.5 -6.7 12.5 -1.1 0 -1.8 -0.8 -1.8 -1.9z m-12.5 -24.6 c0 -1.3 -0.8 -2.1 -2.4 -2.3 -2.9 -0.4 -4.4 0.9 -3.5 3.2 1 2.5 5.9 1.8 5.9 -0.9z"/>
 </g>
 <g fill="#fb6635">
  <path d="M497 255.1 c1.3 -2.5 1.3 -4.1 0 -2.1 -0.8 1.2 -1 0.9 -1 -1.2 0 -2.3 -0.6 -2.9 -4 -3.9 -2.2 -0.7 -4 -1.5 -4 -1.9 0 -0.4 -1.2 -1 -2.7 -1.4 -1.6 -0.3 -3.8 -0.8 -5 -1.2 -1.8 -0.5 -3.2 0.4 -7 4.4 -2.8 3 -5.9 5.2 -7.3 5.4 -2.4 0.3 -3.2 -1.1 -4.9 -9.1 -0.1 -0.2 -0.8 0.2 -1.6 0.9 -1.3 1.1 -1.5 0.8 -1.5 -1.6 0 -1.7 1.7 -5.3 4.1 -8.9 5.5 -8.2 9.6 -16.3 13.9 -27.5 2.4 -6.3 4.2 -9.6 5.3 -9.8 1 -0.2 1.7 0.3 1.7 1.2 0 0.9 0.4 1.6 0.9 1.6 0.5 0 1.5 1.7 2.2 3.8 2.3 7.2 6.9 15 11.8 20.3 4.8 5.1 5.2 5.3 6.5 3.5 1.4 -1.8 1.5 -1.7 1.4 0.5 -0.1 3.5 -1.7 13.7 -2.9 18.9 -1.9 7.7 -3 10 -5.1 10 -1.5 0 -1.7 -0.3 -0.8 -1.9z m-8.1 -21.3 c1 -2.7 0.5 -4.4 -1.5 -5.2 -2.1 -0.8 -4.2 0.3 -4.9 2.5 -1.4 4.4 4.8 6.9 6.4 2.7z"/>
  <path d="M416 122 c-1.4 -0.4 -4.4 -0.5 -6.6 -0.3 -2.3 0.3 -4.4 0.1 -4.7 -0.4 -0.3 -0.5 -0.8 -5.8 -1.1 -11.7 -0.5 -10.5 -0.7 -11.2 -5.2 -20.2 -3.2 -6.2 -4.4 -9.8 -3.8 -10.4 1.3 -1.3 18 4.1 25.2 8.2 3.9 2.2 5.2 3.5 5.2 5.3 0 1.3 0.3 3.2 0.7 4.2 0.6 1.7 0.6 1.7 -1.4 0 -2.3 -2 -4.3 -0.6 -2.4 1.7 0.8 1 0.5 2 -1.5 4 -2.6 2.6 -2.7 2.8 -2 11.6 0.4 5 0.5 9 0.4 8.9 -0.2 -0.1 -1.4 -0.4 -2.8 -0.9z"/>
 </g>
 <g fill="#c007ce">
  <path d="M357 388.2 c0 -1.2 3.5 -3 7.4 -3.7 3.2 -0.6 3.6 -0.5 3.6 1.3 0 1.4 -0.9 2.1 -3.1 2.6 -4.3 0.8 -7.9 0.8 -7.9 -0.2z"/>
  <path d="M378 383.6 c0 -0.7 1 -1.6 2.3 -2 4.1 -1.1 5.7 -0.7 5.7 1.4 0 1.7 -0.7 2 -4 2 -2.7 0 -4 -0.4 -4 -1.4z"/>
  <path d="M220 212.3 c0 -3.4 1.2 -6.3 2.6 -6.3 1 0 1.4 1.3 1.4 4 0 3.3 -0.3 4 -2 4 -1.2 0 -2 -0.7 -2 -1.7z"/>
  <path d="M206.8 203.3 c-3.3 -0.8 -2 -3.3 1.7 -3.3 2.8 0 3.5 0.4 3.5 2 0 2 -1.4 2.3 -5.2 1.3z"/>
  <path d="M256 145.5 l0 -4.5 4.5 0 4.5 0 0 4.5 0 4.5 -4.5 0 -4.5 0 0 -4.5z"/>
  <path d="M236.9 138.2 c0.5 -0.9 1.9 -2.6 3 -3.6 2.1 -1.9 2.1 -1.9 2.1 1.7 0 3.4 -0.2 3.7 -3 3.7 -2.6 0 -2.9 -0.3 -2.1 -1.8z"/>
  <path d="M258.8 134.3 c-0.9 -1 -2.6 -3.7 -3.8 -6 -1.2 -2.4 -2.7 -4.3 -3.3 -4.3 -0.6 0 0.9 -1.8 3.4 -4 2.4 -2.2 4.9 -4 5.6 -4 0.7 0 3.1 2.5 5.4 5.5 3.9 5.1 7 6.8 8.4 4.6 0.3 -0.5 4.4 -3.3 9 -6.2 4.7 -2.8 8.5 -5.9 8.5 -6.7 0 -0.8 -1.1 -3.5 -2.5 -5.9 -1.9 -3.2 -2.3 -4.4 -1.3 -4.8 2 -0.7 26.8 -3.5 31.5 -3.5 3.4 0 4.3 0.4 4.8 2.1 0.6 1.9 1.2 2.1 5.4 1.5 12.3 -1.8 16.6 -1.8 21.1 -0.1 2.5 0.9 6.5 2.3 9 3.2 2.5 0.9 5.7 2.4 7.2 3.4 1.4 1.1 3.5 1.9 4.7 1.9 1.1 0 3.9 1.9 6.3 4.3 2.4 2.3 5.2 4.7 6.2 5.2 1.7 1 1.7 1.3 0.2 4.9 -1.4 3.3 -1.9 3.7 -3.8 3.1 -7.6 -2.4 -18.1 -3.6 -39.8 -4.6 l-24.5 -1.2 -9.5 2.5 c-5.2 1.4 -12.6 3.8 -16.5 5.3 -14.8 5.7 -28.6 7.3 -31.7 3.8z"/>
 </g>
 <g fill="#c910bc">
  <path d="M327.3 478 c-3.9 -1.6 -2.4 -7.8 1.6 -6.5 1.6 0.5 2.1 1.4 2.1 4.1 0 3.6 -0.2 3.8 -3.7 2.4z"/>
  <path d="M316.5 441.4 c-8.6 -1.7 -15.5 -4.2 -15.5 -5.7 0 -0.6 -0.7 -1.8 -1.6 -2.8 -1.9 -2.2 -1.2 -4.8 2.1 -7.2 2.5 -1.8 2.5 -1.8 3.7 0.8 1.5 3.4 10.1 7.5 18.7 8.8 l6.9 1.1 0 3.3 c0 3.1 -0.2 3.3 -3.6 3.2 -2.1 0 -6.8 -0.7 -10.7 -1.5z"/>
  <path d="M365 397.5 c0 -3.3 0.2 -3.5 3.5 -3.5 3.3 0 3.5 0.2 3.5 3.5 0 3.3 -0.2 3.5 -3.5 3.5 -3.3 0 -3.5 -0.2 -3.5 -3.5z"/>
  <path d="M374 396.5 c0 -3.3 0.2 -3.5 3.5 -3.5 3.3 0 3.5 0.2 3.5 3.5 0 3.3 -0.2 3.5 -3.5 3.5 -3.3 0 -3.5 -0.2 -3.5 -3.5z"/>
  <path d="M383 394.5 c0 -3.3 0.2 -3.5 3.5 -3.5 3.3 0 3.5 0.2 3.5 3.5 0 3.3 -0.2 3.5 -3.5 3.5 -3.3 0 -3.5 -0.2 -3.5 -3.5z"/>
  <path d="M406 386.6 c0 -4 0.7 -4.3 5.1 -2 4.2 2.1 3.5 4.8 -1.4 5.2 -3.6 0.3 -3.7 0.3 -3.7 -3.2z"/>
  <path d="M418 274.1 c0 -3.1 1.4 -4.1 6.1 -4.1 4.3 0 3.6 2.3 -1.6 4.8 l-4.5 2.2 0 -2.9z"/>
  <path d="M480 185.5 c0 -3.2 0.2 -3.5 3 -3.5 2.3 0 3 0.5 3 1.9 0 3.5 -1.2 5.1 -3.6 5.1 -2.1 0 -2.4 -0.5 -2.4 -3.5z"/>
  <path d="M481 155.5 c0 -3.1 0.3 -3.5 2.5 -3.5 2.2 0 2.5 0.4 2.5 3.5 0 3.1 -0.3 3.5 -2.5 3.5 -2.2 0 -2.5 -0.4 -2.5 -3.5z"/>
  <path d="M479 145.5 c0 -1.2 -1.5 -1.5 -7.5 -1.5 -5.9 0 -7.5 -0.3 -7.5 -1.5 0 -1.8 5.8 -2.9 11.1 -2.1 7.2 1.2 12.9 6.6 6.9 6.6 -2 0 -3 -0.5 -3 -1.5z"/>
  <path d="M377.7 126.1 c-4.2 -2.7 -4.3 -3.2 -0.6 -2.5 4.2 0.8 6.9 2.2 6.9 3.4 0 1.5 -3.2 1 -6.3 -0.9z"/>
  <path d="M380.5 122.9 c-1.6 -1 -4.4 -3.4 -6.2 -5.4 -1.7 -1.9 -4.2 -3.5 -5.3 -3.5 -1.2 0 -3.4 -0.8 -4.8 -1.9 -1.5 -1 -4.7 -2.5 -7.2 -3.4 -10.6 -3.7 -12.4 -4.5 -12.8 -5.5 -0.2 -0.6 -1.4 -0.9 -2.7 -0.6 -1.3 0.2 -2.7 0 -3 -0.6 -0.4 -0.6 1.8 -1 5.9 -1 l6.5 0 0.3 -8.2 0.3 -8.3 4.5 -0.3 c4.1 -0.3 18.1 1.2 22.1 2.4 1.3 0.4 1.6 1.9 1.5 8.6 l-0.1 8.1 3.4 1.2 c4.3 1.4 5.2 4.3 4.2 12.1 -1 7.3 -2.6 8.8 -6.6 6.3z"/>
  <path d="M287.6 104.1 c-0.9 -1.6 -1.6 -3.4 -1.6 -3.9 0 -1.7 28.8 -12.2 33.7 -12.2 2.3 0 2.7 0.9 3.8 7.5 1 6.3 1.5 7.5 3.3 7.6 1.1 0 1.3 0.2 0.4 0.6 -0.7 0.3 -1.9 -0.1 -2.7 -0.7 -1.4 -1.2 -8.4 -1 -17.7 0.5 -1.3 0.2 -5.2 0.6 -8.8 1 -3.6 0.4 -7 1.1 -7.7 1.6 -0.8 0.8 -1.6 0.2 -2.7 -2z"/>
 </g>
 <g fill="#d37640">
  <path d="M330.2 488 c-3.1 -2.8 -4.3 -4.8 -2.2 -3.5 0.7 0.4 0.9 -0.3 0.6 -1.9 -0.3 -1.9 0 -2.6 1.2 -2.6 1.3 0 1.3 -0.2 -0.4 -1.6 -1.8 -1.4 -1.4 -1.5 4.1 -1 12.8 1.2 13.5 1.4 13.5 5.2 0 2.4 -0.5 3.4 -1.5 3.4 -0.8 0 -1.5 -0.4 -1.5 -0.9 0 -0.5 -2.3 -1.1 -5.1 -1.5 -6.2 -0.8 -7.9 0.2 -5.9 3.9 2 3.6 0.8 3.9 -2.8 0.5z"/>
  <path d="M383 481.7 c0 -1.5 7.5 -4.9 8.4 -3.9 0.6 0.5 -6.2 5.1 -7.6 5.2 -0.5 0 -0.8 -0.6 -0.8 -1.3z"/>
  <path d="M313.8 463.6 c-4.3 -1.5 -13.8 -7.4 -13.8 -8.6 0 -1.5 5.1 -1.8 5.7 -0.4 0.6 1.5 3.3 1.9 3.3 0.5 0 -0.5 0.9 -1.1 2.1 -1.4 1.5 -0.4 2.3 0.1 3 2 0.5 1.4 1.5 2.3 2.2 2 0.8 -0.3 1.3 0.8 1.5 3.4 0.1 2.2 0.1 3.9 0 3.9 -0.2 -0.1 -2 -0.7 -4 -1.4z"/>
  <path d="M324.3 448.7 c1.6 -1.4 1.5 -1.5 -1.8 -2.1 -5.3 -1 -4.6 -3.6 0.9 -3.6 2.5 0 4.8 -0.5 5.2 -1.1 0.5 -0.8 3.9 -1 11.3 -0.6 8.1 0.4 11.2 0.2 13.3 -0.9 2.8 -1.4 2.8 -1.4 2.8 1.9 l0 3.4 -6.7 0.7 c-9.9 1 -20.4 2.3 -23.8 3.1 -2.7 0.6 -2.8 0.5 -1.2 -0.8z"/>
  <path d="M359 441.5 l0 -3.5 6 0 6 0 0 3.5 0 3.5 -6 0 -6 0 0 -3.5z"/>
  <path d="M373 440.7 l0 -3.4 5.8 -0.7 c3.1 -0.4 8.2 -1.3 11.2 -2.1 3 -0.8 6.7 -1.5 8.3 -1.5 2.9 0 3.7 1.4 1.2 2.4 -2.2 0.8 -1.8 3.7 0.5 4.3 2.7 0.7 2.5 2.3 -0.2 2.4 -3.8 0.2 -8.8 0.6 -18 1.3 l-8.8 0.8 0 -3.5z"/>
  <path d="M335 430 c0 -1.7 0.7 -2 4 -2 4.6 0 5.1 1 1.3 2.8 -3.8 1.7 -5.3 1.5 -5.3 -0.8z"/>
  <path d="M383.2 428.3 c0.2 -1.2 2.2 -2.3 6.3 -3.4 6.6 -1.8 7.5 -1.7 7.5 1 0 1.4 -1.2 2.2 -4.4 3 -6.7 1.7 -9.8 1.5 -9.4 -0.6z"/>
  <path d="M346 418.6 c0 -1.1 -0.9 -1.6 -3 -1.6 -4.7 0 -3.7 -2.5 3.9 -10.1 6.7 -6.7 7 -6.9 12 -6.9 2.8 0 7.4 0.9 10.3 2 2.9 1.1 7.2 2 9.6 2 3.7 0 4.5 -0.4 6 -3 2.1 -3.8 7.3 -5.4 15.7 -4.8 7.1 0.5 14.3 4.1 10.9 5.5 -1 0.4 -2 1.9 -2.2 3.3 -0.1 1.4 -0.3 3 -0.4 3.7 -0.1 0.8 -0.8 0.8 -2.2 0.2 -1.5 -0.7 -4 -0.5 -8.1 0.6 -3.3 0.9 -8.6 2.3 -11.8 3 -3.1 0.7 -7.4 2.4 -9.5 3.8 -3.1 2 -4 2.2 -4.8 1.1 -0.7 -1 -2.7 -1.2 -8.9 -0.7 -5.7 0.5 -7.3 0.9 -5.5 1.4 1.7 0.5 0.5 0.7 -3.6 0.7 -3.4 0 -6.7 0.3 -7.3 0.6 -0.6 0.4 -1.1 0 -1.1 -0.8z m50.5 -19.6 c1.3 -0.5 1.4 -0.9 0.5 -0.9 -0.8 0 -2.4 0.4 -3.5 0.9 -1.3 0.5 -1.4 0.9 -0.5 0.9 0.8 0 2.4 -0.4 3.5 -0.9z"/>
  <path d="M309 388.1 c0 -3.1 -2.1 -4.4 -9.3 -5.6 -3.9 -0.6 -3.9 -0.7 -3.2 -4.3 0.3 -2 2 -6.7 3.7 -10.3 2.7 -5.8 3.7 -6.9 6.8 -7.9 3.4 -1.1 4.2 -1 8.1 1.3 2.4 1.3 6.8 3 9.7 3.7 4.4 1 5.2 1.5 5.2 3.5 0 1.8 -0.7 2.5 -3.2 3 -5.8 1.2 -10.6 4.6 -12.9 9 -1.9 3.5 -2 4.6 -1.1 7.3 1 3 1 3.2 -1.4 3.2 -2 0 -2.4 -0.5 -2.4 -2.9z"/>
  <path d="M284.4 359.8 c0.5 -2.9 2.4 -7.8 3 -7.8 0.5 0 -0.2 5.7 -1 7.9 -0.4 1.2 -0.2 1.2 1.3 0 1.6 -1.3 1.7 -1.2 0.4 0.4 -2 2.5 -4.2 2.2 -3.7 -0.5z"/>
  <path d="M289.8 351.9 c-1 -0.5 -1.8 -2.1 -1.8 -3.4 0 -1.6 -0.6 -2.5 -1.5 -2.5 -3.5 0 -0.9 -5.8 7.2 -15.7 2.6 -3.3 4.1 -4.3 6.4 -4.3 2.6 0 2.9 -0.3 2.9 -3.1 0 -2.2 0.5 -3.2 2 -3.6 1.1 -0.3 2 -0.9 2 -1.4 0 -0.5 0.7 -0.9 1.5 -0.9 0.8 0 1.5 -0.4 1.5 -1 0 -0.5 1.6 -1 3.5 -1 3.3 0 3.5 0.2 3.5 3.5 0 2.4 -0.5 3.5 -1.5 3.5 -0.8 0 -1.5 0.5 -1.5 1 0 0.6 -0.6 1 -1.4 1 -0.8 0 -1.6 0.7 -2 1.5 -0.3 0.9 -1.8 1.5 -3.6 1.5 -2.6 0 -3 0.4 -3 2.6 0 1.6 -1.6 4.6 -4.2 7.6 -2.5 3 -4.3 6.2 -4.4 8 -0.2 2.3 -2.8 7.9 -3.7 7.8 -0.1 0 -1 -0.5 -1.9 -1.1z"/>
  <path d="M246.7 319.1 c-0.3 -2.2 -1.2 -5.4 -2.1 -7.1 -0.8 -1.8 -1.8 -4.7 -2.2 -6.6 -0.3 -1.9 -1 -3.4 -1.5 -3.4 -0.5 0 -0.9 -1.8 -0.9 -4 0 -2.9 0.4 -4 1.5 -4 0.9 0 1.9 -1 2.4 -2.3 0.7 -1.9 2.1 -2.5 8 -3.5 3.9 -0.6 8.3 -1.2 9.7 -1.2 2.6 0 2.6 -0.1 1 -2.5 -0.9 -1.3 -1.6 -4.2 -1.6 -6.4 0 -5.6 3.7 -8.5 9.9 -7.8 5.9 0.7 7.3 2.7 6.9 10 -0.3 5.7 -0.3 5.7 2.5 5.7 3 0 5.8 -1.4 18.2 -8.9 4.4 -2.7 11.3 -6.6 15.3 -8.5 4 -2.1 7.2 -4.3 7.2 -5.1 0 -1.1 1.3 -1.5 5.6 -1.5 3.3 0 8.6 -1 13 -2.5 4.1 -1.4 8.6 -2.5 9.9 -2.5 2.2 0 2.5 0.4 2.5 3.5 l0 3.4 -9.2 3 c-31.9 10.2 -62.6 29.6 -73.5 46.3 -1.5 2.3 -3.1 4.7 -3.4 5.1 -0.6 0.9 -15 4.7 -17.5 4.7 -0.6 0 -1.4 -1.8 -1.7 -3.9z"/>
  <path d="M358 298.7 c0 -3.6 1.5 -4.7 6.7 -4.7 1.2 0 2.3 -0.3 2.5 -0.7 0.5 -1.2 17 -6.3 20.1 -6.3 1.7 0 2.7 -0.5 2.7 -1.5 0 -1 1.1 -1.5 3.5 -1.5 2.3 0 3.5 0.5 3.5 1.4 0 1.6 0.1 1.5 -13 6.2 -5.2 1.9 -10.6 4 -11.9 4.7 l-2.4 1.2 2.9 0.6 c2.8 0.6 2.7 0.7 -0.8 0.8 -2 0 -3.8 0.6 -4 1.2 -0.2 0.6 -2.5 1.3 -5.1 1.6 l-4.7 0.6 0 -3.6z"/>
  <path d="M497 279.2 c0 -2.2 0.5 -4.2 1.2 -4.4 2.6 -0.9 -0.2 -3.8 -3.7 -3.8 -1.9 0 -3.5 -0.4 -3.5 -1 0 -1.8 6 -4.1 9.3 -3.6 2.7 0.5 2.5 0.3 -1.3 -1.3 l-4.5 -2 3.5 0 c6.5 -0.1 8 0.8 7.5 4.3 -0.6 5 -5.2 15.1 -6.9 15.4 -1.3 0.3 -1.6 -0.5 -1.6 -3.6z"/>
  <path d="M353 257.6 c0 -3.6 1.5 -4.6 7.3 -4.6 1.6 0 2.7 -0.5 2.7 -1.4 0 -1.7 2.2 -2.6 6.1 -2.6 2.6 0 2.9 0.3 2.9 3.4 0 3.7 -1.2 4.6 -6.1 4.6 -1.8 0 -2.9 0.5 -2.9 1.4 0 1.5 -3 2.6 -7.2 2.6 -2.5 0 -2.8 -0.4 -2.8 -3.4z"/>
  <path d="M428 210.5 c0 -2.8 0.4 -3.5 2 -3.5 1.5 0 2 -0.7 2 -2.5 0 -1.4 0.5 -2.5 1 -2.5 0.6 0 1 -0.6 1 -1.4 0 -0.8 0.3 -1.6 0.8 -1.8 0.8 -0.3 8.6 -15.8 10.2 -20.2 1.2 -3.3 0.2 -4.6 -3.7 -4.6 -1.6 0 -2.3 -0.6 -2.3 -2 0 -1.5 -0.9 -2.1 -4 -2.6 -3.7 -0.6 -4 -0.9 -4 -4 0 -2.6 0.4 -3.4 1.8 -3.4 2.8 0 3.3 -1 1.7 -3.4 -1.5 -2 -2.1 -8.6 -0.9 -8.6 0.4 0 2.5 1.6 4.8 3.6 6.6 5.6 6.4 5.6 8.4 4.5 2.3 -1.2 4.1 -0.1 4.7 2.9 0.7 3.6 1.3 3.5 2 -0.3 0.5 -2.5 1.1 -3.4 2.1 -3 2.1 0.8 1.7 5.8 -1.1 16.9 -2.5 9.8 -10.7 28.4 -12.5 28.4 -0.6 0 -1 0.7 -1 1.5 0 0.8 -0.4 1.5 -1 1.5 -0.5 0 -1 0.7 -1 1.5 0 0.8 -0.9 1.5 -2 1.5 -1.5 0 -2 0.7 -2 2.5 0 2.2 -0.4 2.5 -3.5 2.5 -3.3 0 -3.5 -0.2 -3.5 -3.5z"/>
 </g>
 <g fill="#cd6b4e">
  <path d="M343.8 485 c-0.1 -0.5 -3.4 -1.2 -7.2 -1.5 -3.9 -0.3 -7.3 -1.1 -7.7 -1.7 -1.2 -1.9 -0.3 -2.1 3.2 -0.9 1.8 0.6 3.9 1.1 4.8 1 0.9 0 -1.3 -1 -4.9 -2.3 -6.9 -2.3 -7.7 -3.5 -5.7 -8.3 0.7 -1.6 0.6 -2.7 -0.3 -3.8 -1.1 -1.3 -0.9 -1.5 1.2 -1.5 1.4 0 4.9 0.4 7.9 1 3 0.5 7.5 1.2 10.2 1.5 4.6 0.6 4.7 0.7 4.7 4.2 l0 3.6 -7.2 -0.7 c-8.6 -0.7 -7.5 0.6 1.9 2.5 6.2 1.3 6.3 1.3 6.3 4.6 0 3.1 -0.2 3.3 -3.4 3.3 -1.9 0 -3.6 -0.4 -3.8 -1z"/>
  <path d="M303 457.3 c-3.9 -1.4 -10 -9.6 -10 -13.3 0 -2.6 1.6 -2.6 2.3 0 0.3 1.2 1.4 2 2.6 2 1.4 0 2.1 0.6 2.1 2 0 1 0.9 2.4 1.9 3 1.1 0.5 2.9 2.3 4.1 4 2 2.8 2 3 0.3 2.9 -1 0 -2.5 -0.3 -3.3 -0.6z"/>
  <path d="M328 447.4 c1.4 -0.3 4.6 -1.2 7.3 -2 2.6 -0.9 5.3 -1.4 6 -1.1 2.1 0.8 -4.6 3 -10.3 3.3 -3 0.1 -4.4 0.1 -3 -0.2z"/>
  <path d="M302 445.3 c0 -1 0.5 -2.4 1.1 -3 0.9 -0.9 0.5 -1.4 -1.5 -1.9 -2 -0.5 -2.4 -1 -1.7 -1.7 1.6 -1.6 1.3 -4.5 -0.5 -5.5 -1.2 -0.7 -1.5 -1.7 -1 -3.7 0.5 -2.1 1 -2.4 2 -1.6 1.1 0.9 1.4 0.8 1.2 -0.5 -0.2 -2.8 2.3 -2.8 3.4 0 1.5 3.9 7.7 6.4 23.3 9.1 3.2 0.5 3.6 0.9 2.7 2 -1.4 1.7 -0.5 2.2 5 2.8 l3.5 0.3 -3 1.2 c-1.6 0.7 -3.8 1.7 -4.9 2.3 -1.1 0.6 -6 1 -12 0.8 -5.5 -0.2 -11.8 0.1 -13.8 0.5 -3.4 0.7 -3.8 0.6 -3.8 -1.1z m5 -11.4 c-1.9 -1.2 -3.8 -2.7 -4.2 -3.3 -0.6 -0.8 -0.8 -0.7 -0.8 0.2 0 1.2 5.7 5.2 7.5 5.2 0.6 0 -0.6 -1 -2.5 -2.1z"/>
  <path d="M348.2 443.9 c0.3 -0.8 1.5 -1.3 2.9 -1.1 1.6 0.2 2 0 1.1 -0.6 -2.4 -1.6 5.9 -4 19.8 -5.6 15.3 -1.8 17.7 -2.4 27.5 -7.2 7.2 -3.6 9.9 -4.1 11 -2.4 1.6 2.6 -10.3 9 -21 11.4 l-7 1.5 8 -0.5 c5.7 -0.4 7.5 -0.2 6.4 0.5 -2.7 1.8 -19.6 4.1 -34.8 4.8 -12.1 0.5 -14.3 0.4 -13.9 -0.8z"/>
  <path d="M330 431.9 c-7.9 -1.2 -23.2 -5.8 -25 -7.5 -1.3 -1.2 -1.3 -1.6 -0.1 -2.3 0.7 -0.5 1 -1.4 0.7 -2 -1.1 -1.7 0.9 -1.3 6.8 1.4 3 1.4 6.2 2.5 7.1 2.5 0.9 0 2.8 0.6 4.3 1.4 2.2 1.1 14.4 3.6 17.9 3.6 0.4 0 -0.5 0.9 -2.2 2 -1.6 1.1 -3.2 1.9 -3.5 1.9 -0.3 -0.1 -3 -0.5 -6 -1z"/>
  <path d="M380 430.1 c0 -1.3 4.9 -4.3 6 -3.6 0.6 0.3 1 0.1 1 -0.5 0 -0.7 0.8 -0.9 2 -0.5 1.1 0.4 2 0.2 2 -0.4 0 -0.6 0.6 -0.8 1.4 -0.5 0.8 0.3 1.7 0.1 2 -0.4 0.7 -1.2 5.6 0.8 5.6 2.4 0 1.1 -12.8 4.4 -17.2 4.4 -1.6 0 -2.8 -0.4 -2.8 -0.9z"/>
  <path d="M322.5 415.5 c-14.3 -4.4 -21.7 -9.5 -23 -15.7 -0.4 -1.7 -1.6 -4.5 -2.6 -6.2 -1.9 -3.1 -2.4 -8.1 -1.2 -12.4 0.5 -2.3 0.9 -2.4 6.1 -1.7 7.5 0.9 10.2 2.3 10.2 5.2 0 4.5 2.8 8 8.2 10.6 7.3 3.4 10.7 4 12.5 2.5 1.1 -0.9 6.8 -1.5 16.7 -2 22.9 -1.1 37.5 -3.7 50.1 -9 8.6 -3.6 10 -3.8 9.9 -1.5 -0.2 1.4 0.1 1.5 1.2 0.6 1.4 -1.2 2.2 -0.8 6.9 3.6 3.9 3.5 1.4 7.8 -2.9 5 -1.4 -1 -3.3 -1.5 -4.1 -1.1 -2.3 0.9 -1.8 5.1 0.8 6.3 3.9 1.9 -0.8 2.8 -5.1 1 -6 -2.5 -10.1 -2.8 -13.8 -1.1 -1.9 0.9 -3.4 2 -3.4 2.5 0 0.5 -0.9 1.8 -2 2.9 -2.8 2.8 -13.5 2.8 -20.8 0 -2.9 -1.1 -6.2 -2 -7.3 -2 -1.3 0 -4.9 2.8 -9 6.9 -6.5 6.5 -7.3 7 -12.2 7.5 -6.7 0.7 -6.9 0.6 -15.2 -1.9z m61.1 -14.3 c-2.2 -0.5 -3 0.3 -2.1 1.8 0.5 0.8 1.1 0.7 2.2 -0.2 1.5 -1.2 1.4 -1.3 -0.1 -1.6z"/>
  <path d="M293.9 409.3 c-7.3 -8.1 -10.6 -14.9 -12.9 -26.6 -1.2 -6.1 -1.2 -6.9 0.3 -8.4 2.5 -2.6 3.5 -0.7 3.9 7.7 0.2 5.2 1 8.7 2.5 11.9 1.3 2.4 2.3 5.2 2.3 6 0 0.9 1.3 3.2 2.8 5.1 2.5 3.1 4.7 7 3.9 7 -0.2 0 -1.4 -1.2 -2.8 -2.7z"/>
  <path d="M284 344.2 c0 -3.9 16.5 -24.2 19.6 -24.2 0.8 0 1.4 -0.4 1.4 -1 0 -0.5 3.7 -3.1 8.3 -5.8 10.3 -6.1 22.9 -11 58.2 -22.8 28.9 -9.6 43.2 -15.9 57.5 -25.3 4.7 -3.1 8.8 -5.7 9.2 -5.9 1.4 -0.7 14.7 -14.8 18.1 -19.2 5.4 -7.1 13.4 -21.6 16.8 -30.5 7.4 -19.1 10 -37 7.9 -55 -0.7 -6.3 -1.1 -11.7 -0.8 -12 1.8 -1.8 14.2 15.2 19.6 26.9 3.4 7.2 3.9 10 2.1 11.2 -1.5 0.9 -2.6 -0.9 -4.5 -7.3 -0.8 -2.9 -2 -5.3 -2.5 -5.3 -0.5 0 -0.9 -0.5 -0.9 -1 0 -1.5 -5.8 -13.8 -6.8 -14.4 -0.5 -0.3 -0.9 6.6 -0.9 15.4 -0.1 17.9 -1.5 26.2 -6.9 40.8 -8.1 22.1 -19 38 -35.1 51.3 -8.2 6.7 -18.1 13.2 -20 13.2 -0.7 0 -1.3 0.4 -1.3 0.9 0 0.5 -0.4 0.7 -0.9 0.4 -0.5 -0.4 -1.1 -0.2 -1.3 0.4 -0.3 1.1 -24.5 12.2 -26.5 12.3 -0.7 0 -1.3 0.4 -1.3 0.8 0 0.4 -1.5 1.1 -3.2 1.4 -1.8 0.4 -3.7 1 -4.3 1.3 -0.5 0.4 -1.6 0.7 -2.3 0.8 -0.8 0.2 -2.1 0.6 -3 1 -0.9 0.4 -2 0.8 -2.4 0.9 -0.5 0.2 -1 0.4 -1.3 0.5 -0.3 0.1 -0.8 0.3 -1.2 0.4 -0.5 0.1 -1.9 0.9 -3.1 1.8 -2.2 1.5 -2.2 1.7 -0.5 2 1 0.2 -2.2 1.6 -7.2 3.2 -23.3 7.6 -37.8 13.8 -52.4 22.7 -3 1.8 -11 10.2 -15.7 16.5 -2.1 2.7 -3.9 5.1 -4.1 5.4 -0.2 0.2 -0.8 -0.2 -1.3 -0.9 -0.5 -0.9 -0.2 -2.4 0.8 -4 1 -1.4 1.2 -2.2 0.4 -1.7 -0.6 0.4 -1.9 2 -2.7 3.7 -1.7 3.2 -5.5 4.1 -5.5 1.1z m13.6 -10.9 c2.1 -2.6 3.3 -4.4 2.7 -4 -1.4 0.9 -7.7 8.7 -7 8.7 0.3 0 2.2 -2.1 4.3 -4.7z"/>
  <path d="M254.3 333.3 c-5.2 -5.2 -8.3 -11.7 -6.4 -13.6 0.6 -0.6 2.3 -1.2 3.9 -1.3 6.7 -0.5 10.7 -2.4 13.2 -6.1 4.7 -7.2 10.5 -13.5 17 -18.6 8 -6.3 9.1 -7.3 6.2 -5.8 -1.3 0.7 -3.3 1.1 -4.5 0.9 -1.8 -0.3 -0.7 -1.3 5.3 -5.2 9 -5.9 31.7 -17.6 34.1 -17.6 1 0 2 -0.4 2.4 -0.9 0.3 -0.5 3.1 -1.7 6.3 -2.6 14.3 -4.2 46.8 -18 60.1 -25.5 3.9 -2.2 7.5 -4 8.1 -4 0.5 0 1 -0.4 1 -1 0 -0.5 0.4 -1 0.9 -1 0.6 0 2.2 -1.1 3.7 -2.5 1.5 -1.4 3.2 -2.5 3.8 -2.5 0.6 0 1.7 -0.9 2.4 -2 0.7 -1.1 1.6 -2 2.1 -2 1.3 0 13.8 -13.1 18.8 -19.8 5.1 -6.8 11.4 -18.6 13.8 -26.2 1.5 -4.4 2 -5.1 2.6 -3.5 0.4 1.1 0.5 3.1 0.2 4.5 -0.3 1.4 -0.3 2.3 -0.1 2 1.3 -1.2 4.9 -18.2 5.5 -25.8 0.5 -6.8 1 -8.5 2.5 -9.3 1.1 -0.6 2.1 -0.9 2.3 -0.7 0.3 0.2 0 5.6 -0.5 11.9 -1.5 18.3 -7 34.6 -16.5 49 -5.1 7.5 -19 22.9 -20.9 22.9 -0.6 0 -1.7 0.9 -2.4 2 -0.7 1.1 -1.6 2 -2.2 2 -0.5 0 -2.1 1.1 -3.6 2.5 -1.5 1.4 -3.3 2.5 -4 2.5 -0.8 0 -1.4 0.5 -1.4 1 0 0.6 -0.5 1 -1 1 -0.6 0 -2 0.8 -3 1.8 -2 1.9 -18 10.1 -28.5 14.7 -3.3 1.4 -6.9 3 -8 3.5 -2.2 1 -12.9 5.1 -33.5 13 -23 8.7 -45.5 22.2 -55.9 33.5 -7.2 7.8 -13.6 18.7 -15.6 26.4 -1.1 3.9 -2.2 7.1 -2.6 7.1 -0.4 0 -2.9 -2.1 -5.6 -4.7z m71.2 -64.4 c5.1 -2.1 5.6 -2.6 3.7 -3.1 -1.2 -0.4 -2.8 -0.1 -3.5 0.6 -0.6 0.7 -4.3 2.8 -8.2 4.6 -6.1 3 -12.9 7.1 -14.5 8.6 -0.3 0.3 3.3 -1.4 8 -3.8 4.7 -2.4 11.2 -5.5 14.5 -6.9z m117 -73.9 c0.9 -1.6 1.3 -3 1.1 -3 -0.3 0 -1.2 1.4 -2.1 3 -0.9 1.7 -1.3 3 -1.1 3 0.3 0 1.2 -1.3 2.1 -3z"/>
  <path d="M507.5 246.2 l0.7 -8.9 -3.3 -2.6 c-2.9 -2.2 -3.2 -2.9 -2.2 -4.4 0.6 -1 1.5 -1.7 2.1 -1.6 0.5 0.1 0.7 -1.6 0.5 -3.9 -0.7 -6.5 0.2 -7.4 3.7 -4 2.7 2.8 3 3.6 3.1 10.8 0.3 13.3 -1.6 23.4 -4.2 23.4 -0.7 0 -0.8 -2.9 -0.4 -8.8z"/>
  <path d="M422.8 94.9 c-1.3 -1.7 -4.8 -5.1 -7.8 -7.6 -6.1 -5.1 -4.2 -5.2 4.6 -0.2 6.5 3.7 8.8 6.2 7.9 8.8 -0.9 2.9 -2 2.6 -4.7 -1z"/>
 </g>
 <g fill="#d57e30">
  <path d="M334.3 491.4 c-3.1 -2.4 -4.3 -4.4 -2.5 -4.4 1.3 0.1 6.4 5 6 6 -0.2 0.5 -1.8 -0.2 -3.5 -1.6z"/>
  <path d="M347.3 486.3 c-1.8 -0.2 -3.3 -0.8 -3.3 -1.3 0 -0.5 -1 -1.1 -2.2 -1.3 -1.3 -0.2 -0.3 -0.5 2.2 -0.7 l4.5 -0.2 -3.9 -0.9 c-6.2 -1.5 -5.6 -1.9 2.5 -1.9 l7.4 0 0.2 3.5 c0.3 3.8 0.4 3.8 -7.4 2.8z"/>
  <path d="M372 484.6 c0 -0.9 1.2 -1.8 2.8 -2.2 1.5 -0.3 4.1 -1 5.9 -1.5 4.4 -1.4 8.3 -2 8.3 -1.4 0 1.2 -5.6 3.9 -9.3 4.5 -2.3 0.4 -5 1.1 -5.9 1.5 -1.3 0.5 -1.8 0.3 -1.8 -0.9z"/>
  <path d="M317.6 465 c-3 -1 -4.4 -2 -3.6 -2.5 0.6 -0.4 0.9 -1.7 0.6 -2.9 -0.4 -1.6 -0.1 -2.2 1.3 -2.2 1.1 0 1.7 0.6 1.4 1.3 -0.3 0.7 0.7 1.5 2.4 1.8 5 1.1 5.3 1.4 5.3 4 0 2.9 -0.8 3 -7.4 0.5z"/>
  <path d="M410 455.5 c0 -0.8 1.4 -2.1 3 -3 1.7 -0.9 3 -2.1 3 -2.9 0 -0.7 1.1 -2.3 2.5 -3.6 l2.5 -2.3 0 2.3 c0 1.5 -1.6 4.1 -4.2 6.7 -4.3 4.4 -6.8 5.4 -6.8 2.8z"/>
  <path d="M337.5 448 c-3.8 -0.3 -6.5 -0.8 -6 -1.1 3.1 -2.1 13.4 -4 24 -4.5 6.6 -0.4 12.2 -0.8 12.4 -1 0.2 -0.2 -3.1 -0.4 -7.5 -0.4 -4.7 0 -7.3 -0.4 -6.4 -0.9 1.5 -0.8 25 -3.2 30.5 -3 4.9 0.1 0.3 1.6 -8.5 2.7 -7.4 1 -7.4 1 2.8 0.5 10.1 -0.5 10.2 -0.5 10.2 1.7 0 2.1 -0.4 2.2 -3.9 1.7 -2.6 -0.3 -4.1 -0.1 -4.4 0.7 -0.4 0.9 -3.7 1.3 -10.7 1.4 -5.6 0.1 -11.6 0.5 -13.3 1.1 -4.7 1.4 -11.2 1.8 -19.2 1.1z"/>
  <path d="M373 430.5 c0 -0.2 2.7 -0.9 6 -1.6 3.3 -0.6 5.7 -1.6 5.4 -2.1 -0.3 -0.5 0.6 -0.6 2.3 -0.3 1.6 0.4 2.3 0.3 1.7 -0.2 -0.7 -0.5 1.3 -0.9 4.7 -1 3.2 -0.1 5.9 0.1 5.9 0.5 0 1.2 -11.9 4 -19.2 4.6 -3.8 0.3 -6.8 0.3 -6.8 0.1z"/>
  <path d="M378 414.7 c3.6 -4.1 14.3 -8.2 19.3 -7.4 1.9 0.3 5.1 0.2 7.1 -0.3 2.9 -0.6 3.6 -0.5 3.6 0.7 0 1 -0.6 1.2 -2 0.8 -1.1 -0.4 -4.2 0.1 -6.8 0.9 -2.6 0.9 -7.6 2.2 -11.2 3 -3.6 0.7 -7.4 1.7 -8.5 2.1 -1.1 0.5 -1.8 0.5 -1.5 0.2z"/>
  <path d="M326.9 370.1 c-0.2 -0.5 -1.5 -1.2 -2.9 -1.5 -4.9 -1 -9.1 -2.5 -12.4 -4.5 -1.8 -1.2 -4.6 -2.1 -6.2 -2.2 -1.6 0 -2.2 -0.3 -1.4 -0.6 0.8 -0.3 3.1 -1.6 5.1 -3 2.1 -1.3 6.8 -3.5 10.5 -4.7 6.6 -2.3 7.5 -2.3 22.4 -1.4 16.6 1 38.9 0.5 46.1 -1.1 2.4 -0.5 10 -2.1 16.9 -3.6 6.9 -1.5 14.8 -3.6 17.5 -4.6 2.8 -1.1 7.1 -2.3 9.6 -2.6 4.1 -0.5 4.8 -0.3 5.4 1.6 0.3 1.1 0.4 2.5 0.1 3 -2.1 3.3 -30.1 12.4 -46.3 15.1 -3.2 0.5 -9.8 1.6 -14.8 2.5 -4.9 0.9 -11.9 2 -15.5 2.5 -7.7 1 -28.6 4.7 -31.6 5.6 -1.2 0.3 -2.3 0.1 -2.5 -0.5z"/>
  <path d="M291.8 347.2 c-1.3 -3.3 -1.3 -4 0.1 -6.3 2.7 -4.4 12 -15.5 14.3 -17.3 2.1 -1.5 2.1 -1.6 0.2 -0.7 -2.7 1.3 -11.6 11.1 -16 17.5 -2.7 4 -3.4 4.6 -3.4 2.9 0 -3.5 10.2 -18.2 12.6 -18.3 0.7 0 1.4 -0.9 1.7 -2.1 0.4 -1.6 1.2 -2 3.9 -1.7 2.6 0.2 3.4 0.8 3.6 2.6 0.2 1.3 0 3.1 -0.4 4 -0.4 0.9 -0.6 2.9 -0.5 4.4 0.2 2.1 -0.7 3.7 -3.6 6.3 -2.1 1.9 -4.1 3.5 -4.6 3.5 -0.4 0 -2 2 -3.6 4.5 l-2.8 4.4 -1.5 -3.7z"/>
  <path d="M468.6 321.4 c-1.4 -3.6 -0.6 -9.3 1.3 -10.4 2.4 -1.2 12.4 -1.4 11.9 -0.1 -0.7 2 -10.2 12.1 -11.4 12.1 -0.6 0 -1.5 -0.7 -1.8 -1.6z"/>
  <path d="M479 303.5 c-3 -1.3 -6.5 -2.4 -7.7 -2.5 -2.7 0 -2.9 -0.7 -0.8 -2.9 0.8 -0.9 2.6 -2.9 4 -4.6 1.5 -1.8 2.8 -2.6 3.2 -2 1.2 1.6 7.3 4.5 9.3 4.5 1 0 2 -0.8 2.3 -1.7 0.2 -1 0.8 -2.6 1.2 -3.5 0.5 -1.4 0.2 -1.8 -1.3 -1.8 -3.9 0 -5.2 -1.1 -5.2 -4.6 0 -1.9 0.4 -3.4 0.9 -3.4 0.5 0 1.1 -1.2 1.3 -2.7 0.2 -2.3 0.8 -2.9 3.6 -3.1 2.7 -0.3 3.2 0 3.2 1.7 0 1.2 0.7 2.1 1.5 2.1 1.1 0 1.5 1.1 1.5 4 0 2.2 0.4 4 0.9 4 0.6 0 -0.6 2.8 -2.5 6.3 -4.9 8.7 -7.7 12.7 -8.9 12.7 -0.5 -0.1 -3.5 -1.2 -6.5 -2.5z"/>
  <path d="M362 297.7 c0 -3.2 0.1 -3.3 7.5 -5.5 4.1 -1.2 8.4 -2.2 9.5 -2.2 1.1 0 2 -0.4 2 -1 0 -0.5 1.1 -1 2.5 -1 1.4 0 2.5 -0.4 2.5 -0.8 0 -1.1 6.1 -3.2 9.5 -3.2 2.8 0 2.8 0 0.9 1.9 -1 1 -2.5 1.6 -3.3 1.3 -0.9 -0.3 -1.2 -0.1 -0.8 0.5 0.5 0.7 -0.1 0.9 -1.5 0.5 -1.6 -0.4 -1.9 -0.2 -1.3 0.8 0.5 0.9 0.4 1.1 -0.3 0.6 -1.1 -0.6 -26.7 7.3 -25.9 8 0.1 0.2 2.5 -0.3 5.2 -1.1 4.4 -1.3 4.8 -1.3 3.1 0 -1.9 1.4 -1.8 1.5 1.5 1.6 l3.4 0 -4.5 1.5 c-2.5 0.7 -5.7 1.4 -7.2 1.4 -2.5 0 -2.8 -0.4 -2.8 -3.3z"/>
  <path d="M243.6 292.3 c0.7 -1.6 1.4 -3.7 1.4 -4.8 0 -5.4 7.7 -20.2 13.1 -25.1 1.4 -1.3 6.2 -1.9 23.1 -3 18 -1.1 23.3 -1.1 34.3 0.1 17.4 1.9 19.7 2.4 19.3 4.4 -0.3 1.2 -1.5 1.6 -5.4 1.6 -3.1 0 -5 0.4 -4.8 1 0.3 0.6 -3.1 2.7 -7.3 4.8 -4.3 2.1 -11.4 6.1 -15.8 8.7 -14.6 8.9 -13.9 8.7 -28 9.5 -7.2 0.3 -14.8 1.1 -17 1.6 -2.2 0.4 -5.4 0.9 -7.1 0.9 -1.7 0 -3.7 0.7 -4.4 1.5 -2.1 2.5 -3 1.7 -1.4 -1.2z m30.8 -10.5 c1.4 -2.3 -0.3 -6.9 -3.1 -7.9 -1.6 -0.6 -2.9 -0.2 -4.7 1.2 -3 2.4 -3.2 3.1 -1 6.5 1.3 1.9 2.4 2.4 4.7 2.2 1.6 -0.2 3.5 -1.1 4.1 -2z"/>
  <path d="M287 291.6 c0 -1.9 25.4 -16.5 35.8 -20.5 7.8 -3.1 6.3 -1.1 -2.5 3.2 -4.3 2.1 -11.4 6.1 -15.8 8.7 -13.2 8.1 -17.5 10.2 -17.5 8.6z"/>
  <path d="M331 268 c2 -1.3 4 -1.3 4 0 0 0.6 -1.2 1 -2.7 1 -2.2 0 -2.5 -0.2 -1.3 -1z"/>
  <path d="M431 205.5 c0 -2 -0.5 -3.7 -1.2 -3.9 -0.7 -0.2 -3.3 -0.9 -5.8 -1.5 -14.2 -3.7 -15.7 -4.5 -13 -6.1 0.8 -0.5 1.5 -1.5 1.5 -2.1 0 -2.9 3.2 -3.3 10.1 -1.2 3.8 1.1 9.5 2.6 12.7 3.3 3.1 0.7 5.7 1.6 5.7 2 0 1.4 -8 13 -9 13 -0.5 0 -1 -1.6 -1 -3.5z"/>
  <path d="M438.3 202.8 c3.6 -5.4 4.2 -6 4.5 -4 0.4 3 -4.5 10.2 -6.9 10.2 -1.6 0 -1.2 -1 2.4 -6.2z"/>
 </g>
 <g fill="#dd980c">
  <path d="M342.9 496.1 c-5.3 -2.1 -9.1 -4.5 -8.3 -5.3 0.3 -0.3 3.2 0.3 6.5 1.3 6.7 2.1 25 2.6 32.4 0.9 2.2 -0.5 5.4 -1.2 7 -1.5 l3 -0.7 -2.5 2.1 c-6.3 5.1 -28.5 7 -38.1 3.2z"/>
  <path d="M348.7 486.3 c-2.3 -0.6 -1.1 -2.3 1.6 -2.3 1.6 0 1.8 -0.3 0.9 -0.9 -1.1 -0.6 -1 -1 0.4 -1.5 1.1 -0.4 2.1 -0.1 2.7 0.9 0.7 1.3 2.1 1.5 8.3 0.9 7.1 -0.6 7.4 -0.6 7.4 1.5 0 2 -0.4 2.1 -9.7 1.9 -5.4 0 -10.6 -0.3 -11.6 -0.5z"/>
  <path d="M348.5 474.5 c-0.5 -0.2 -5.6 -0.9 -11.2 -1.6 -9.6 -1.1 -12.1 -2 -9 -3.2 1 -0.4 1 -0.6 0 -0.6 -1.5 -0.1 -1.7 -4.7 -0.3 -5.6 0.5 -0.3 2.8 -0.1 5.1 0.5 2.2 0.6 9.1 1.5 15.2 2 16.4 1.4 34.3 -0.8 47.4 -5.7 4.4 -1.6 7.3 -1.3 7.3 0.9 0 2.8 -20.7 9 -33.4 10.2 -3.2 0.2 -6.6 1.2 -7.5 2 -1.6 1.4 -10.4 2.1 -13.6 1.1z"/>
  <path d="M320.5 466.1 c-1.9 -0.8 -1.9 -0.8 0.2 -1.9 3.3 -1.8 5.3 -1.5 5.3 0.8 0 2.1 -1.9 2.5 -5.5 1.1z"/>
  <path d="M358 444.9 c0 -1.7 0.8 -1.9 7 -1.9 6.2 0 7 0.2 7 1.9 0 1.7 -0.8 1.9 -7 1.9 -6.2 0 -7 -0.2 -7 -1.9z"/>
  <path d="M421 334 c0 -0.5 1.7 -1.8 3.8 -2.9 4.9 -2.5 18.2 -11.4 25.9 -17.3 3.4 -2.7 6.4 -4.8 6.7 -4.8 0.3 0 0.6 2 0.6 4.5 0 3.1 -0.6 5 -1.9 6.3 -4.8 4.5 -8.6 7.1 -11 7.7 -1.4 0.3 -6 2.2 -10.2 4.1 -7.4 3.3 -13.9 4.4 -13.9 2.4z"/>
  <path d="M318.8 323.8 c-3.4 -3.7 -3.5 -6 -0.5 -8.2 l2.2 -1.7 -2.2 1.1 c-3.5 1.7 -2.8 -0.6 1 -2.8 8.9 -5.5 44 -18.3 50 -18.1 3 0 2.8 0.2 -1.7 1.5 -2.6 0.9 -4.6 1.8 -4.3 2.1 0.3 0.3 2 0 3.8 -0.6 3.9 -1.4 5.9 -1.4 3.9 -0.1 -1.1 0.7 -0.5 1 2.3 1 2.2 0 5.3 0.6 7 1.4 4.7 2.2 10.7 3.6 15.2 3.6 3.4 0.1 3.7 0.3 2.4 1.3 -0.9 0.7 -5.6 2.5 -10.5 4 -4.9 1.6 -10.7 3.8 -12.9 4.9 -6.6 3.2 -24.3 7 -26.7 5.7 -1.6 -0.9 -2.4 -0.7 -4.2 1 -1.2 1.2 -2.9 2.1 -3.7 2.1 -1.4 0 -13.4 3.1 -16.9 4.3 -0.9 0.3 -2.6 -0.7 -4.2 -2.5z"/>
  <path d="M485 281.4 l0 -4.5 4.3 0.3 c4.2 0.3 4.2 0.3 4.5 4.4 l0.3 4.1 -4.6 0.1 -4.5 0 0 -4.4z"/>
  <path d="M309 238.6 c0 -0.8 1.4 -1.7 3.3 -2.1 21.7 -4.4 43.9 -10.9 58.4 -17.1 5.6 -2.4 10.6 -4.4 11 -4.4 0.5 0 2.5 -1.1 4.4 -2.5 3.9 -3 6.4 -2.8 18.9 1.1 4.1 1.3 9.2 2.9 11.4 3.6 4.3 1.4 5.4 3.1 3.5 5.5 -1 1.2 -1 1.5 -0.1 0.9 0.7 -0.4 1.2 -0.1 1.2 0.9 0 0.8 -2.8 3.3 -6.3 5.5 -5.3 3.4 -7 4 -11.9 4 -3.9 0 -7.2 -0.8 -11 -2.5 -2.9 -1.3 -8.6 -3.2 -12.5 -4.1 l-7.3 -1.6 -14.2 4.2 c-7.9 2.3 -16.3 5.1 -18.8 6.2 -3 1.3 -8.4 2.2 -16 2.8 -14.8 1.2 -14 1.2 -14 -0.4z"/>
 </g>
 <g fill="#dc881c">
  <path d="M335.4 492.1 c-3.5 -2.1 -4.9 -3.9 -4 -4.8 0.3 -0.4 1.6 0.3 2.9 1.5 1.2 1.1 3.5 2.4 5 2.8 2.1 0.5 2.5 0.9 1.5 1.5 -1.8 1.2 -1.9 1.2 -5.4 -1z"/>
  <path d="M378.6 492.1 c0.5 -0.4 2.3 -1.1 3.9 -1.5 2.8 -0.6 2.9 -0.5 1.1 0.9 -2.1 1.6 -6.7 2.2 -5 0.6z"/>
  <path d="M365.1 485.6 c-2.3 -1.3 -2.3 -1.4 -0.5 -1.9 3.8 -1.1 10.8 -1.1 11.1 0 0.2 0.6 -1 1.6 -2.8 2.2 -4 1.4 -4.8 1.3 -7.8 -0.3z"/>
  <path d="M344.2 485.4 c0.6 -0.6 2.9 -1.1 6.3 -1.4 1.1 -0.1 -0.2 -0.8 -3 -1.5 l-5 -1.3 5.6 -0.1 c4.5 -0.1 5.8 0.3 6.3 1.6 0.4 0.9 0.1 2 -0.6 2.5 -1.5 0.9 -10.5 1.1 -9.6 0.2z"/>
  <path d="M327.8 470.1 c1 -0.6 0.4 -1.3 -2.1 -2.5 -1.9 -0.9 -4.3 -1.6 -5.4 -1.6 -1.7 -0.1 -1.7 -0.1 -0.1 -1.4 1.4 -1 1.5 -1.5 0.5 -2.6 -1 -1 -0.6 -1.1 1.8 -0.6 1.7 0.4 4.2 1 5.7 1.3 2.8 0.5 4.4 2.8 2.8 3.8 -1.8 1.1 -1 2.5 1.3 2.5 1.8 0 1.9 0.2 0.7 1 -0.8 0.5 -2.6 1 -4 1 -1.7 0 -2.1 -0.3 -1.2 -0.9z"/>
  <path d="M398.1 461.6 c-0.9 -1.1 0.3 -2 6.5 -5 5.3 -2.5 8.1 -3.3 9.2 -2.7 1.3 0.7 0.3 1.7 -4.9 5 -6.8 4.4 -9 4.9 -10.8 2.7z"/>
  <path d="M342.5 448 c-1.8 -0.8 -1.7 -0.9 0.7 -0.9 1.5 -0.1 5.1 -1 8 -2.1 3.8 -1.5 8.4 -2.2 16.3 -2.5 11.5 -0.4 15.1 0.3 12.7 2.7 -0.9 0.9 -3.7 1.2 -8.5 1.1 -4 -0.1 -10.3 0.3 -14.2 0.8 -3.8 0.5 -8.3 1.1 -10 1.4 -1.6 0.2 -3.9 0 -5 -0.5z"/>
  <path d="M359 440 c3.6 -0.4 9 -0.8 12 -0.8 l5.5 0.1 -4.5 0.8 c-2.5 0.4 -7.9 0.7 -12 0.7 l-7.5 -0.1 6.5 -0.7z"/>
  <path d="M354 355.9 c-8 -0.5 -16.5 -1.5 -19 -2.3 l-4.5 -1.5 9 0 c10 -0.1 29.3 -2.4 39.5 -4.7 11.8 -2.7 22.4 -6.3 38.6 -13 8.7 -3.7 18.6 -7.6 21.8 -8.9 3.3 -1.2 7.1 -3.2 8.4 -4.4 1.3 -1.1 3.7 -2.1 5.3 -2.1 2.6 0 2.9 0.3 2.9 3.3 -0.1 2.9 -0.6 3.5 -5.3 5.7 -4 1.9 -5.7 3.5 -7.4 6.9 -1.3 2.4 -2.3 5.5 -2.3 6.8 0 3 -4.8 5.2 -6.5 3 -0.9 -1.3 -1.8 -1.3 -6.5 0.5 -10 3.6 -30.5 8.1 -45 9.8 -4.7 0.5 -9.8 1.1 -11.5 1.3 -1.6 0.2 -9.5 0 -17.5 -0.4z"/>
  <path d="M305 335.7 c0 -1.3 -0.7 -3 -1.5 -3.7 -2.6 -2.1 -1.7 -4.4 3.3 -8.3 2.6 -2 5.6 -4.4 6.7 -5.3 1.4 -1 1 -1 -1.3 0.3 -1.8 1 -5.5 3.7 -8.2 6.1 -4 3.5 -5 4 -5 2.5 0 -4.2 13.7 -13.3 19.5 -13.1 3.9 0.1 4.2 0.5 1.9 2.2 -1.3 1 -1.1 1.6 1.5 4.4 1.7 1.7 3.1 3.5 3.1 3.9 0 0.5 -3.3 2.4 -7.3 4.3 -3.9 1.9 -8.4 4.8 -9.9 6.4 l-2.8 2.8 0 -2.5z"/>
  <path d="M469 322 c0 -1.4 -0.7 -2 -2.4 -2 -1.3 0 -4.6 -0.9 -7.3 -2.1 -7.3 -3 -6.8 -5.2 3 -13.4 8.9 -7.5 10.9 -7.9 19.7 -4.1 3 1.4 5.9 2.1 6.5 1.8 1.1 -0.7 -3.8 6.1 -6.8 9.3 -1.1 1.2 -2.8 1.9 -4.5 1.7 -3.8 -0.4 -6.6 1.9 -5.7 4.7 0.5 1.6 1.2 2.1 2.3 1.6 1.1 -0.4 0.8 0.3 -0.7 1.9 -2.9 3.1 -4.1 3.3 -4.1 0.6z"/>
  <path d="M357.2 298.5 c-0.1 -1.8 0.8 -2.4 5.7 -3.9 3.2 -1 7.2 -1.6 8.7 -1.4 2.5 0.3 2.1 0.6 -2.9 2.1 -3.3 1 -5.5 2.2 -5.2 2.8 0.4 0.6 -0.4 0.7 -2.2 0.4 -1.9 -0.5 -2.4 -0.4 -1.5 0.3 1.1 0.7 1 1 -0.5 1.4 -1.4 0.4 -1.9 -0.1 -2.1 -1.7z"/>
  <path d="M482 298.8 c-1.9 -1.1 -4.6 -2.4 -6 -2.9 -2.4 -0.7 -2.4 -0.7 0.5 -0.8 3.4 0 13.9 4.2 12.9 5.2 -1.2 1.2 -3.7 0.7 -7.4 -1.5z"/>
  <path d="M485.3 287.3 c-0.8 -0.3 -1.3 -2.3 -1.3 -4.7 0 -5.1 2.2 -7.6 6.8 -7.6 3.5 0 5.2 2.2 5.2 6.5 0 4.6 -1.7 6.5 -5.8 6.4 -2 0 -4.3 -0.3 -4.9 -0.6z m6.5 -2.5 c0.7 -0.7 1.2 -1.7 1.2 -2.2 0 -0.6 -0.5 -0.3 -1.1 0.7 -0.7 1.2 -1.7 1.6 -3.2 1.2 -1.7 -0.5 -1.9 -0.4 -0.7 0.4 1.9 1.4 2.3 1.4 3.8 -0.1z m-1 -3 c-0.6 -1.8 -2.8 -2.1 -2.8 -0.4 0 0.9 0.7 1.6 1.6 1.6 0.9 0 1.4 -0.5 1.2 -1.2z"/>
  <path d="M261.5 259.1 c8.7 -9 12.3 -11.2 27.1 -16.1 14.2 -4.8 23 -6.7 34.4 -7.5 4.7 -0.3 9.3 -0.8 10.3 -1.1 1.4 -0.4 1.7 0.1 1.7 3 0 2.2 -0.5 3.6 -1.2 3.6 -2 0.1 -9.4 7 -7.6 7 2.7 0 3.8 6.2 1.8 10.1 -0.9 1.5 -2.2 1.9 -6.3 1.9 -2.9 0 -5.7 0.4 -6.3 1 -0.5 0.5 -2.1 1 -3.4 1 -1.4 0 -8.3 0 -15.4 0 -9.9 0 -13.5 0.4 -15.3 1.5 -1.8 1.2 -2.7 1.3 -4.2 0.3 -2 -1.2 -16.3 -0.1 -20.6 1.7 -1.1 0.4 1.2 -2.5 5 -6.4z"/>
  <path d="M417 223.5 c1 -1.2 0.5 -1.7 -2.5 -3 -2.1 -0.8 -4.3 -1.5 -5 -1.5 -0.7 0 -2.8 -0.6 -4.6 -1.4 -1.9 -0.8 -6.7 -2.2 -10.6 -3.1 -4 -1 -7.3 -2 -7.3 -2.4 0.1 -0.3 2.2 -1.9 4.7 -3.5 2.5 -1.6 7.3 -5.3 10.7 -8.1 8.7 -7.4 9.4 -7.6 15.2 -6.1 2.7 0.8 6.2 1.9 7.7 2.5 3.5 1.4 7 1.4 6.2 0.1 -0.3 -0.5 -1.6 -1 -2.8 -1 -3.9 0 -17.4 -4.7 -15.6 -5.5 0.9 -0.3 4.1 0.1 7 0.9 3 0.8 7.4 2 9.9 2.7 2.5 0.6 5.9 1.8 7.5 2.5 l3 1.4 -3.7 -0.3 c-4 -0.3 -5.1 0.7 -1.9 1.8 2.2 0.7 2.4 4.2 0.3 5 -0.7 0.3 -1.1 0.9 -0.8 1.4 0.3 0.5 -3.1 4.8 -7.6 9.7 -4.5 4.9 -6 6.9 -3.4 4.4 2.7 -2.5 7.5 -7.8 10.7 -11.8 7.1 -8.8 8.3 -6.6 1.4 2.5 -6.8 9.1 -12.8 14.3 -16.6 14.3 -2.6 0 -2.9 -0.2 -1.9 -1.5z"/>
 </g>
 <g fill="#e17827">
  <path d="M330.4 486.9 c-2.4 -4.7 -2.5 -6.6 -0.3 -7.2 1 -0.3 1.7 -0.1 1.4 0.3 -0.3 0.5 2.3 1.5 5.7 2.4 l6.3 1.5 -5.2 -0.5 c-4.3 -0.5 -5.4 -0.3 -5.9 1 -0.4 1 0.1 2.5 1.1 3.6 1.6 1.8 1.6 2 0.2 2 -0.9 0 -2.4 -1.4 -3.3 -3.1z"/>
  <path d="M383 481.6 c7 -3.6 10.1 -4.1 4.5 -0.7 -2.7 1.7 -5.9 3.1 -7 3 -1.3 0 -0.5 -0.8 2.5 -2.3z"/>
  <path d="M338.9 480.6 c-5.2 -1.5 -10.4 -4.2 -5.9 -3.1 1.4 0.3 4.9 1.1 7.8 1.7 2.8 0.6 5.2 1.5 5.2 1.9 0 1.1 -1.4 1 -7.1 -0.5z"/>
  <path d="M314.6 459.5 c-0.3 -0.8 -1.7 -2 -3.1 -2.7 -3 -1.4 -3.2 -2.4 -0.4 -3.1 1.5 -0.4 2.2 0.1 2.9 1.9 0.5 1.3 1.3 2.4 1.8 2.4 1.1 0 7.2 -6.6 7.2 -7.9 0 -0.6 0.8 -1.4 1.8 -1.9 2.6 -1.4 9.2 -2.2 9.2 -1.1 0 0.5 -1 0.9 -2.3 0.9 -1.2 0 -3.4 0.7 -4.7 1.6 -4.1 2.8 -10 8.7 -10 10.1 0 1.8 -1.7 1.6 -2.4 -0.2z"/>
  <path d="M416 449.2 c0 -0.5 1.1 -1.9 2.5 -3.2 1.9 -1.8 2.5 -2 2.5 -0.8 0 0.9 -1.1 2.3 -2.5 3.2 -1.4 0.9 -2.5 1.3 -2.5 0.8z"/>
  <path d="M323.3 445.3 c1.5 -0.2 3.9 -0.2 5.5 0 1.5 0.2 0.2 0.4 -2.8 0.4 -3 0 -4.3 -0.2 -2.7 -0.4z"/>
  <path d="M385.2 442.8 c-2 -2 -1.4 -2.6 3.7 -3.3 5.3 -0.7 14.8 0.3 13.4 1.5 -1 0.8 -10.7 3 -13.7 3 -1.2 0 -2.7 -0.5 -3.4 -1.2z"/>
  <path d="M381 438.2 c0 -0.9 5.6 -2.2 9.5 -2.2 1.6 0.1 1.7 0.2 0.5 0.9 -2.4 1.4 -10 2.4 -10 1.3z"/>
  <path d="M360 429 c-0.8 -0.5 -1.1 -1 -0.6 -1 0.4 0 -0.2 -0.9 -1.5 -2 -1.5 -1.2 -1.9 -1.9 -1 -2 0.8 0 1.1 -0.6 0.7 -1.5 -0.4 -1.3 -0.2 -1.4 1.5 -0.5 1.1 0.6 1.7 1.4 1.5 1.8 -0.3 0.5 0.5 0.9 1.6 0.9 3.1 0.3 3.4 1.1 1.2 3.3 -1.3 1.4 -2.3 1.7 -3.4 1z"/>
  <path d="M344 428.1 c0 -1.6 2 -2.3 4.6 -1.7 3.6 0.9 2.9 2.6 -1.1 2.6 -1.9 0 -3.5 -0.4 -3.5 -0.9z"/>
  <path d="M369.3 421.5 c2.1 -1.9 3.6 -3.8 3.3 -4.3 -0.3 -0.5 1.6 -1.8 4.2 -2.8 7 -2.8 7 -2.8 2.7 0.3 -2.2 1.5 -5.8 4.5 -7.9 6.6 -2.2 2 -4.5 3.7 -5 3.7 -0.6 0 0.6 -1.6 2.7 -3.5z"/>
  <path d="M346 418.9 c0 -0.5 1.1 -0.9 2.5 -0.9 1.4 0 2.5 0.2 2.5 0.4 0 0.2 -1.1 0.6 -2.5 0.8 -1.4 0.3 -2.5 0.1 -2.5 -0.3z"/>
  <path d="M353.8 418.3 c1.2 -0.2 3.2 -0.2 4.5 0 1.2 0.2 0.2 0.4 -2.3 0.4 -2.5 0 -3.5 -0.2 -2.2 -0.4z"/>
  <path d="M406.6 408.7 c-1.7 -1.2 -1.6 -1.4 0.8 -2.5 2.5 -1.1 2.6 -1 1.7 0.7 -0.6 1 -0.7 2.1 -0.4 2.5 1.1 1.1 -0.3 0.6 -2.1 -0.7z"/>
  <path d="M296.7 340.3 c-1.3 -1.2 -0.7 -2.3 1.3 -2.3 1.1 0 2 0.7 2 1.5 0 1.5 -2.1 2.1 -3.3 0.8z"/>
  <path d="M234.5 314.2 c-1.2 -1.7 -1.3 -2.2 -0.4 -1.5 0.9 0.7 1.8 1.1 2 0.8 0.3 -0.2 0.5 0.5 0.6 1.5 0.2 2.5 0.2 2.5 -2.2 -0.8z"/>
  <path d="M242.5 306 c-0.4 -2.3 -1.2 -4 -2 -4 -0.7 0 -1.5 -0.6 -1.8 -1.2 -0.5 -1.8 -5.7 1 -5.7 3.1 0 1.4 -0.2 1.4 -1 0.1 -0.8 -1.2 -1 -1.2 -1 0.5 0 1.7 -0.5 1.5 -3 -1.4 -3.7 -4.2 -3.7 -4.9 -0.2 -5.7 1.5 -0.3 3.8 -0.9 5.2 -1.4 1.4 -0.5 4.2 -1.1 6.3 -1.5 2.1 -0.3 4.1 -1.3 4.4 -2 0.3 -0.8 0.9 -1.2 1.4 -0.9 0.5 0.3 0.1 1.6 -0.8 3 -1.2 1.9 -1.4 3.9 -1 8.9 0.7 7.3 0.2 8.6 -0.8 2.5z"/>
  <path d="M481 298.5 c-2.5 -1.3 -5.3 -2.6 -6.4 -2.9 -1.6 -0.6 -1.4 -1.1 1.9 -5.2 2 -2.5 4.7 -6.2 5.9 -8.2 7.5 -13.2 10 -15.4 16.1 -14.3 3.3 0.7 6 4.7 4.5 6.7 -0.6 0.6 -0.7 1.4 -0.3 1.7 0.3 0.4 -0.2 0.9 -1.1 1.3 -1 0.4 -1.4 1.3 -1.2 2.3 0.3 0.9 -0.5 3.4 -1.9 5.6 -1.3 2.2 -3.4 5.8 -4.6 8 -4.4 8.3 -5.7 8.7 -12.9 5z m10.8 -13.7 c2.8 -2.8 -0.3 -8.3 -3.3 -5.8 -1.8 1.5 -2 5.6 -0.2 6.3 1.9 0.8 2.2 0.8 3.5 -0.5z"/>
  <path d="M265.1 282.4 c-1.2 -1.5 -2.1 -3.2 -2.1 -3.8 0 -1.5 3.7 -5.6 5.1 -5.6 0.6 0 -0.3 1.1 -1.8 2.4 -2.7 2.4 -2.8 2.5 -1.1 5.3 1.3 2.1 2.4 2.8 4.9 2.8 1.8 0 3.6 -0.7 4.2 -1.6 1.5 -2.3 0 -6.8 -2.6 -7.9 -2.1 -0.8 -2.1 -0.9 -0.2 -0.9 3 -0.1 4.5 1.8 4.5 5.5 0 6.4 -7 8.8 -10.9 3.8z"/>
  <path d="M501.5 266 c-1.9 -0.8 -1.9 -0.9 0.2 -0.9 1.2 -0.1 2.5 0.4 2.8 0.9 0.7 1.2 -0.2 1.2 -3 0z"/>
  <path d="M443.4 194.7 c2 -3.6 5 -10.1 6.6 -14.4 1.8 -4.9 2.9 -6.9 3 -5.2 0.1 6.6 -8.1 25.1 -11.5 25.7 -1.3 0.3 -0.9 -1 1.9 -6.1z"/>
  <path d="M431.4 196.9 c-0.3 -0.5 -1.5 -0.9 -2.6 -0.9 -1.1 0 -5.3 -1 -9.3 -2.2 l-7.2 -2.2 5.2 -7 c7.4 -10.1 12.2 -19.6 14.6 -29.3 0.7 -2.9 1.6 -5.3 2 -5.3 1.1 0 2.9 2.6 2.2 3.3 -0.3 0.4 -0.1 0.7 0.5 0.7 0.7 0 1.1 0.5 1 1.1 -0.2 0.6 0.8 1.3 2.2 1.5 1.3 0.3 2.7 1 3.1 1.6 0.4 0.6 1.7 0.8 2.9 0.5 1.2 -0.3 1.9 -0.3 1.6 0 -0.3 0.3 0.2 1.2 1 2 0.8 0.9 1.2 1.8 0.9 2.1 -0.3 0.4 -1 0 -1.5 -0.8 -0.7 -1.1 -1.2 -1.2 -2 -0.4 -0.7 0.7 -0.6 2.2 0.4 5.1 0.8 2.3 1.1 4.5 0.8 4.9 -0.4 0.4 -0.2 0.4 0.4 0.1 2 -1.1 2.3 3.2 0.8 8.5 -0.9 2.8 -3 7.8 -4.9 11.2 -3.2 5.9 -3.4 6.1 -7.4 6.2 -2.3 0.1 -4.4 -0.3 -4.7 -0.7z m8.9 -31.9 c-0.4 -1.6 -0.8 -1.8 -2 -0.9 -1.1 1 -1.1 1.4 -0.1 2 2.1 1.4 2.6 1 2.1 -1.1z"/>
 </g>
 <g fill="#e06535">
  <path d="M331 477.5 l-2.5 -1.4 3.3 -0.1 c2.2 0 3.2 0.5 3.2 1.5 0 1.8 -0.8 1.8 -4 0z"/>
  <path d="M304.3 455 c-0.6 -1.6 -1 -3 -0.8 -3 0.2 0 1.3 1.4 2.5 3 1.5 2.1 1.7 3 0.8 3 -0.8 0 -1.9 -1.3 -2.5 -3z"/>
  <path d="M322.8 445.3 c1.8 -0.2 4.5 -0.2 6 0 1.5 0.2 0 0.4 -3.3 0.4 -3.3 0 -4.5 -0.2 -2.7 -0.4z"/>
  <path d="M307.8 424.3 c-1 -0.2 -1.8 -1.1 -1.8 -1.9 0 -1.5 1.2 -1.9 2.4 -0.6 0.4 0.4 2.2 1.2 3.9 1.9 l3.2 1.1 -3 0 c-1.6 0 -3.8 -0.2 -4.7 -0.5z"/>
  <path d="M332.8 417.3 c1.2 -0.2 3 -0.2 4 0 0.9 0.3 -0.1 0.5 -2.3 0.4 -2.2 0 -3 -0.2 -1.7 -0.4z"/>
  <path d="M305 407.7 c-1.4 -1.3 -3.2 -3.2 -4 -4.2 -0.8 -1.1 0.4 -0.4 2.5 1.5 2.2 1.9 4.4 3.8 5 4.2 0.6 0.5 0.6 0.8 0 0.8 -0.6 0 -2.1 -1.1 -3.5 -2.3z"/>
  <path d="M501.5 266 c-1.1 -0.4 -3.2 -1.3 -4.7 -1.9 l-2.8 -1 1.9 -5.3 c2.2 -5.9 4.6 -15.8 5.8 -23.2 0.5 -2.7 1.3 -5.1 1.8 -5.3 0.6 -0.2 2.6 1 4.5 2.5 3.3 2.8 3.4 3.1 3.2 9.6 -0.2 9.2 -4.7 25.7 -6.9 25.5 -0.4 0 -1.7 -0.4 -2.8 -0.9z"/>
  <path d="M456 244.5 c0 -2 1 -4.1 2.8 -6.1 1.5 -1.6 3.2 -3.9 3.7 -5 3.7 -7.4 8.2 -14.4 9.3 -14.4 1.8 0 1.6 0.7 -2.3 7.7 -3.8 6.9 -4.1 7.8 -2.3 6.7 0.7 -0.4 0.8 -0.3 0.4 0.5 -0.4 0.6 -1.1 0.9 -1.6 0.6 -1.1 -0.7 -3.1 2.9 -2.8 4.7 0.2 0.6 -0.3 1.2 -1.1 1.3 -0.8 0 -1.6 0.6 -1.9 1.4 -0.3 0.9 0 1.1 0.9 0.5 1.2 -0.7 1.2 -0.5 0 0.9 -0.7 0.9 -1.7 1.4 -2.2 1.2 -0.4 -0.3 -1.2 0.3 -1.8 1.2 -0.9 1.5 -1 1.3 -1.1 -1.2z"/>
  <path d="M476.4 207.7 c0.4 -5 0.9 -6.1 2.4 -5.6 0.5 0.2 0.1 2.7 -1 5.4 l-1.8 5 0.4 -4.8z"/>
  <path d="M452.5 171.1 c0 -2.2 0.3 -3.4 0.7 -2.8 0.5 0.8 0.8 0.4 0.8 -1 0 -1.2 0.5 -2.5 1 -2.8 1.1 -0.7 1.3 4.6 0.4 8.3 -1 3.7 -2.9 2.6 -2.9 -1.7z"/>
  <path d="M416.5 88.4 l-5 -4.5 4.7 3.3 c2.5 1.8 4.9 3.9 5.2 4.6 0.8 1.7 0.6 1.6 -4.9 -3.4z"/>
 </g>
 <g fill="#cd8e13">
  <path d="M340 473.9 c-3.6 -0.4 -8.3 -1.2 -10.5 -1.7 -3.2 -0.7 -3.6 -1.1 -2.2 -1.7 1.5 -0.6 1.6 -1 0.5 -1.7 -0.9 -0.6 -0.3 -0.8 1.7 -0.4 1.7 0.3 6.6 1 11 1.6 14.2 2 14.5 2 14.5 3.5 0 1.7 -3.7 1.8 -15 0.4z"/>
  <path d="M456 332 c0 -2.8 0.3 -3 3.5 -3 4.4 0 4.4 0.9 0 3.8 l-3.5 2.2 0 -3z"/>
  <path d="M442.6 327.9 c1.6 -1.8 1.6 -1.9 -0.5 -1.9 -1.2 0 -3.1 0.5 -4.2 1.1 -1.1 0.6 -2.5 0.8 -3.2 0.6 -0.7 -0.2 1.4 -1.2 4.6 -2.2 3.2 -1.1 7.1 -3 8.7 -4.4 1.6 -1.5 3.6 -3 4.5 -3.6 0.9 -0.5 1.7 -1.8 1.9 -2.7 0.4 -2.9 1.1 -2.9 7.1 -0.2 4.1 1.7 5.5 2.1 4.6 1 -1.2 -1.4 -1 -1.6 1.3 -1.6 2 0 2.6 0.5 2.6 2.1 0 1.2 0.7 2.7 1.6 3.4 1.5 1 1.4 1.4 -0.8 3.8 -3 3.3 -3.8 3.4 -3.8 0.6 0 -1.6 -0.4 -1.9 -1.7 -1.4 -1 0.4 -4.5 1.5 -7.9 2.5 -3.3 0.9 -6.6 2 -7.4 2.5 -0.7 0.5 -3.1 1.2 -5.2 1.5 -3.7 0.7 -3.8 0.7 -2.2 -1.1z"/>
  <path d="M316.2 315.4 c-0.2 -2.9 3.6 -5 21.5 -12 11.5 -4.5 23.8 -7.3 18.5 -4.2 -1.2 0.8 -1.9 1.8 -1.5 2.2 0.4 0.5 -0.2 0.6 -1.5 0.3 -1.4 -0.3 -2 -0.1 -1.5 0.6 0.4 0.6 -0.2 0.8 -1.5 0.5 -1.2 -0.4 -2 -0.2 -1.7 0.2 0.7 1.2 -3.2 2.3 -4.6 1.4 -0.7 -0.4 -0.9 -0.3 -0.6 0.3 0.3 0.5 -3.1 2.4 -7.6 4.2 -4.5 1.9 -10 4.3 -12.2 5.6 -6.3 3.5 -7.1 3.6 -7.3 0.9z"/>
  <path d="M362 244.9 c-7.4 -1.5 -15.3 -2.8 -17.5 -2.9 -2.2 0 -6.9 -0.7 -10.5 -1.4 -6 -1.2 -6.3 -1.4 -4 -2.4 l2.5 -1.1 -3 -0.1 c-1.6 -0.1 -4.1 -0.5 -5.5 -1 -1.9 -0.6 -1.3 -0.8 2.6 -0.8 2.8 0 6.5 -0.7 8.1 -1.6 5.3 -2.7 33.3 -10.6 37.7 -10.6 5.4 0 18.2 3.2 23.5 5.9 5.5 2.8 8.5 2.6 14.3 -0.9 5.5 -3.4 6.6 -3.7 4.7 -1.2 -1.3 1.5 -1.2 1.6 0.4 0.3 0.9 -0.8 1.5 -1.6 1.2 -1.9 -0.7 -0.7 2.5 -4.2 3.8 -4.2 0.5 0 0.3 0.8 -0.4 1.7 -1.1 1.3 -1.1 1.5 -0.1 0.9 1 -0.6 1.3 -0.3 1 1.2 -0.4 2.9 -13.5 12.3 -25.3 18.1 -12 5.9 -13.8 6 -33.5 2z"/>
 </g>
 <g fill="#c47e25">
  <path d="M350.8 483.3 c-2.9 -0.7 -2.1 -3.3 1 -3.3 2.1 0 2.8 0.5 2.8 2 0 2 -0.5 2.2 -3.8 1.3z"/>
  <path d="M343.8 475.5 c-0.3 -0.3 -4.3 -1 -8.9 -1.6 -4.6 -0.5 -8.6 -1.3 -8.9 -1.5 -0.3 -0.3 0.3 -1.2 1.3 -1.9 1.3 -1 1.5 -1.4 0.5 -1.8 -0.7 -0.3 0.5 -0.3 2.7 0 2.2 0.3 4.9 1.1 6 1.7 1.1 0.6 4.3 1.1 7 1.1 2.8 0.1 8.3 0.2 12.4 0.3 7.3 0.2 7.4 0.2 5.6 2.2 -1.5 1.7 -3.1 2 -9.5 2 -4.2 0 -7.9 -0.2 -8.2 -0.5z"/>
  <path d="M355 440 c0 -0.5 1.6 -1 3.5 -1 1.9 0 3.5 0.5 3.5 1 0 0.6 -1.6 1 -3.5 1 -1.9 0 -3.5 -0.4 -3.5 -1z"/>
  <path d="M434.5 345 c-0.4 -0.7 0.2 -1.8 1.4 -2.6 1.2 -0.8 2.1 -2.5 2.1 -3.6 0 -3.7 4.1 -10.9 7.4 -12.9 1.7 -1 6.7 -3 11.1 -4.4 10.4 -3.3 11.3 -3.9 9.6 -5.9 -1.2 -1.4 -0.9 -1.6 2.2 -1.6 2.7 0 3.5 0.4 3.1 1.4 -0.3 0.8 -0.1 2.3 0.5 3.3 1.5 2.9 -3.9 8.2 -16.4 16.4 -13.8 9.1 -19.8 11.9 -21 9.9z"/>
  <path d="M299.2 326.4 c0.2 -2.3 0.9 -3 3.1 -3.2 1.9 -0.2 2.7 -0.9 2.7 -2.2 0 -5.5 45 -25.3 60.5 -26.6 l5 -0.4 -3.7 1.6 c-2.1 0.9 -3.8 2 -3.8 2.4 0 0.5 -1 0.6 -2.2 0.2 -1.3 -0.3 -1.9 -0.1 -1.5 0.5 0.4 0.6 0 1.4 -0.9 1.7 -2.4 0.9 -3.1 0.7 -1.4 -0.4 0.9 -0.6 1 -1 0.3 -1 -0.6 0 -1.9 0.7 -2.7 1.6 -0.9 0.8 -2 1.2 -2.6 0.9 -0.5 -0.3 -1 -0.1 -1 0.5 0 0.7 -0.7 1 -1.5 0.6 -0.8 -0.3 -1.5 0 -1.5 0.6 0 0.6 -0.3 0.8 -0.7 0.5 -0.3 -0.4 -1.2 -0.2 -2 0.4 -0.7 0.6 -1.3 0.8 -1.3 0.5 0 -0.4 -0.7 0 -1.6 0.8 -0.8 0.9 -2.1 1.6 -2.7 1.6 -0.7 0 -0.6 -0.5 0.3 -1.1 1.2 -0.9 1.2 -1 -0.3 -0.5 -1 0.3 -2.1 0.6 -2.3 0.6 -0.3 0 -0.2 0.5 0.2 1.1 0.4 0.8 -0.1 0.9 -1.6 0.4 -1.4 -0.4 -2 -0.3 -1.6 0.3 0.8 1.3 -1.9 2.3 -4.1 1.5 -1 -0.4 -1.4 -0.2 -0.9 0.5 0.3 0.6 -0.2 1.3 -1.3 1.7 -1 0.3 -5.6 2.8 -10.2 5.6 -4.6 2.8 -9.2 5.3 -10.2 5.5 -2.5 0.4 -4.7 2.3 -4.4 3.7 0.1 0.6 -0.2 1.1 -0.8 1.2 -0.5 0 -1.6 0.4 -2.3 0.9 -1 0.6 -1.3 0.1 -1 -2z m14.3 -7.9 l2 -1.6 -2 1 c-1.1 0.5 -2.9 1.7 -4 2.6 l-2 1.6 2 -1 c1.1 -0.5 2.9 -1.7 4 -2.6z"/>
  <path d="M330 268.6 c0 -0.2 3.9 -1.8 8.7 -3.5 4.7 -1.8 9.3 -3.6 10.2 -4.2 1.3 -0.9 1.2 -0.9 -0.4 -0.4 -13.7 4.7 -15.8 5.2 -18.9 4.5 -1.9 -0.4 -3.8 -1 -4.4 -1.4 -0.6 -0.3 -2.1 -0.2 -3.4 0.3 -1.5 0.6 -3.2 0.4 -4.8 -0.4 -1.4 -0.7 -4.9 -1.3 -7.9 -1.4 -6.3 -0.1 -8.4 -1.1 -2.4 -1.1 3.9 0 4.3 -0.3 7.5 -5.2 1.8 -2.9 3.5 -5.7 3.7 -6.3 0.8 -1.8 10.6 -10.7 12.8 -11.6 2.8 -1 13.3 0.2 35.1 4.3 l16.3 3 5 -2.7 c2.8 -1.4 5.8 -2.4 6.6 -2.1 0.8 0.3 1.2 0.2 0.9 -0.3 -0.7 -1 2.2 -2.3 3.4 -1.6 0.5 0.3 1.2 0 1.6 -0.6 0.4 -0.8 0.3 -0.9 -0.4 -0.5 -0.7 0.4 -1.2 0.5 -1.2 0.3 0 -0.2 2.3 -1.8 5.1 -3.5 2.7 -1.8 4.7 -2.6 4.4 -1.9 -0.4 0.6 0.5 -0.3 2 -2.1 1.6 -1.9 3.3 -3.1 4.1 -2.8 0.8 0.3 2.1 -0.5 2.9 -1.7 0.8 -1.2 5.4 -6.3 10.2 -11.2 9.2 -9.4 8.1 -7.6 -2.2 3.5 -4.1 4.4 -4.6 5.2 -1.6 2.5 6.6 -6.1 14.2 -15.5 13.5 -16.7 -0.4 -0.6 -0.2 -0.8 0.4 -0.4 0.6 0.3 1.5 -0.2 2.1 -1.1 0.9 -1.5 1 -1.3 1.1 1.5 0 1.7 -0.4 3.2 -1 3.2 -0.5 0 -1 0.7 -1 1.5 0 2.6 -20 21.7 -29 27.7 -14.8 9.8 -39.2 21.1 -63.6 29.4 -8.9 3 -15.4 4.3 -15.4 3z m-5.1 -13.4 c1.3 -2.5 0 -4.2 -3.4 -4.5 -2.1 -0.1 -2.9 0.3 -3.1 1.8 -0.6 4.1 4.6 6.3 6.5 2.7z m46.6 -3.3 c0.5 -0.5 -0.5 -0.4 -2.3 0.2 -1.7 0.6 -3.2 1.3 -3.2 1.6 0 0.7 4.3 -0.8 5.5 -1.8z"/>
 </g>
 <g fill="#9b08c2">
  <path d="M358 388 c0 -1.4 3.2 -2.7 11.3 -4.5 8.6 -1.9 8.7 -1.9 8.7 0.3 0 1.5 -1.5 2.2 -7.8 3.5 -8.9 2 -12.2 2.1 -12.2 0.7z"/>
  <path d="M380 383.6 c0 -1.4 2.9 -2.6 6.8 -2.6 1.5 0 2.2 0.6 2.2 2 0 1.7 -0.7 2 -4.5 2 -3.2 0 -4.5 -0.4 -4.5 -1.4z"/>
  <path d="M391 383 c0 -2.1 2.3 -2.6 6.8 -1.4 4.1 1.1 2.6 3.4 -2.3 3.4 -3.8 0 -4.5 -0.3 -4.5 -2z"/>
  <path d="M219.3 217.3 c0.3 -1 0.8 -3.5 1.2 -5.5 0.7 -4.7 3.1 -5 3.7 -0.6 0.4 2.2 -0.1 3.8 -1.5 5.5 -2.4 2.7 -4 3 -3.4 0.6z"/>
  <path d="M205.5 199.8 c1.7 -8.3 5.7 -19 7.3 -19.6 0.8 -0.2 1.2 0.9 1.2 3.2 0 2 -0.4 3.6 -1 3.6 -0.5 0 -1 1.1 -1 2.5 0 1.4 -0.4 2.5 -1 2.5 -0.5 0 -1 1.1 -1 2.4 0 5.3 -1.2 8.6 -3.2 8.6 -1.7 0 -1.9 -0.5 -1.3 -3.2z"/>
  <path d="M222 179.5 c0 -3.4 0.1 -3.5 4 -3.5 3.9 0 4 0.1 4 3.5 0 3.4 -0.1 3.5 -4 3.5 -3.9 0 -4 -0.1 -4 -3.5z"/>
  <path d="M215 172.7 c0 -1.9 2.5 -5.7 3.8 -5.7 1.8 0 7.2 3.2 7.2 4.2 0 0.4 -0.8 0.8 -1.7 0.8 -1 0 -3.5 0.3 -5.5 0.6 -2.1 0.4 -3.8 0.4 -3.8 0.1z"/>
  <path d="M236.3 167.8 c1.8 -2.9 4.7 -7.5 6.5 -10.1 3.8 -5.5 3.8 -5.5 -3.9 -11.4 -2.7 -2 -4.9 -4.1 -4.9 -4.5 0 -1.2 20.4 -21.8 21.6 -21.8 0.5 0 1 0.9 1.1 2 0.1 1.1 1.5 3.9 3 6.3 2.1 3.1 3.6 4.3 5.8 4.5 3.8 0.4 12.9 -1.8 22 -5.3 13.7 -5.3 24.2 -7.5 34.9 -7.5 25.3 0 56.7 2.9 60.2 5.5 1.6 1.1 1.6 1.4 -0.2 4.3 -1.7 3 -3.4 4.2 -3.4 2.4 0 -1 -11.8 -3.2 -17.5 -3.2 -2.4 0 -6.4 -0.8 -8.7 -1.7 -6.7 -2.8 -20.2 -2.3 -30.8 1.2 -18.3 5.9 -30.2 12.6 -44.8 25.1 -4.7 4.1 -8.4 6.5 -10.8 7 -4.2 0.8 -12.9 -0.2 -15.4 -1.9 -1.6 -0.9 -2.3 -0.7 -4.2 1.4 -1.3 1.4 -3.2 4.2 -4.3 6.2 -1.1 2 -2.3 3.7 -2.7 3.7 -0.5 0 -0.8 0.7 -0.8 1.5 0 1 -1 1.5 -2.9 1.5 l-3 0 3.2 -5.2z m25.7 -22.3 c0 -0.8 -0.7 -1.5 -1.5 -1.5 -0.8 0 -1.5 0.7 -1.5 1.5 0 0.8 0.7 1.5 1.5 1.5 0.8 0 1.5 -0.7 1.5 -1.5z"/>
 </g>
 <g fill="#7d0eaa">
  <path d="M396 427 c0 -1.7 0.7 -2 4.3 -2 5.6 0 8.7 0.9 8.7 2.6 0 1.1 -1.6 1.4 -6.5 1.4 -5.8 0 -6.5 -0.2 -6.5 -2z"/>
  <path d="M347.2 391.8 c0.3 -0.7 1.9 -1.8 3.6 -2.5 3.1 -1.3 3.2 -1.2 3.2 1.2 0 2.2 -0.4 2.5 -3.6 2.5 -2.3 0 -3.4 -0.4 -3.2 -1.2z"/>
  <path d="M356 388.6 c0 -0.9 0.1 -1.6 0.3 -1.6 0.1 0 4.7 -1.1 10.2 -2.5 12.1 -3 14.5 -3.1 14.5 -0.7 0 1.5 -1.7 2.2 -8.7 3.6 -13.9 2.9 -16.3 3.1 -16.3 1.2z"/>
  <path d="M383 383.5 c0 -0.8 1.4 -1.7 3.5 -2.1 4.7 -0.9 10.5 0.3 10.5 2.1 0 1.2 -1.5 1.5 -7 1.5 -5.5 0 -7 -0.3 -7 -1.5z"/>
  <path d="M220 216.3 c0 -4.2 1.3 -6.3 3.6 -6.3 1.5 0 2.4 -0.6 2.4 -1.5 0 -1 1 -1.5 3 -1.5 2.3 0 3 -0.4 3 -2 0 -1.1 0.5 -2 1.1 -2 0.6 0 1.7 -0.7 2.5 -1.5 1.6 -1.5 8.4 -2.1 8.4 -0.7 0 0.4 -2.6 2.3 -5.7 4.1 -6.8 4 -16.3 11.2 -16.3 12.3 0 0.5 -0.4 0.8 -1 0.8 -0.5 0 -1 -0.8 -1 -1.7z"/>
  <path d="M221 207.1 c0 -0.4 -2.1 -1.4 -4.7 -2 -2.7 -0.7 -6.1 -1.6 -7.8 -2 -3.8 -0.9 -3.7 -2.7 0.9 -16 4.3 -12.3 7.8 -20.1 9.2 -20.1 0.6 0 3.6 1.4 6.8 3.1 3.1 1.7 6.3 2.8 7.1 2.5 0.8 -0.3 3.1 -3.1 5.2 -6.3 2 -3.2 5 -7.7 6.8 -9.9 l3.1 -4.2 3.9 2.3 c5.1 2.8 10.5 3.8 14 2.5 1.5 -0.6 5.7 -3.6 9.4 -6.8 13.5 -11.9 25.8 -18.7 44.1 -24.8 7.4 -2.4 10.1 -2.8 21 -2.8 9.1 -0.1 13.2 0.3 15 1.3 2.1 1.2 10.7 2.5 23.5 3.5 7.8 0.7 1.2 6.6 -7.3 6.6 -1.9 0 -6.4 -1.2 -10 -2.6 -11.8 -4.7 -28.2 -4.4 -36.8 0.7 -1.7 1.1 -4.9 1.9 -7.1 1.9 -2.3 0 -5.1 0.8 -6.4 1.8 -3.9 2.8 -6.2 4.2 -9 5.3 -1.4 0.5 -3.1 2.1 -3.7 3.4 -1 2.1 -1.9 2.5 -5.2 2.5 -2.2 0 -4 0.4 -4 0.9 0 0.5 -1 1.3 -2.2 1.6 -1.3 0.4 -4.1 2.4 -6.3 4.5 -2.2 2 -5.9 4.9 -8.3 6.2 -2.8 1.7 -6.8 5.8 -11.4 11.9 -3.9 5.2 -7.6 9.7 -8.2 10.1 -2.3 1.6 -7.5 0.7 -13.2 -2.2 -3.2 -1.6 -6.4 -3 -7.1 -3 -0.6 0 -1.3 1.7 -1.5 3.8 l-0.3 3.7 -5 0 -5 0 -0.3 -4.2 c-0.3 -3.3 0.1 -4.4 2 -5.8 l2.3 -1.6 -2.5 0.3 c-1.8 0.2 -3 1.4 -4.4 4.3 -2 4.2 -7.6 20 -7.6 21.5 0 0.4 1.7 1.1 3.8 1.4 9.3 1.6 9.2 1.6 9.2 4.7 0 1.6 -0.4 2.9 -1 2.9 -0.5 0 -1 -0.4 -1 -0.9z"/>
  <path d="M238.3 145.8 c-3.3 -2.3 -4.1 -4.2 -2.4 -5.3 0.8 -0.4 3.1 2.2 5.5 6.3 1 1.7 0.6 1.5 -3.1 -1z"/>
 </g>
 <g fill="#7a1e84">
  <path d="M341.4 481.1 c-3.9 -1 -9.2 -3 -11.8 -4.5 -4 -2.3 -4.5 -2.9 -3.6 -4.6 1.3 -2.4 1.3 -2.4 12 -0.5 4.7 0.8 12.1 1.5 16.4 1.5 l7.9 0 -1.9 2.1 c-1.7 2 -2.6 2.1 -10.9 1.6 -4.9 -0.2 -7.9 -0.1 -6.5 0.3 1.4 0.5 5.1 0.8 8.3 0.9 l5.8 0.1 -1.8 2.5 c-2.1 2.9 -4.2 3 -13.9 0.6z"/>
  <path d="M355.7 439 c2.3 -1.4 5.9 -2.1 12.5 -2.6 10 -0.7 23.6 -3.6 27.7 -6 l2.6 -1.5 -2.5 0.6 c-1.4 0.3 -6.3 1.5 -11 2.6 -11.3 2.7 -18 3.5 -18 2.1 0 -1.8 3.3 -3.1 16.3 -6.3 8.6 -2.1 13.2 -2.8 15.7 -2.3 1.9 0.4 5.2 0.6 7.3 0.5 5 -0.3 4.7 1.3 -0.8 4.8 -4.4 2.8 -6.4 3.7 -13.5 5.9 -5 1.6 -25.3 4.2 -33 4.2 l-6.5 0 3.2 -2z"/>
  <path d="M321.2 438.5 c-14.3 -2.6 -22.2 -8.5 -18.6 -14 2.1 -3.2 3.8 -3.7 7.1 -2 3.8 1.9 21.1 6.5 24.5 6.5 1.4 0 3.4 0.3 4.3 0.7 1.6 0.5 1.5 0.8 -0.5 2.3 -2 1.5 -3 1.6 -10.4 0.4 -4.5 -0.7 -11.1 -2.2 -14.7 -3.3 -6.3 -2 -6.4 -2 -4.1 -0.1 3.1 2.5 11 4.9 19 5.7 l6.3 0.6 -2.2 2.3 c-1.3 1.3 -2.5 2.4 -2.8 2.3 -0.3 0 -3.9 -0.7 -7.9 -1.4z"/>
  <path d="M334 398.3 c0 -0.7 11.2 -7.3 12.4 -7.3 0.3 0 0.6 0.9 0.6 2 0 1.1 0.3 2 0.8 2 3.8 0 31 -3.4 36.1 -4.4 11.3 -2.4 14.6 -3.8 14.9 -6.5 0.3 -2.2 0.7 -2.3 5 -1.6 5.6 0.8 7 1.8 5.3 3.9 -1.4 1.7 -13 6.3 -18.1 7.2 -1.9 0.3 -4.4 0.9 -5.5 1.4 -5.7 2.5 -51.5 5.4 -51.5 3.3z"/>
  <path d="M352 390 c0 -1.2 3.3 -3 5.4 -3 0.9 0 1.6 0.9 1.6 2 0 1.6 -0.7 2 -3.5 2 -1.9 0 -3.5 -0.4 -3.5 -1z"/>
  <path d="M283.4 344.6 c-0.8 -2 3.9 -9.7 10 -16.3 11.9 -13 25 -20.3 54.6 -30.3 10.2 -3.4 19.4 -6.6 20.5 -7 1.1 -0.4 6.1 -2.2 11 -3.9 39.3 -13.8 59.9 -26.6 75 -46.7 6.9 -9.1 15.2 -24.4 13.3 -24.4 -4.4 0.1 -5.3 1.1 -5 5.2 0.5 4.6 -0.6 5.8 -5.5 5.8 -2.9 0 -3.3 -0.3 -3.3 -2.5 0 -2.2 -0.4 -2.5 -3.9 -2.5 -4.3 0 -5.1 -1 -5.1 -6.3 0 -3.8 2.2 -9.9 7.8 -21.7 5.8 -12.4 9.2 -25.4 9.9 -37.9 0.6 -9.8 0.5 -10.5 -1 -9.2 -1.3 1 -1.7 3 -1.7 8 0 13.9 -7.8 35.9 -18.1 51.3 -2.3 3.5 -8.1 10.2 -12.9 15 -15.9 15.8 -37.9 28.3 -75 42.8 -10.2 4 -23.9 9.5 -30.5 12.3 -23.7 10 -41.8 23.1 -51.6 37.4 -4.9 7 -9.2 17.4 -9 21.5 0.1 3.5 -0.1 3.7 -2.2 2.9 -3 -1.1 -3.2 -3.7 -0.8 -11.8 2.1 -6.9 9.1 -18.4 15.4 -25.2 10.2 -10.8 33.4 -24.6 55.7 -33.1 28.9 -11 31.3 -11.9 44 -17.6 43.3 -19.3 67.5 -43.7 77.5 -77.9 1.5 -5.3 2.9 -12.9 3.2 -18.3 0.3 -5.1 1.1 -9.6 1.7 -10 3.1 -2 8.8 -3.2 15.2 -3.2 8.8 0 10 1.1 11.4 10.6 4 28 -4 60.4 -21.7 87.1 -5.8 8.9 -18.8 21.8 -27.8 27.8 -15.6 10.3 -30.8 17.2 -60 26.9 -35.4 11.9 -47.8 16.7 -58.5 23 -9.5 5.5 -19.7 15.1 -25.5 23.9 -3.7 5.6 -6 7 -7.1 4.3z"/>
  <path d="M268.3 341.5 c-4.3 -1.8 -4.2 -3.5 0.2 -3.5 3.1 0 3.5 0.3 3.5 2.5 0 1.4 -0.1 2.5 -0.2 2.5 -0.2 -0.1 -1.8 -0.7 -3.5 -1.5z"/>
  <path d="M252 189.9 l0 -4 3.8 0.3 c3.5 0.3 3.7 0.5 4 4.1 l0.3 3.7 -4 0 -4.1 0 0 -4.1z"/>
  <path d="M288 144.5 c0 -1.1 0.7 -1.3 2.9 -0.9 2.5 0.5 3.2 0.2 4.5 -2.2 l1.5 -2.9 0.1 3.8 0 3.7 -4.5 0 c-3.3 0 -4.5 -0.4 -4.5 -1.5z"/>
  <path d="M375.3 135.9 c-0.7 -0.7 -2.9 -1.5 -5 -1.8 -3 -0.5 -3.9 -1.1 -4.1 -2.9 -0.3 -2.1 -0.1 -2.2 1.7 -1.3 1.7 1 2 0.9 1.5 -0.4 -0.5 -1.1 -0.2 -1.3 1 -0.9 0.9 0.3 1.6 1 1.6 1.6 0 0.5 0.5 0.6 1.2 0.2 0.6 -0.4 2.9 -1 5 -1.4 4.7 -0.9 5 0.6 1.1 5 -2.2 2.4 -3.1 2.8 -4 1.9z"/>
 </g>
 <g fill="#6c139c">
  <path d="M361 437 c0 -1.1 7.3 -5 9.5 -5 2.5 0 1.7 3.6 -1 4.8 -3.1 1.5 -8.5 1.6 -8.5 0.2z"/>
  <path d="M348 391.7 c0 -1.7 9.7 -5.1 22.9 -7.8 12.2 -2.5 16.1 -2.5 16.1 0 0 1.5 -1.1 1.9 -6.8 2.5 -3.8 0.4 -10.8 1.8 -15.8 3.3 -11.8 3.4 -16.4 4 -16.4 2z"/>
  <path d="M393 384 c0 -1.6 0.7 -2 3.8 -2 5.2 0 8.2 1 8.2 2.6 0 1 -1.6 1.4 -6 1.4 -5.3 0 -6 -0.2 -6 -2z"/>
  <path d="M272.8 343.3 c-3.3 -0.8 -2 -3.3 1.7 -3.3 2.8 0 3.5 0.4 3.5 2 0 2 -1.4 2.3 -5.2 1.3z"/>
  <path d="M451 215.6 c0 -1.9 -0.6 -3.6 -1.2 -3.9 -2.6 -0.9 2.4 -2 5.1 -1.1 2.1 0.8 2.7 1.7 2.9 4.7 0.3 3.6 0.3 3.7 -3.2 3.7 -3.4 0 -3.6 -0.2 -3.6 -3.4z"/>
  <path d="M220.7 212 c0.7 -6.8 0.9 -6.5 -8.5 -8.4 l-5.7 -1.1 0.3 -3.5 c0.3 -4.5 4.5 -17.3 8.3 -25.6 1.7 -3.5 3.1 -6.4 3.3 -6.4 0.2 0 3.2 1.6 6.8 3.4 4 2.2 7.3 3.3 8.6 3 1.2 -0.4 3.2 0.2 4.9 1.5 3.9 2.8 9.7 5.1 10.9 4.3 0.6 -0.4 4.3 -4.9 8.2 -10.1 4.6 -6.1 8.6 -10.2 11.4 -11.9 2.4 -1.3 6.1 -4.2 8.3 -6.2 2.2 -2.1 5 -4.1 6.2 -4.4 1.1 -0.4 2.4 -1.4 2.7 -2.2 0.4 -1.1 1.4 -1.3 4.1 -0.8 3 0.5 3.6 0.3 4.6 -1.9 0.7 -1.5 2.4 -3.1 3.8 -3.7 1.4 -0.5 4 -1.9 5.6 -3 7.4 -4.8 10.6 -6.2 12.1 -4.9 1.1 0.9 2 0.8 4 -0.6 9.3 -6 32 -6.3 45.1 -0.5 2.5 1.1 5.8 2 7.2 2 3.3 0 6.7 2.3 5.7 3.8 -1.2 2 -7.2 1.3 -16.6 -1.9 -9.1 -3.1 -9.1 -3.1 -18.8 -1.9 -13.9 1.7 -21.4 3.7 -32.2 8.7 -10.5 4.9 -16.8 8.6 -25 14.9 -3 2.4 -7.5 5.2 -9.9 6.3 -5.7 2.5 -15.1 11.7 -15.1 14.7 0 1.2 -0.8 2.6 -1.7 2.9 -3.3 1.2 -10.1 10.3 -12.3 16.4 -2.1 5.5 -2.7 6.2 -8.6 9.7 -3.6 2.1 -9.2 5.9 -12.4 8.6 l-6 4.8 0.7 -6z m6.8 -31 c0.4 -0.6 0.1 -1.8 -0.6 -2.6 -1.1 -1.3 -1.4 -1.3 -2.7 0 -0.8 0.8 -1.1 1.9 -0.8 2.5 0.9 1.4 3.3 1.4 4.1 0.1z"/>
 </g>
 <g fill="#60178f">
  <path d="M345 480.9 c-7.9 -1 -19.3 -6.3 -18.8 -8.7 0.3 -1.3 1.2 -1.6 4.2 -1.4 2.2 0.2 5 0.8 6.3 1.3 1.4 0.5 4.5 0.9 7.1 0.9 2.9 0 6.6 0.9 9.5 2.4 l4.9 2.3 -2.7 2.2 c-1.5 1.1 -3 2 -3.4 2 -0.3 -0.1 -3.5 -0.5 -7.1 -1z"/>
  <path d="M360.7 439.3 c-8.5 -2.2 21.3 -12.2 39.1 -13.1 6.6 -0.3 8.2 -0.1 8.2 1.1 0 2.2 -10.5 7.3 -19.5 9.5 -7.9 2 -24.3 3.4 -27.8 2.5z"/>
  <path d="M319.3 437 c-11 -2.5 -12.3 -3.3 -12.3 -7.5 0 -3.4 0.1 -3.5 3.9 -3.5 2.2 0 8.1 1.4 13.1 3 5 1.7 10.1 3 11.3 3 2 0 2 0.2 -0.8 2.9 -4.1 4 -5.8 4.2 -15.2 2.1z"/>
  <path d="M349.5 397.3 c-1.1 -0.3 -2.4 -0.9 -2.9 -1.4 -0.6 -0.5 -1.8 -0.9 -2.8 -0.9 -2.5 0 -2.3 -1.4 0.5 -2.8 5 -2.6 20.8 -7 31.2 -8.7 12.3 -2 33.5 -1 33.5 1.6 0 3.5 -23.2 9.7 -43 11.4 -4.1 0.3 -9.1 0.8 -11 1 -1.9 0.2 -4.4 0.1 -5.5 -0.2z"/>
  <path d="M280.5 344.8 c-7.9 -1.6 -14.5 -4.1 -14.5 -5.4 0 -0.8 0.4 -1.4 0.9 -1.4 0.4 0 1.1 -2 1.4 -4.4 1.7 -12.2 10.8 -26.1 23.3 -35.5 9.6 -7.3 26.3 -15.2 45.9 -21.7 21 -7 28 -9.7 42.5 -16.7 25.5 -12.3 47.8 -30 62 -49.2 8.8 -11.9 18.3 -34 19.7 -45.7 0.5 -3.8 1 -4.8 2.5 -4.8 1.7 0 1.8 0.5 1.2 5.2 -1.1 9.1 -5.4 22.9 -10.5 33.7 -2.7 5.7 -4.9 10.5 -4.9 10.7 0 0.2 1 0.4 2.1 0.4 1.2 0 3.6 0.9 5.4 2 2.5 1.5 3.8 1.8 6.3 1 1.8 -0.5 3.2 -0.6 3.2 -0.2 0.1 2.1 4.3 -6.5 6.9 -13.9 2.9 -8.1 8.1 -34 8.1 -40.1 0 -1.6 0.5 -2.8 1 -2.8 1.5 0 0.5 22.9 -1.3 32 -5.9 28.8 -20.9 54 -42.7 71.4 -13 10.4 -28.2 17.7 -51 24.6 -60 18.1 -89.7 34.3 -100.2 55 l-3.3 6.6 -4 -0.8z m179.3 -123 c-0.5 -1.5 -2.3 -1.1 -2.6 0.6 -0.2 1.1 0.2 1.4 1.3 1 0.9 -0.4 1.4 -1.1 1.3 -1.6z m-8.8 -6.3 c0 -3.7 -1.3 -4.7 -2.4 -1.9 -0.8 2 0.2 5.4 1.5 5.4 0.5 0 0.9 -1.6 0.9 -3.5z m4 -1.1 c0 -1.7 -2.2 -1.4 -2.8 0.4 -0.2 0.7 0.3 1.2 1.2 1.2 0.9 0 1.6 -0.7 1.6 -1.6z"/>
  <path d="M241.6 199.3 c2.3 -9.8 4.9 -14.1 14 -24 0.7 -0.7 1.5 -0.9 1.9 -0.5 0.4 0.4 0.5 -0.2 0.1 -1.4 -0.5 -1.6 0.7 -3.3 5.2 -7.8 3.2 -3.2 7.8 -6.7 10.3 -7.7 2.4 -1.1 6.9 -3.9 9.9 -6.3 17.5 -13.4 35 -20.8 56.3 -23.6 12.3 -1.6 16.7 -1.2 26 2 4.8 1.7 9.8 3 11.2 3 3.1 0 3.1 0.7 0 4.4 l-2.3 2.9 -6.6 -2.1 c-17.4 -5.7 -44.5 0.9 -73.1 17.7 -8.9 5.2 -13.2 8.7 -22.7 18.1 -11.7 11.6 -11.8 11.7 -11.8 16.3 l0 4.7 -3.5 0 c-1.9 0 -3.5 0.4 -3.5 1 0 1 -9.1 6 -11 6 -0.6 0 -0.8 -1.1 -0.4 -2.7z"/>
  <path d="M463 150.8 c0 -1.8 -0.3 -4.3 -0.6 -5.5 -0.4 -1.6 -0.1 -2.5 1 -2.9 0.9 -0.4 1.9 -0.4 2.2 -0.1 1 0.9 1.5 6.1 0.9 8.8 -0.9 4.1 -3.5 3.8 -3.5 -0.3z"/>
  <path d="M357.8 141.3 c-3.3 -0.8 -2 -3.3 1.7 -3.3 2.8 0 3.5 0.4 3.5 2 0 2 -1.4 2.3 -5.2 1.3z"/>
 </g>
 <g fill="#3b2072">
  <path d="M351.4 479 c-1.7 -1.7 -15.3 -6 -19.1 -6 -3.4 0 -8.3 -1.8 -5.8 -2.1 2.3 -0.3 7.2 0.3 10 1.1 2.7 0.8 14.3 1.8 21.9 2 l3 0 -2.9 3 c-2.9 3.1 -5.3 3.8 -7.1 2z"/>
  <path d="M357.4 438.2 c2.5 -1.8 4 -2 12.2 -1.5 13.8 0.9 28.8 -3 34 -8.8 1.9 -2.1 5.8 -2.6 5.2 -0.7 -0.8 2.2 -12.1 7.6 -20.2 9.6 -4.6 1.2 -13.6 2.3 -21.1 2.7 l-13 0.7 2.9 -2z"/>
  <path d="M307 432.8 c-4.7 -3.3 -5.6 -5.1 -4.2 -8.3 0.9 -1.9 1.8 -2.5 3 -2.1 0.9 0.3 4.9 1.7 8.9 3.1 3.9 1.4 10.7 3 15 3.7 4.3 0.6 8 1.3 8.2 1.5 1 0.8 -3.4 4.3 -5.5 4.3 -1.2 0 -6.4 -1.3 -11.4 -3 -10.5 -3.4 -11.4 -3.6 -10.6 -1.5 0.3 0.8 0.9 2.2 1.2 3 0.9 2.1 -0.8 1.9 -4.6 -0.7z"/>
  <path d="M336 397.1 c0 -0.5 2.5 -2.1 5.6 -3.6 4.9 -2.3 5.8 -2.5 7.2 -1.2 1 0.8 4 2 6.7 2.8 4.5 1.2 4.7 1.4 2.5 2 -3.8 1.1 -22 1 -22 0z"/>
  <path d="M401.8 388.4 c1.2 -0.9 2.2 -2.3 2.2 -3 0 -0.8 1 -1.4 2.5 -1.4 4.8 0 2.6 2.6 -4.2 5 -2.8 1 -2.8 0.9 -0.5 -0.6z"/>
  <path d="M283.3 345.3 c-2 -0.8 -1.5 -3.6 1.8 -9.9 10.7 -20.3 40.6 -36.6 99.9 -54.4 22.8 -6.9 38 -14.2 51 -24.6 23.8 -19 38.6 -45.5 44.1 -79.4 2.6 -16.1 4.1 -18.7 3.5 -6 -1 19.1 -4.9 33.7 -14 52.5 -16 32.6 -37.8 49.3 -87.1 66.6 -4.9 1.7 -9.9 3.5 -11 3.9 -1.1 0.4 -10.3 3.6 -20.5 7 -10.2 3.4 -22.6 8.2 -27.5 10.6 -14.8 7 -27.5 17.8 -34.5 29.3 -3.2 5.1 -3.5 5.4 -5.7 4.4z"/>
  <path d="M263 339.1 c-4.7 -2.5 -5 -5.9 -1 -15.4 5.3 -12.7 13.4 -22.9 25.5 -31.9 14.3 -10.6 24.7 -15.6 63.5 -30.8 37.1 -14.5 59.1 -27 75 -42.8 4.8 -4.8 10.6 -11.5 12.9 -15 10.3 -15.4 18.1 -37.4 18.1 -51.3 0 -7.3 0.8 -8.6 5.5 -9.1 l3 -0.3 0.3 8.5 c0.4 10.7 -1 19.5 -4.9 31.2 -9 27.2 -27.7 49.7 -57 68.8 -16.4 10.7 -34.5 18.8 -63.4 28.4 -19.6 6.5 -36.3 14.4 -45.9 21.7 -12.5 9.4 -21.6 23.3 -23.3 35.5 -0.7 5.1 -2.5 5.7 -8.3 2.5z"/>
  <path d="M248 198.1 c0 -0.6 1.3 -3.7 2.9 -6.9 2.1 -4.1 6.8 -9.4 16.3 -18.8 11 -10.8 15.3 -14.2 24.3 -19.5 10.5 -6.2 25.4 -12.9 36 -16.2 13.6 -4.2 35.7 -4.8 44.3 -1.2 4.7 1.9 4.9 2.9 1.1 5.7 -2.1 1.6 -3.2 1.6 -9.9 0.7 -14.8 -2.2 -36.2 1.3 -50.5 8.1 -15.2 7.3 -29.2 19.4 -39.1 34 -5 7.5 -5.1 7.5 -13.5 10.6 -4.6 1.7 -9.2 3.5 -10.1 3.9 -1.1 0.4 -1.8 0.3 -1.8 -0.4z m9 -8.1 c0 -1.1 -0.6 -2 -1.4 -2 -1.8 0 -2.9 1.6 -2.1 3 1.1 1.8 3.5 1.1 3.5 -1z"/>
  <path d="M482.6 159.3 c-0.4 -0.9 -0.2 -2.1 0.4 -2.7 0.7 -0.7 1 -0.2 1 1.7 0 3.1 -0.5 3.4 -1.4 1z"/>
 </g>
</svg>